<?xml version="1.0" encoding="UTF-8"?>
<svg xmlns="http://www.w3.org/2000/svg" xmlns:xlink="http://www.w3.org/1999/xlink" width="50px" height="px" viewBox="0 0 50 50" version="1.1">
<defs>
<linearGradient id="linear0" gradientUnits="userSpaceOnUse" x1="0.79" y1="40.089" x2="33.317" y2="40.089" gradientTransform="matrix(0.714286,0,0,0.714286,0,0)">
<stop offset="0.258" style="stop-color:rgb(97.647059%,47.843137%,7.058824%);stop-opacity:1;"/>
<stop offset="0.459" style="stop-color:rgb(69.019608%,48.235294%,34.509804%);stop-opacity:1;"/>
<stop offset="0.724" style="stop-color:rgb(34.117647%,48.235294%,68.235294%);stop-opacity:1;"/>
<stop offset="0.91" style="stop-color:rgb(11.764706%,48.627451%,89.803922%);stop-opacity:1;"/>
<stop offset="1" style="stop-color:rgb(3.137255%,48.627451%,98.039216%);stop-opacity:1;"/>
</linearGradient>
<linearGradient id="linear1" gradientUnits="userSpaceOnUse" x1="25.767" y1="24.88" x2="79.424" y2="54.57" gradientTransform="matrix(0.714286,0,0,0.714286,0,0)">
<stop offset="0" style="stop-color:rgb(97.647059%,47.843137%,7.058824%);stop-opacity:1;"/>
<stop offset="0.072" style="stop-color:rgb(79.607843%,47.843137%,24.313725%);stop-opacity:1;"/>
<stop offset="0.154" style="stop-color:rgb(61.960784%,48.235294%,41.568627%);stop-opacity:1;"/>
<stop offset="0.242" style="stop-color:rgb(45.882353%,48.235294%,56.862745%);stop-opacity:1;"/>
<stop offset="0.334" style="stop-color:rgb(32.54902%,48.235294%,69.411765%);stop-opacity:1;"/>
<stop offset="0.432" style="stop-color:rgb(21.960784%,48.627451%,80%);stop-opacity:1;"/>
<stop offset="0.538" style="stop-color:rgb(13.72549%,48.627451%,87.843137%);stop-opacity:1;"/>
<stop offset="0.655" style="stop-color:rgb(7.843137%,48.627451%,93.72549%);stop-opacity:1;"/>
<stop offset="0.792" style="stop-color:rgb(4.313725%,48.627451%,96.862745%);stop-opacity:1;"/>
<stop offset="1" style="stop-color:rgb(3.137255%,48.627451%,98.039216%);stop-opacity:1;"/>
</linearGradient>
<linearGradient id="linear2" gradientUnits="userSpaceOnUse" x1="63.228" y1="42.915" x2="48.29" y2="-1.719" gradientTransform="matrix(0.714286,0,0,0.714286,0,0)">
<stop offset="0" style="stop-color:rgb(99.607843%,19.215686%,36.470588%);stop-opacity:1;"/>
<stop offset="0.078" style="stop-color:rgb(79.607843%,25.490196%,49.411765%);stop-opacity:1;"/>
<stop offset="0.16" style="stop-color:rgb(61.960784%,30.588235%,60.784314%);stop-opacity:1;"/>
<stop offset="0.247" style="stop-color:rgb(45.882353%,35.686275%,70.588235%);stop-opacity:1;"/>
<stop offset="0.339" style="stop-color:rgb(32.54902%,39.607843%,79.215686%);stop-opacity:1;"/>
<stop offset="0.436" style="stop-color:rgb(21.960784%,42.745098%,85.882353%);stop-opacity:1;"/>
<stop offset="0.541" style="stop-color:rgb(13.72549%,45.490196%,91.372549%);stop-opacity:1;"/>
<stop offset="0.658" style="stop-color:rgb(7.843137%,47.058824%,95.294118%);stop-opacity:1;"/>
<stop offset="0.794" style="stop-color:rgb(4.313725%,48.235294%,97.254902%);stop-opacity:1;"/>
<stop offset="1" style="stop-color:rgb(3.137255%,48.627451%,98.039216%);stop-opacity:1;"/>
</linearGradient>
<linearGradient id="linear3" gradientUnits="userSpaceOnUse" x1="10.72" y1="16.473" x2="55.524" y2="90.58" gradientTransform="matrix(0.714286,0,0,0.714286,0,0)">
<stop offset="0" style="stop-color:rgb(99.607843%,19.215686%,36.470588%);stop-opacity:1;"/>
<stop offset="0.04" style="stop-color:rgb(96.470588%,20.392157%,38.431373%);stop-opacity:1;"/>
<stop offset="0.104" style="stop-color:rgb(87.45098%,22.745098%,44.313725%);stop-opacity:1;"/>
<stop offset="0.167" style="stop-color:rgb(76.078431%,26.27451%,51.372549%);stop-opacity:1;"/>
<stop offset="0.291" style="stop-color:rgb(67.843137%,29.019608%,56.862745%);stop-opacity:1;"/>
<stop offset="0.55" style="stop-color:rgb(45.882353%,35.686275%,70.588235%);stop-opacity:1;"/>
<stop offset="0.917" style="stop-color:rgb(11.372549%,46.27451%,92.941176%);stop-opacity:1;"/>
<stop offset="1" style="stop-color:rgb(3.137255%,48.627451%,98.039216%);stop-opacity:1;"/>
</linearGradient>
</defs>
<g id="surface1">
<path style=" stroke:none;fill-rule:nonzero;fill:url(#linear0);" d="M 12.644531 39 L 0.570312 29.429688 L 6.570312 18.285156 L 23.785156 25 Z M 12.644531 39 "/>
<path style=" stroke:none;fill-rule:nonzero;fill:url(#linear1);" d="M 50 13.355469 L 49.070312 42.285156 L 29.855469 50 L 18.285156 42.570312 L 35.214844 25 L 27.785156 8.785156 L 34.429688 0.785156 Z M 50 13.355469 "/>
<path style=" stroke:none;fill-rule:nonzero;fill:url(#linear2);" d="M 50 13.355469 L 34.785156 31.355469 L 27.785156 8.785156 L 34.429688 0.785156 Z M 50 13.355469 "/>
<path style=" stroke:none;fill-rule:nonzero;fill:url(#linear3);" d="M 24.070312 41.5 L 4 48.785156 L 7.214844 37.5 L 11.429688 23.644531 L 0 19.785156 L 7.214844 0 L 22.929688 1.929688 L 38.355469 19.570312 Z M 24.070312 41.5 "/>
<path style=" stroke:none;fill-rule:nonzero;fill:rgb(0%,0%,0%);fill-opacity:1;" d="M 9.785156 9.644531 L 40.644531 9.644531 L 40.644531 40.5 L 9.785156 40.5 Z M 9.785156 9.644531 "/>
<path style=" stroke:none;fill-rule:nonzero;fill:rgb(100%,100%,100%);fill-opacity:1;" d="M 12.644531 34.714844 L 24.214844 34.714844 L 24.214844 36.644531 L 12.644531 36.644531 Z M 21 16 L 21 13.644531 L 14.570312 13.644531 L 14.570312 16 L 16.429688 16 L 16.429688 24.070312 L 14.570312 24.070312 L 14.570312 26.429688 L 21 26.429688 L 21 24.070312 L 19.214844 24.070312 L 19.214844 16 Z M 27.144531 26.644531 C 26.144531 26.644531 25.285156 26.429688 24.644531 26.070312 C 24 25.714844 23.429688 25.214844 23 24.714844 L 24.785156 22.714844 C 25.144531 23.144531 25.5 23.429688 25.855469 23.644531 C 26.214844 23.855469 26.644531 24 27.070312 24 C 27.570312 24 28 23.855469 28.355469 23.5 C 28.644531 23.144531 28.785156 22.644531 28.785156 21.855469 L 28.785156 13.644531 L 31.644531 13.644531 L 31.644531 22 C 31.644531 22.785156 31.570312 23.429688 31.355469 24 C 31.144531 24.570312 30.855469 25 30.429688 25.429688 C 30.070312 25.785156 29.570312 26.144531 29 26.285156 C 28.429688 26.5 27.855469 26.644531 27.144531 26.644531 "/>
</g>
</svg>
