<?xml version="1.0" encoding="UTF-8"?>
<svg xmlns="http://www.w3.org/2000/svg" xmlns:xlink="http://www.w3.org/1999/xlink" width="50px" height="px" viewBox="0 0 50 50" version="1.1">
<g id="surface1">
<path style=" stroke:none;fill-rule:evenodd;fill:rgb(26.27451%,60%,20.392157%);fill-opacity:1;" d="M 34.390625 16.722656 C 35.015625 18.539062 35.46875 20.390625 35.617188 22.308594 C 35.800781 24.6875 35.71875 27.054688 35.214844 29.394531 C 35.203125 29.460938 35.171875 29.519531 35.152344 29.582031 C 34.992188 29.582031 34.832031 29.5625 34.679688 29.585938 C 33.378906 29.789062 32.078125 30.003906 30.78125 30.214844 C 29.4375 30.429688 28.09375 30.640625 26.75 30.871094 C 26.277344 30.953125 25.6875 30.855469 25.496094 31.511719 C 25.492188 31.53125 25.4375 31.535156 25.40625 31.542969 L 25.46875 27.617188 L 25.402344 18.144531 L 26.03125 18.039062 C 27.054688 17.871094 28.078125 17.699219 29.101562 17.539062 C 30.324219 17.34375 31.546875 17.15625 32.769531 16.964844 C 33.308594 16.882812 33.847656 16.804688 34.390625 16.722656 Z M 34.390625 16.722656 "/>
<path style=" stroke:none;fill-rule:evenodd;fill:rgb(27.058824%,64.705882%,21.960784%);fill-opacity:1;" d="M 24.113281 42.988281 C 23.453125 42.421875 22.769531 41.878906 22.136719 41.28125 C 18.730469 38.070312 16.242188 34.289062 15.015625 29.734375 C 14.675781 28.480469 14.453125 27.203125 14.378906 25.910156 C 14.328125 25 14.253906 24.085938 14.320312 23.183594 C 14.488281 20.785156 14.835938 18.40625 15.539062 16.09375 L 15.578125 16.042969 C 15.648438 16.132812 15.746094 16.210938 15.78125 16.316406 C 16.46875 18.339844 17.148438 20.363281 17.828125 22.390625 C 19.960938 28.757812 22.089844 35.125 24.226562 41.492188 C 24.265625 41.617188 24.375 41.71875 24.453125 41.828125 Z M 24.113281 42.988281 "/>
<path style=" stroke:none;fill-rule:evenodd;fill:rgb(27.45098%,62.745098%,21.568627%);fill-opacity:1;" d="M 34.390625 16.722656 C 33.847656 16.804688 33.308594 16.882812 32.769531 16.964844 C 31.546875 17.152344 30.324219 17.34375 29.101562 17.535156 C 28.078125 17.699219 27.054688 17.867188 26.03125 18.035156 L 25.402344 18.144531 L 25.398438 17.734375 C 25.378906 17.398438 25.34375 17.066406 25.339844 16.730469 C 25.3125 14.589844 25.296875 12.449219 25.269531 10.308594 C 25.25 8.96875 25.226562 7.632812 25.199219 6.292969 C 25.183594 5.460938 25.164062 4.628906 25.128906 3.796875 C 25.105469 3.351562 25.035156 2.90625 25.007812 2.460938 C 24.988281 2.203125 25.011719 1.945312 25.015625 1.6875 C 25.335938 2.304688 25.648438 2.929688 25.976562 3.542969 C 26.496094 4.511719 27.320312 5.226562 28.0625 6.007812 C 31.003906 9.089844 33.089844 12.675781 34.390625 16.722656 Z M 34.390625 16.722656 "/>
<path style=" stroke:none;fill-rule:evenodd;fill:rgb(25.098039%,58.039216%,20%);fill-opacity:1;" d="M 25.40625 31.542969 C 25.4375 31.535156 25.492188 31.53125 25.496094 31.511719 C 25.6875 30.855469 26.277344 30.953125 26.75 30.871094 C 28.09375 30.640625 29.4375 30.429688 30.78125 30.210938 C 32.078125 30.003906 33.378906 29.789062 34.679688 29.585938 C 34.832031 29.5625 34.992188 29.582031 35.148438 29.582031 C 34.90625 30.449219 34.714844 31.335938 34.40625 32.179688 C 34.058594 33.132812 33.632812 34.070312 33.183594 34.984375 C 32.511719 36.347656 31.679688 37.628906 30.703125 38.796875 C 29.953125 39.699219 29.117188 40.53125 28.28125 41.355469 C 27.816406 41.808594 27.273438 42.179688 26.765625 42.589844 L 26.632812 42.5 L 26.15625 42.09375 L 25.667969 41.019531 C 25.332031 39.765625 25.148438 38.472656 25.125 37.175781 L 25.132812 36.957031 L 25.199219 36.007812 C 25.222656 35.6875 25.25 35.363281 25.265625 35.039062 C 25.316406 33.875 25.359375 32.710938 25.40625 31.542969 Z M 25.40625 31.542969 "/>
<path style=" stroke:none;fill-rule:evenodd;fill:rgb(30.980392%,66.666667%,25.490196%);fill-opacity:1;" d="M 25.40625 31.542969 C 25.359375 32.710938 25.316406 33.875 25.265625 35.039062 C 25.25 35.363281 25.222656 35.6875 25.199219 36.007812 L 24.902344 36.121094 C 24.238281 34.167969 23.574219 32.234375 22.921875 30.296875 C 21.847656 27.089844 20.789062 23.878906 19.714844 20.671875 C 18.847656 18.082031 17.976562 15.496094 17.097656 12.910156 C 17.058594 12.789062 16.9375 12.695312 16.855469 12.589844 L 18.769531 9.070312 C 18.835938 9.1875 18.921875 9.292969 18.964844 9.414062 C 19.847656 12.035156 20.730469 14.652344 21.605469 17.273438 C 22.746094 20.683594 23.878906 24.097656 25.015625 27.507812 C 25.0625 27.644531 25.136719 27.769531 25.207031 27.921875 L 25.46875 27.617188 Z M 25.40625 31.542969 "/>
<path style=" stroke:none;fill-rule:evenodd;fill:rgb(29.019608%,65.490196%,23.529412%);fill-opacity:1;" d="M 16.859375 12.589844 C 16.9375 12.695312 17.058594 12.789062 17.097656 12.910156 C 17.976562 15.496094 18.847656 18.082031 19.714844 20.671875 C 20.789062 23.878906 21.851562 27.089844 22.921875 30.296875 C 23.574219 32.234375 24.238281 34.167969 24.902344 36.125 L 25.199219 36.011719 L 25.132812 36.957031 L 25.074219 37.175781 C 24.96875 38.214844 24.882812 39.253906 24.753906 40.289062 C 24.691406 40.808594 24.554688 41.316406 24.453125 41.832031 C 24.375 41.71875 24.265625 41.617188 24.226562 41.492188 C 22.089844 35.125 19.960938 28.757812 17.828125 22.390625 C 17.148438 20.363281 16.46875 18.339844 15.78125 16.316406 C 15.746094 16.214844 15.648438 16.132812 15.578125 16.042969 L 16.855469 12.589844 Z M 16.859375 12.589844 "/>
<path style=" stroke:none;fill-rule:evenodd;fill:rgb(34.117647%,68.235294%,27.843137%);fill-opacity:1;" d="M 25.46875 27.617188 L 25.207031 27.921875 C 25.136719 27.769531 25.0625 27.644531 25.015625 27.507812 C 23.878906 24.097656 22.746094 20.683594 21.605469 17.273438 C 20.730469 14.652344 19.847656 12.035156 18.964844 9.414062 C 18.921875 9.292969 18.835938 9.1875 18.769531 9.070312 L 21.132812 5.960938 C 21.210938 6.058594 21.316406 6.148438 21.355469 6.261719 C 22.011719 8.183594 22.660156 10.109375 23.308594 12.035156 C 23.914062 13.832031 24.507812 15.632812 25.117188 17.429688 C 25.160156 17.550781 25.300781 17.636719 25.398438 17.738281 L 25.402344 18.144531 C 25.425781 21.300781 25.449219 24.460938 25.46875 27.617188 Z M 25.46875 27.617188 "/>
<path style=" stroke:none;fill-rule:evenodd;fill:rgb(37.647059%,69.803922%,30.980392%);fill-opacity:1;" d="M 25.398438 17.734375 C 25.304688 17.632812 25.160156 17.550781 25.121094 17.429688 C 24.507812 15.632812 23.914062 13.832031 23.308594 12.03125 C 22.664062 10.105469 22.011719 8.183594 21.355469 6.261719 C 21.316406 6.148438 21.210938 6.058594 21.136719 5.960938 C 21.90625 5.207031 22.648438 4.425781 23.449219 3.707031 C 24.160156 3.070312 24.734375 2.386719 24.757812 1.378906 C 24.761719 1.335938 24.78125 1.292969 24.816406 1.175781 L 25.019531 1.6875 C 25.011719 1.945312 24.988281 2.203125 25.007812 2.460938 C 25.035156 2.90625 25.109375 3.351562 25.128906 3.796875 C 25.167969 4.628906 25.183594 5.460938 25.199219 6.292969 C 25.226562 7.632812 25.253906 8.96875 25.269531 10.308594 C 25.296875 12.449219 25.3125 14.589844 25.339844 16.730469 C 25.34375 17.066406 25.378906 17.398438 25.398438 17.734375 Z M 25.398438 17.734375 "/>
<path style=" stroke:none;fill-rule:evenodd;fill:rgb(66.27451%,66.666667%,53.333333%);fill-opacity:1;" d="M 24.453125 41.828125 C 24.554688 41.316406 24.691406 40.804688 24.753906 40.289062 C 24.882812 39.253906 24.96875 38.214844 25.070312 37.175781 L 25.097656 37.171875 L 25.125 37.175781 C 25.148438 38.472656 25.332031 39.765625 25.667969 41.019531 C 25.597656 41.109375 25.503906 41.191406 25.464844 41.292969 C 25.179688 42.09375 24.914062 42.902344 24.628906 43.703125 C 24.589844 43.8125 24.480469 43.894531 24.40625 43.992188 L 24.113281 42.988281 Z M 24.453125 41.828125 "/>
<path style=" stroke:none;fill-rule:evenodd;fill:rgb(71.372549%,70.980392%,59.607843%);fill-opacity:1;" d="M 24.40625 43.992188 C 24.480469 43.898438 24.589844 43.8125 24.628906 43.703125 C 24.914062 42.902344 25.183594 42.09375 25.464844 41.292969 C 25.503906 41.191406 25.597656 41.109375 25.667969 41.019531 L 26.160156 42.09375 C 26.0625 42.234375 25.929688 42.355469 25.875 42.511719 L 24.933594 45.265625 C 24.898438 45.378906 24.765625 45.457031 24.675781 45.550781 Z M 24.40625 43.992188 "/>
<path style=" stroke:none;fill-rule:evenodd;fill:rgb(76.078431%,75.686275%,65.490196%);fill-opacity:1;" d="M 24.675781 45.546875 C 24.765625 45.457031 24.898438 45.378906 24.933594 45.265625 L 25.875 42.507812 C 25.929688 42.355469 26.0625 42.234375 26.160156 42.09375 L 26.632812 42.5 C 26.402344 42.726562 26.277344 42.988281 26.351562 43.320312 L 26.210938 43.789062 C 26.144531 43.871094 26.046875 43.941406 26.015625 44.035156 C 25.6875 44.972656 25.375 45.917969 25.046875 46.855469 C 25.003906 46.976562 24.886719 47.066406 24.804688 47.171875 C 24.761719 46.632812 24.71875 46.089844 24.675781 45.546875 Z M 24.675781 45.546875 "/>
<path style=" stroke:none;fill-rule:evenodd;fill:rgb(80.784314%,80.392157%,71.764706%);fill-opacity:1;" d="M 24.804688 47.171875 C 24.886719 47.066406 25.003906 46.976562 25.046875 46.855469 C 25.375 45.917969 25.6875 44.972656 26.015625 44.035156 C 26.046875 43.941406 26.144531 43.871094 26.210938 43.792969 L 26.011719 45.957031 C 25.957031 46.019531 25.878906 46.070312 25.855469 46.144531 C 25.628906 46.773438 25.417969 47.410156 25.195312 48.039062 C 25.148438 48.167969 25.058594 48.285156 24.988281 48.40625 C 24.925781 48.324219 24.816406 48.246094 24.8125 48.164062 C 24.789062 47.835938 24.804688 47.503906 24.804688 47.171875 Z M 24.804688 47.171875 "/>
<path style=" stroke:none;fill-rule:evenodd;fill:rgb(85.882353%,85.490196%,78.039216%);fill-opacity:1;" d="M 24.988281 48.40625 C 25.058594 48.285156 25.148438 48.167969 25.191406 48.039062 C 25.417969 47.410156 25.628906 46.773438 25.855469 46.144531 C 25.878906 46.070312 25.957031 46.019531 26.011719 45.957031 L 26.015625 47.378906 L 25.539062 48.597656 Z M 24.988281 48.40625 "/>
<path style=" stroke:none;fill-rule:evenodd;fill:rgb(92.156863%,91.372549%,86.27451%);fill-opacity:1;" d="M 25.539062 48.601562 L 26.015625 47.378906 L 26.113281 48.824219 Z M 25.539062 48.601562 "/>
<path style=" stroke:none;fill-rule:evenodd;fill:rgb(80.784314%,80.392157%,71.764706%);fill-opacity:1;" d="M 26.351562 43.320312 C 26.277344 42.988281 26.402344 42.726562 26.632812 42.5 L 26.765625 42.589844 Z M 26.351562 43.320312 "/>
<path style=" stroke:none;fill-rule:evenodd;fill:rgb(30.980392%,66.666667%,25.490196%);fill-opacity:1;" d="M 25.125 37.175781 L 25.097656 37.171875 L 25.070312 37.175781 L 25.132812 36.957031 Z M 25.125 37.175781 "/>
</g>
</svg>
