<?xml version="1.0" encoding="UTF-8"?>
<svg xmlns="http://www.w3.org/2000/svg" xmlns:xlink="http://www.w3.org/1999/xlink" width="50px" height="px" viewBox="0 0 50 50" version="1.1">
<defs>
<linearGradient id="linear0" gradientUnits="userSpaceOnUse" x1="25.068" y1="1.46" x2="43.183" y2="66.675" gradientTransform="matrix(0.714286,0,0,0.714286,0,0)">
<stop offset="0.285" style="stop-color:rgb(0%,80.392157%,84.313725%);stop-opacity:1;"/>
<stop offset="0.941" style="stop-color:rgb(12.54902%,52.54902%,84.313725%);stop-opacity:1;"/>
</linearGradient>
<linearGradient id="linear1" gradientUnits="userSpaceOnUse" x1="30.72" y1="9.734" x2="61.365" y2="54.671" gradientTransform="matrix(0.714286,0,0,0.714286,0,0)">
<stop offset="0.14" style="stop-color:rgb(100%,94.117647%,27.058824%);stop-opacity:1;"/>
<stop offset="0.366" style="stop-color:rgb(0%,80.392157%,84.313725%);stop-opacity:1;"/>
</linearGradient>
<linearGradient id="linear2" gradientUnits="userSpaceOnUse" x1="61.082" y1="15.29" x2="65.106" y2="29.544" gradientTransform="matrix(0.714286,0,0,0.714286,0,0)">
<stop offset="0.285" style="stop-color:rgb(0%,80.392157%,84.313725%);stop-opacity:1;"/>
<stop offset="0.941" style="stop-color:rgb(12.54902%,52.54902%,84.313725%);stop-opacity:1;"/>
</linearGradient>
</defs>
<g id="surface1">
<path style=" stroke:none;fill-rule:nonzero;fill:url(#linear0);" d="M 6.714844 45.214844 L 0 5.214844 L 12.5 0.0703125 L 20.429688 4.785156 L 27.714844 0.855469 L 42.929688 6.714844 L 34.355469 50 Z M 6.714844 45.214844 "/>
<path style=" stroke:none;fill-rule:nonzero;fill:url(#linear1);" d="M 50 16.929688 L 43.570312 1 L 31.855469 0 L 13.785156 17.355469 L 18.644531 39.714844 L 27.714844 46.144531 L 50 32.855469 L 44.5 22.644531 Z M 50 16.929688 "/>
<path style=" stroke:none;fill-rule:nonzero;fill:url(#linear2);" d="M 40 14.570312 L 44.5 22.644531 L 50 16.929688 L 46 7 Z M 40 14.570312 "/>
<path style=" stroke:none;fill-rule:nonzero;fill:rgb(0%,0%,0%);fill-opacity:1;" d="M 9.570312 9.570312 L 40.429688 9.570312 L 40.429688 40.429688 L 9.570312 40.429688 Z M 9.570312 9.570312 "/>
<path style=" stroke:none;fill-rule:nonzero;fill:rgb(100%,100%,100%);fill-opacity:1;" d="M 12.5 34.644531 L 24.070312 34.644531 L 24.070312 36.570312 L 12.5 36.570312 Z M 27.644531 24.5 L 29.285156 22.5 C 30.429688 23.429688 31.644531 24.070312 33.070312 24.070312 C 34.214844 24.070312 34.855469 23.644531 34.855469 22.855469 L 34.855469 22.785156 C 34.855469 22.070312 34.429688 21.714844 32.285156 21.144531 C 29.714844 20.5 28.144531 19.785156 28.144531 17.214844 L 28.144531 17.144531 C 28.144531 14.785156 30 13.285156 32.570312 13.285156 C 34.429688 13.285156 36 13.855469 37.285156 14.929688 L 35.855469 17.070312 C 34.714844 16.285156 33.644531 15.785156 32.570312 15.785156 C 31.5 15.785156 30.929688 16.285156 30.929688 16.929688 L 30.929688 17 C 30.929688 17.855469 31.5 18.144531 33.644531 18.714844 C 36.214844 19.429688 37.644531 20.355469 37.644531 22.570312 L 37.644531 22.644531 C 37.644531 25.214844 35.714844 26.644531 33 26.644531 C 31.070312 26.570312 29.144531 25.855469 27.644531 24.5 M 25.144531 13.570312 L 23.214844 21 L 21.070312 13.570312 L 18.929688 13.570312 L 16.714844 21 L 14.785156 13.570312 L 11.855469 13.570312 L 15.5 26.355469 L 17.855469 26.355469 L 20 18.929688 L 22.070312 26.355469 L 24.5 26.355469 L 28.144531 13.570312 Z M 25.144531 13.570312 "/>
</g>
</svg>
