<?xml version="1.0" encoding="UTF-8"?>
<svg xmlns="http://www.w3.org/2000/svg" xmlns:xlink="http://www.w3.org/1999/xlink" width="50px" height="px" viewBox="0 0 50 50" version="1.1">
<g id="surface1">
<path style=" stroke:none;fill-rule:nonzero;fill:rgb(81.176471%,84.705882%,86.27451%);fill-opacity:1;" d="M 24.046875 11.746094 C 22.34375 9.195312 21.976562 5.785156 21.898438 4.386719 C 17.574219 5.320312 13.285156 6.996094 13.53125 8.230469 C 13.5625 8.386719 13.757812 8.570312 14.082031 8.753906 L 13.574219 9.664062 C 12.953125 9.316406 12.605469 8.914062 12.511719 8.433594 C 12.230469 7.039062 13.8125 5.773438 17.347656 4.570312 C 18.96875 4.03125 20.621094 3.585938 22.292969 3.238281 L 22.917969 3.113281 L 22.917969 3.75 C 22.917969 3.792969 22.945312 8.214844 24.914062 11.167969 Z M 25.78125 44.792969 L 25.519531 44.792969 C 16.988281 44.792969 7.492188 42.113281 6.367188 37.625 C 5.683594 34.886719 7.921875 31.859375 12.839844 28.875 L 13.382812 29.765625 C 8.957031 32.449219 6.824219 35.152344 7.378906 37.375 C 8.355469 41.269531 17.355469 43.695312 25.246094 43.75 C 26.1875 42.347656 31.230469 34.101562 28.351562 23.046875 L 29.359375 22.785156 C 32.636719 35.382812 26.007812 44.492188 25.941406 44.582031 Z M 25.78125 44.792969 "/>
<path style=" stroke:none;fill-rule:nonzero;fill:rgb(81.176471%,84.705882%,86.27451%);fill-opacity:1;" d="M 10.34375 40.945312 C 9.785156 40.945312 9.503906 40.882812 9.460938 40.871094 C 9.277344 40.828125 9.128906 40.6875 9.078125 40.503906 C 9.03125 40.324219 9.082031 40.128906 9.214844 39.996094 C 9.292969 39.921875 16.714844 32.488281 17.714844 26.476562 L 18.742188 26.648438 C 17.882812 31.820312 12.789062 37.714844 10.769531 39.882812 C 12.789062 39.769531 17.886719 38.824219 27.679688 33.34375 C 20.039062 32.503906 18.828125 26.386719 18.816406 26.324219 L 19.839844 26.132812 C 19.890625 26.390625 21.117188 32.394531 29.46875 32.394531 L 29.476562 32.394531 C 29.714844 32.394531 29.921875 32.554688 29.980469 32.78125 C 30.042969 33.007812 29.945312 33.25 29.738281 33.367188 C 18.035156 40.148438 12.363281 40.941406 10.34375 40.945312 Z M 10.34375 40.945312 "/>
<path style=" stroke:none;fill-rule:nonzero;fill:rgb(81.176471%,84.705882%,86.27451%);fill-opacity:1;" d="M 15.128906 43.4375 C 14.902344 43.4375 14.699219 43.292969 14.628906 43.078125 C 14.5625 42.859375 14.640625 42.625 14.824219 42.492188 C 14.863281 42.464844 16.714844 41.097656 18.6875 38.089844 C 17.898438 37.742188 17.136719 37.347656 16.398438 36.902344 C 15.472656 36.347656 14.773438 35.753906 14.253906 35.144531 C 11.574219 35.847656 9.105469 36.128906 6.933594 35.945312 L 7.023438 34.90625 C 8.976562 35.070312 11.199219 34.839844 13.605469 34.238281 C 11.96875 31.441406 13.472656 28.660156 13.492188 28.621094 L 14.402344 29.128906 C 14.335938 29.257812 13.085938 31.597656 14.664062 33.957031 C 16.957031 33.296875 19.402344 32.324219 21.933594 31.058594 C 22.574219 28.925781 23.003906 26.738281 23.210938 24.519531 C 23.226562 24.351562 23.324219 24.203125 23.46875 24.121094 C 23.613281 24.035156 23.792969 24.027344 23.945312 24.097656 C 23.976562 24.113281 27.34375 25.652344 29.78125 26.652344 C 29.960938 26.726562 30.082031 26.890625 30.101562 27.082031 C 30.121094 27.273438 30.035156 27.457031 29.878906 27.566406 C 27.613281 29.117188 25.257812 30.523438 22.816406 31.777344 C 22.183594 33.808594 21.324219 35.761719 20.253906 37.601562 C 24.113281 39.042969 27.457031 39.0625 27.5 39.0625 C 27.738281 39.0625 27.949219 39.222656 28.007812 39.453125 C 28.066406 39.683594 27.960938 39.925781 27.753906 40.039062 C 23.023438 42.667969 15.496094 43.40625 15.179688 43.4375 Z M 19.695312 38.507812 C 18.613281 40.1875 17.550781 41.394531 16.753906 42.183594 C 18.835938 41.878906 22.484375 41.207031 25.511719 39.957031 C 23.523438 39.710938 21.570312 39.222656 19.695312 38.507812 Z M 15.382812 34.824219 C 15.792969 35.230469 16.300781 35.632812 16.933594 36.011719 C 17.699219 36.472656 18.480469 36.863281 19.246094 37.195312 C 20.140625 35.683594 20.890625 34.089844 21.476562 32.433594 C 19.371094 33.4375 17.328125 34.238281 15.382812 34.824219 Z M 24.167969 25.34375 C 23.976562 27.046875 23.65625 28.734375 23.21875 30.394531 C 25.023438 29.425781 26.785156 28.375 28.492188 27.242188 C 27.042969 26.625 25.601562 25.992188 24.167969 25.34375 Z M 18.671875 11.042969 C 18.546875 11.042969 18.425781 10.996094 18.332031 10.917969 C 16.65625 9.480469 14.679688 6.558594 14.597656 6.4375 C 14.464844 6.238281 14.484375 5.972656 14.644531 5.796875 C 14.808594 5.617188 15.070312 5.574219 15.277344 5.6875 C 15.289062 5.691406 16.257812 6.089844 22.796875 7.179688 C 22.984375 7.210938 23.140625 7.339844 23.203125 7.519531 C 23.269531 7.699219 23.226562 7.902344 23.097656 8.042969 C 21.269531 10.074219 18.953125 10.972656 18.855469 11.007812 C 18.796875 11.03125 18.734375 11.042969 18.671875 11.042969 Z M 16.300781 7.027344 C 16.957031 7.910156 17.902344 9.105469 18.769531 9.910156 C 19.808594 9.429688 20.773438 8.800781 21.628906 8.039062 C 18.9375 7.578125 17.296875 7.253906 16.300781 7.027344 Z M 16.300781 7.027344 "/>
<path style=" stroke:none;fill-rule:nonzero;fill:rgb(71.764706%,10.980392%,10.980392%);fill-opacity:1;" d="M 22.753906 25.417969 C 22.605469 25.417969 22.464844 25.355469 22.367188 25.246094 C 22.269531 25.132812 22.21875 24.988281 22.234375 24.839844 C 22.539062 21.976562 18.144531 20.828125 18.101562 20.820312 C 17.917969 20.773438 17.777344 20.632812 17.726562 20.453125 C 17.679688 20.269531 17.730469 20.078125 17.863281 19.945312 C 18.078125 19.730469 23.214844 14.636719 29.660156 11.835938 C 29.839844 11.761719 30.046875 11.789062 30.195312 11.910156 C 30.347656 12.03125 30.417969 12.230469 30.378906 12.417969 C 29.144531 18.402344 23.386719 24.964844 23.144531 25.242188 C 23.042969 25.351562 22.902344 25.414062 22.753906 25.417969 Z M 19.222656 20.089844 C 20.457031 20.550781 22.617188 21.625 23.164062 23.585938 C 24.675781 21.699219 27.894531 17.363281 29.097656 13.238281 C 24.527344 15.433594 20.679688 18.75 19.222656 20.089844 Z M 19.222656 20.089844 "/>
<path style=" stroke:none;fill-rule:nonzero;fill:rgb(71.764706%,10.980392%,10.980392%);fill-opacity:1;" d="M 13.625 29.542969 L 13.128906 28.625 C 15.089844 27.566406 17.335938 25.621094 19.179688 23.359375 C 17.613281 24.433594 16.714844 25.167969 16.6875 25.191406 L 16.019531 24.390625 C 16.0625 24.355469 17.859375 22.882812 20.84375 21.035156 C 21.664062 19.714844 22.292969 18.359375 22.617188 17.058594 C 22.675781 16.839844 22.722656 16.625 22.761719 16.417969 C 20.753906 15.703125 18.90625 15.28125 17.632812 15.097656 C 17.441406 15.070312 17.28125 14.9375 17.214844 14.757812 C 17.152344 14.574219 17.191406 14.371094 17.324219 14.226562 C 17.414062 14.132812 19.527344 11.867188 22.171875 10.621094 C 22.378906 10.523438 22.625 10.570312 22.777344 10.738281 C 22.847656 10.816406 24.277344 12.421875 23.914062 15.746094 C 25.117188 16.214844 26.355469 16.785156 27.550781 17.460938 C 30.425781 16.167969 33.6875 15.007812 37.164062 14.304688 C 37.351562 14.269531 37.542969 14.335938 37.664062 14.480469 C 37.789062 14.625 37.820312 14.828125 37.753906 15.003906 C 36.398438 18.476562 32.765625 22.183594 32.613281 22.339844 C 32.507812 22.445312 32.363281 22.5 32.214844 22.492188 C 32.066406 22.484375 31.925781 22.414062 31.832031 22.296875 C 30.667969 20.832031 29.140625 19.617188 27.496094 18.628906 C 25.464844 19.570312 23.484375 20.628906 21.574219 21.804688 C 19.472656 25.085938 16.296875 28.101562 13.625 29.542969 Z M 28.636719 18.121094 C 29.980469 18.988281 31.230469 20.007812 32.265625 21.191406 C 33.128906 20.257812 35.199219 17.890625 36.371094 15.542969 C 33.613281 16.179688 31 17.097656 28.636719 18.121094 Z M 23.75 16.792969 C 23.714844 16.964844 23.675781 17.136719 23.632812 17.316406 C 23.414062 18.1875 23.066406 19.085938 22.617188 19.980469 C 23.851562 19.277344 25.109375 18.617188 26.386719 18.003906 C 25.53125 17.554688 24.648438 17.148438 23.75 16.792969 Z M 18.800781 14.242188 C 19.957031 14.46875 21.382812 14.839844 22.90625 15.371094 C 23.0625 13.453125 22.542969 12.277344 22.230469 11.757812 C 20.796875 12.503906 19.542969 13.554688 18.800781 14.242188 Z M 18.800781 14.242188 "/>
<path style=" stroke:none;fill-rule:nonzero;fill:rgb(71.764706%,10.980392%,10.980392%);fill-opacity:1;" d="M 18.800781 19.269531 C 18.800781 23.832031 15 27.457031 12.261719 30.105469 C 11.800781 30.550781 10.25 30.625 10.25 30.625 C 10.636719 30.230469 11.074219 29.8125 11.542969 29.363281 C 14.144531 26.84375 17.761719 23.394531 17.761719 19.269531 C 17.761719 14.386719 15.792969 12.457031 14.238281 10.917969 C 13.550781 10.21875 12.96875 9.550781 12.613281 8.738281 L 12.9375 8.605469 C 13.292969 8.761719 13.699219 8.9375 14.011719 9.074219 C 14.261719 9.4375 14.59375 9.792969 14.980469 10.175781 C 16.574219 11.769531 18.800781 13.957031 18.800781 19.269531 Z M 18.800781 19.269531 "/>
<path style=" stroke:none;fill-rule:nonzero;fill:rgb(71.764706%,10.980392%,10.980392%);fill-opacity:1;" d="M 44.722656 20.617188 C 44.722656 20.617188 44.09375 20.707031 43.917969 20.730469 C 34.792969 21.738281 25.375 24.363281 19.988281 26.519531 C 18.042969 27.300781 16.019531 28.25 14.175781 29.3125 C 14.167969 29.324219 14.15625 29.324219 14.136719 29.332031 C 13.050781 29.957031 10.417969 31.25 8.28125 32.386719 C 11.40625 29.0625 17.261719 26.5 19.59375 25.5625 C 24.875 23.449219 33.949219 20.894531 42.875 19.800781 C 41.824219 18.574219 39.25 15.96875 34.1875 14.03125 C 31.230469 12.886719 26.730469 12.238281 22.761719 11.667969 C 16.449219 10.761719 12.855469 10.15625 12.511719 8.4375 C 12.4375 8.09375 12.488281 7.75 12.644531 7.417969 C 12.988281 7.980469 13.480469 8.375 13.800781 8.605469 C 13.957031 8.707031 14.074219 8.769531 14.113281 8.792969 L 14.125 8.800781 C 15.605469 9.582031 19.59375 10.15625 22.917969 10.636719 C 26.9375 11.21875 31.488281 11.875 34.5625 13.050781 C 41.71875 15.8125 44.1875 19.761719 44.292969 19.925781 C 44.386719 20.082031 44.722656 20.617188 44.722656 20.617188 Z M 44.722656 20.617188 "/>
</g>
</svg>
