<?xml version="1.0" encoding="UTF-8"?>
<svg xmlns="http://www.w3.org/2000/svg" xmlns:xlink="http://www.w3.org/1999/xlink" width="50px" height="px" viewBox="0 0 50 67" version="1.1">
<g id="surface1">
<path style=" stroke:none;fill-rule:nonzero;fill:rgb(32.54902%,50.980392%,63.137255%);fill-opacity:1;" d="M 16.121094 51.792969 C 16.121094 51.792969 13.542969 53.28125 17.957031 53.78125 C 23.300781 54.386719 26.03125 54.300781 31.921875 53.195312 C 31.921875 53.195312 33.46875 54.160156 35.632812 54.992188 C 22.429688 60.601562 5.75 54.667969 16.121094 51.792969 M 14.507812 44.472656 C 14.507812 44.472656 11.617188 46.59375 16.03125 47.046875 C 21.742188 47.628906 26.25 47.679688 34.050781 46.1875 C 34.050781 46.1875 35.132812 47.273438 36.828125 47.867188 C 20.863281 52.496094 3.082031 48.230469 14.507812 44.472656 "/>
<path style=" stroke:none;fill-rule:nonzero;fill:rgb(90.588235%,43.529412%,0%);fill-opacity:1;" d="M 28.109375 32.050781 C 31.363281 35.765625 27.253906 39.105469 27.253906 39.105469 C 27.253906 39.105469 35.515625 34.878906 31.722656 29.582031 C 28.179688 24.644531 25.460938 22.191406 40.171875 13.730469 C 40.171875 13.730469 17.082031 19.449219 28.109375 32.050781 "/>
<path style=" stroke:none;fill-rule:nonzero;fill:rgb(32.54902%,50.980392%,63.137255%);fill-opacity:1;" d="M 45.570312 57.210938 C 45.570312 57.210938 47.480469 58.769531 43.472656 59.972656 C 35.851562 62.261719 11.75 62.953125 5.054688 60.066406 C 2.648438 59.027344 7.164062 57.585938 8.582031 57.285156 C 10.0625 56.964844 10.910156 57.023438 10.910156 57.023438 C 8.234375 55.15625 -6.390625 60.695312 3.480469 62.28125 C 30.402344 66.613281 52.554688 60.332031 45.570312 57.210938 M 17.359375 36.886719 C 17.359375 36.886719 5.101562 39.773438 13.019531 40.820312 C 16.363281 41.265625 23.027344 41.164062 29.234375 40.648438 C 34.308594 40.222656 39.402344 39.320312 39.402344 39.320312 C 39.402344 39.320312 37.613281 40.082031 36.316406 40.957031 C 23.871094 44.203125 -0.175781 42.695312 6.746094 39.371094 C 12.601562 36.566406 17.359375 36.886719 17.359375 36.886719 M 39.351562 49.074219 C 52.003906 42.554688 46.152344 36.285156 42.070312 37.132812 C 41.070312 37.335938 40.621094 37.515625 40.621094 37.515625 C 40.621094 37.515625 40.996094 36.941406 41.703125 36.691406 C 49.78125 33.875 55.996094 44.996094 39.097656 49.402344 C 39.097656 49.402344 39.292969 49.226562 39.351562 49.074219 "/>
<path style=" stroke:none;fill-rule:nonzero;fill:rgb(90.588235%,43.529412%,0%);fill-opacity:1;" d="M 31.722656 0.0703125 C 31.722656 0.0703125 38.730469 7.023438 25.074219 17.710938 C 14.125 26.289062 22.578125 31.175781 25.070312 36.761719 C 18.679688 31.042969 13.988281 26.011719 17.136719 21.324219 C 21.753906 14.449219 34.550781 11.113281 31.722656 0.0703125 "/>
<path style=" stroke:none;fill-rule:nonzero;fill:rgb(32.54902%,50.980392%,63.137255%);fill-opacity:1;" d="M 18.605469 66.742188 C 30.75 67.511719 49.402344 66.3125 49.84375 60.613281 C 49.84375 60.613281 48.996094 62.773438 39.804688 64.492188 C 29.4375 66.425781 16.652344 66.199219 9.070312 64.960938 C 9.070312 64.960938 10.621094 66.234375 18.605469 66.742188 "/>
</g>
</svg>
