<?xml version="1.0" encoding="UTF-8"?>
<svg xmlns="http://www.w3.org/2000/svg" xmlns:xlink="http://www.w3.org/1999/xlink" width="50px" height="px" viewBox="0 0 50 100" version="1.1">
<defs>
<linearGradient id="linear0" gradientUnits="userSpaceOnUse" x1="0.16363" y1="0.63905" x2="1.5999" y2="0.20213" gradientTransform="matrix(14.296875,0,0,13.292969,35.3125,0.152344)">
<stop offset="0" style="stop-color:rgb(96.470588%,60%,13.72549%);stop-opacity:1;"/>
<stop offset="0.312" style="stop-color:rgb(96.862745%,60.392157%,13.72549%);stop-opacity:1;"/>
<stop offset="0.838" style="stop-color:rgb(91.372549%,47.058824%,14.901961%);stop-opacity:1;"/>
</linearGradient>
<linearGradient id="linear1" gradientUnits="userSpaceOnUse" x1="-2.17651" y1="3.94672" x2="0.74743" y2="0.13846" gradientTransform="matrix(14.535156,0,0,23.929688,23.636719,7.878906)">
<stop offset="0.323" style="stop-color:rgb(61.960784%,12.54902%,39.215686%);stop-opacity:1;"/>
<stop offset="0.63" style="stop-color:rgb(78.823529%,12.54902%,21.568627%);stop-opacity:1;"/>
<stop offset="0.751" style="stop-color:rgb(80.392157%,13.72549%,20.784314%);stop-opacity:1;"/>
<stop offset="1" style="stop-color:rgb(91.372549%,47.058824%,14.901961%);stop-opacity:1;"/>
</linearGradient>
<linearGradient id="linear2" gradientUnits="userSpaceOnUse" x1="-0.80044" y1="1.70418" x2="1.4624" y2="-0.44299" gradientTransform="matrix(18.777344,0,0,42.429688,8.578125,24.476562)">
<stop offset="0.323" style="stop-color:rgb(61.960784%,12.54902%,39.215686%);stop-opacity:1;"/>
<stop offset="0.63" style="stop-color:rgb(78.823529%,12.54902%,21.568627%);stop-opacity:1;"/>
<stop offset="0.751" style="stop-color:rgb(80.392157%,13.72549%,20.784314%);stop-opacity:1;"/>
<stop offset="1" style="stop-color:rgb(91.372549%,47.058824%,14.901961%);stop-opacity:1;"/>
</linearGradient>
<linearGradient id="linear3" gradientUnits="userSpaceOnUse" x1="-0.18316" y1="0.7736" x2="1.65002" y2="-0.41416" gradientTransform="matrix(12.179687,0,0,40.3125,0.117187,59.53125)">
<stop offset="0" style="stop-color:rgb(15.686275%,14.901961%,38.431373%);stop-opacity:1;"/>
<stop offset="0.095" style="stop-color:rgb(40%,18.039216%,55.294118%);stop-opacity:1;"/>
<stop offset="0.788" style="stop-color:rgb(62.352941%,12.54902%,39.215686%);stop-opacity:1;"/>
<stop offset="0.949" style="stop-color:rgb(80.392157%,12.54902%,19.607843%);stop-opacity:1;"/>
</linearGradient>
<linearGradient id="linear4" gradientUnits="userSpaceOnUse" x1="-1.29783" y1="4.63715" x2="0.66456" y2="0.1719" gradientTransform="matrix(21.652344,0,0,20.410156,27.976562,12.003906)">
<stop offset="0.323" style="stop-color:rgb(61.960784%,12.54902%,39.215686%);stop-opacity:1;"/>
<stop offset="0.63" style="stop-color:rgb(78.823529%,12.54902%,21.568627%);stop-opacity:1;"/>
<stop offset="0.751" style="stop-color:rgb(80.392157%,13.72549%,20.784314%);stop-opacity:1;"/>
<stop offset="1" style="stop-color:rgb(91.372549%,47.058824%,14.901961%);stop-opacity:1;"/>
</linearGradient>
<linearGradient id="linear5" gradientUnits="userSpaceOnUse" x1="-0.3488" y1="1.87706" x2="1.10599" y2="-0.511" gradientTransform="matrix(29.222656,0,0,38.214844,13.152344,29.570312)">
<stop offset="0.323" style="stop-color:rgb(61.960784%,12.54902%,39.215686%);stop-opacity:1;"/>
<stop offset="0.63" style="stop-color:rgb(78.823529%,12.54902%,21.568627%);stop-opacity:1;"/>
<stop offset="0.751" style="stop-color:rgb(80.392157%,13.72549%,20.784314%);stop-opacity:1;"/>
<stop offset="1" style="stop-color:rgb(91.372549%,47.058824%,14.901961%);stop-opacity:1;"/>
</linearGradient>
<linearGradient id="linear6" gradientUnits="userSpaceOnUse" x1="-0.20619" y1="1.92564" x2="1.2526" y2="-1.36906" gradientTransform="matrix(17.355469,0,0,16.480469,9.863281,63.832031)">
<stop offset="0" style="stop-color:rgb(15.686275%,14.901961%,38.431373%);stop-opacity:1;"/>
<stop offset="0.095" style="stop-color:rgb(40%,18.039216%,55.294118%);stop-opacity:1;"/>
<stop offset="0.788" style="stop-color:rgb(62.352941%,12.54902%,39.215686%);stop-opacity:1;"/>
<stop offset="0.949" style="stop-color:rgb(80.392157%,12.54902%,19.607843%);stop-opacity:1;"/>
</linearGradient>
</defs>
<g id="surface1">
<path style=" stroke:none;fill-rule:nonzero;fill:url(#linear0);" d="M 42.585938 0.5625 C 41.03125 1.476562 38.425781 4.105469 35.3125 7.898438 L 35.3125 8.132812 L 38.035156 13.171875 L 38.171875 13.269531 C 40.175781 10.410156 42.199219 7.820312 44.261719 5.621094 C 44.417969 5.449219 44.492188 5.371094 44.492188 5.371094 C 44.417969 5.449219 44.339844 5.542969 44.261719 5.621094 C 43.597656 6.363281 41.574219 8.695312 38.539062 13.367188 L 38.890625 13.445312 C 38.890625 13.445312 45.992188 12.742188 49.417969 12.160156 L 49.609375 11.984375 C 50.699219 5.875 48.539062 3.074219 48.539062 3.074219 C 48.539062 3.074219 45.816406 -1.324219 42.585938 0.5625 Z M 42.585938 0.5625 "/>
<path style=" stroke:none;fill-rule:nonzero;fill:url(#linear1);" d="M 29.765625 27.179688 C 30.640625 25.5625 31.515625 23.96875 32.394531 22.433594 C 33.308594 20.835938 34.242188 19.28125 35.195312 17.78125 C 35.253906 17.703125 35.3125 17.605469 35.351562 17.507812 C 36.257812 16.074219 37.199219 14.660156 38.171875 13.269531 L 35.3125 7.878906 C 35.097656 8.132812 34.882812 8.40625 34.667969 8.675781 C 33.851562 9.707031 32.996094 10.796875 32.121094 11.964844 C 31.085938 13.347656 30.074219 14.75 29.085938 16.167969 C 28.101562 17.570312 27.144531 18.992188 26.207031 20.429688 C 25.390625 21.691406 24.550781 22.976562 23.734375 24.320312 C 23.695312 24.378906 23.675781 24.417969 23.636719 24.476562 L 23.636719 24.6875 L 27.199219 31.75 L 27.355469 31.808594 C 28.152344 30.253906 28.949219 28.695312 29.765625 27.179688 Z M 29.765625 27.179688 "/>
<path style=" stroke:none;fill-rule:nonzero;fill:url(#linear2);" d="M 14.261719 61.75 C 14.902344 60.078125 15.582031 58.386719 16.265625 56.671875 C 16.925781 55.039062 17.585938 53.386719 18.289062 51.730469 C 18.96875 50.078125 19.6875 48.425781 20.410156 46.75 C 21.148438 45.058594 21.886719 43.367188 22.644531 41.691406 C 23.40625 40.039062 24.164062 38.386719 24.941406 36.75 C 25.21875 36.15625 25.503906 35.566406 25.796875 34.980469 C 26.285156 33.96875 26.789062 32.957031 27.277344 31.964844 C 27.296875 31.90625 27.335938 31.867188 27.355469 31.808594 L 23.636719 24.476562 L 23.464844 24.765625 C 22.605469 26.1875 21.730469 27.625 20.894531 29.105469 C 20.035156 30.609375 19.199219 32.128906 18.386719 33.65625 C 17.683594 34.960938 17.023438 36.265625 16.363281 37.585938 C 16.226562 37.859375 16.109375 38.113281 15.972656 38.386719 C 15.199219 39.972656 14.464844 41.582031 13.773438 43.210938 C 13.035156 44.960938 12.375 46.632812 11.789062 48.230469 C 11.402344 49.28125 11.070312 50.273438 10.738281 51.246094 C 10.484375 52.066406 10.238281 52.890625 10 53.714844 C 9.445312 55.632812 8.96875 57.574219 8.578125 59.53125 L 8.636719 59.765625 L 12.199219 66.847656 L 12.316406 66.90625 C 12.800781 65.582031 13.308594 64.261719 13.832031 62.898438 C 13.96875 62.507812 14.125 62.140625 14.261719 61.75 Z M 14.261719 61.75 "/>
<path style=" stroke:none;fill-rule:nonzero;fill:url(#linear3);" d="M 8.539062 59.785156 C 8.074219 62.140625 7.742188 64.492188 7.566406 66.828125 C 7.566406 66.90625 7.546875 66.984375 7.546875 67.082031 C 6.382812 65.214844 3.269531 63.40625 3.269531 63.40625 C 5.507812 66.632812 7.199219 69.84375 7.453125 72.996094 C 6.265625 73.25 4.628906 72.878906 2.722656 72.199219 C 4.6875 74.007812 6.167969 74.515625 6.75 74.648438 C 4.941406 74.765625 3.054688 76.011719 1.148438 77.433594 C 3.929688 76.304688 6.167969 75.855469 7.78125 76.207031 C 5.234375 83.425781 2.683594 91.402344 0.117188 99.84375 C 0.894531 99.609375 1.363281 99.085938 1.632812 98.367188 C 2.082031 96.828125 5.117188 86.789062 9.84375 73.578125 C 9.980469 73.210938 10.117188 72.820312 10.253906 72.453125 C 10.292969 72.355469 10.332031 72.238281 10.371094 72.140625 C 10.875 70.757812 11.382812 69.339844 11.925781 67.898438 C 12.042969 67.566406 12.179688 67.238281 12.296875 66.90625 L 12.296875 66.886719 L 8.578125 59.53125 C 8.578125 59.628906 8.558594 59.707031 8.539062 59.785156 Z M 8.539062 59.785156 "/>
<path style=" stroke:none;fill-rule:nonzero;fill:url(#linear4);" d="M 38.539062 13.386719 C 37.703125 14.667969 36.789062 16.128906 35.796875 17.78125 C 35.738281 17.859375 35.699219 17.957031 35.640625 18.035156 C 34.714844 19.597656 33.8125 21.171875 32.9375 22.761719 C 32.058594 24.351562 31.203125 25.953125 30.371094 27.566406 C 29.546875 29.144531 28.75 30.734375 27.976562 32.335938 L 28.152344 32.414062 L 37.199219 31.441406 L 37.414062 31.285156 C 40.15625 30.019531 41.382812 28.871094 42.566406 27.21875 C 42.894531 26.75 43.210938 26.277344 43.519531 25.796875 C 44.492188 24.28125 45.449219 22.625 46.285156 20.972656 C 47.101562 19.378906 47.820312 17.78125 48.386719 16.363281 C 48.734375 15.449219 49.027344 14.609375 49.222656 13.871094 C 49.398438 13.210938 49.53125 12.585938 49.628906 12.003906 C 45.972656 12.644531 41.476562 13.25 38.539062 13.386719 Z M 38.539062 13.386719 "/>
<path style=" stroke:none;fill-rule:nonzero;fill:url(#linear5);" d="M 27.625 33.09375 C 27.316406 33.753906 26.984375 34.4375 26.652344 35.117188 C 26.304688 35.855469 25.933594 36.632812 25.582031 37.414062 C 25.410156 37.800781 25.214844 38.210938 25.039062 38.597656 C 24.476562 39.804688 23.929688 41.050781 23.347656 42.335938 C 22.621094 43.96875 21.90625 45.609375 21.207031 47.257812 C 20.507812 48.890625 19.804688 50.5625 19.105469 52.316406 C 18.40625 54.015625 17.726562 55.71875 17.0625 57.433594 C 16.441406 59.007812 15.816406 60.601562 15.195312 62.277344 C 15.15625 62.355469 15.136719 62.433594 15.097656 62.511719 C 14.476562 64.164062 13.867188 65.847656 13.226562 67.578125 C 13.207031 67.617188 13.171875 67.71875 13.152344 67.757812 L 13.285156 67.785156 L 15.992188 67.496094 L 16.144531 67.433594 C 16.085938 67.414062 16.050781 67.335938 15.992188 67.316406 C 19.570312 66.867188 24.339844 64.183594 27.433594 60.875 C 28.851562 59.359375 30.136719 57.546875 31.34375 55.449219 C 32.238281 53.871094 33.054688 52.140625 33.851562 50.214844 C 34.550781 48.539062 35.214844 46.710938 35.855469 44.746094 C 35.039062 45.175781 34.085938 45.507812 33.054688 45.71875 C 32.878906 45.757812 32.683594 45.796875 32.492188 45.835938 C 32.296875 45.875 32.101562 45.894531 31.925781 45.933594 C 35.273438 44.648438 37.375 42.160156 38.910156 39.125 C 38.035156 39.726562 36.59375 40.507812 34.882812 40.894531 C 34.648438 40.953125 34.417969 40.992188 34.164062 41.03125 C 34.105469 41.03125 34.046875 41.050781 33.988281 41.050781 C 35.15625 40.5625 36.128906 40.019531 36.984375 39.378906 C 37.160156 39.242188 37.335938 39.105469 37.507812 38.949219 C 37.761719 38.714844 38.015625 38.484375 38.25 38.25 C 38.40625 38.09375 38.539062 37.9375 38.695312 37.761719 C 39.039062 37.359375 39.351562 36.929688 39.628906 36.480469 C 39.726562 36.34375 39.804688 36.1875 39.902344 36.050781 C 40.019531 35.835938 40.117188 35.621094 40.214844 35.410156 C 40.679688 34.476562 41.050781 33.636719 41.34375 32.898438 C 41.5 32.527344 41.613281 32.199219 41.730469 31.867188 C 41.769531 31.75 41.808594 31.613281 41.867188 31.5 C 41.984375 31.148438 42.082031 30.835938 42.160156 30.546875 C 42.25 30.226562 42.320312 29.898438 42.375 29.570312 C 42.257812 29.667969 42.140625 29.746094 41.984375 29.84375 C 40.972656 30.449219 39.242188 30.992188 37.839844 31.246094 L 40.601562 30.933594 L 37.839844 31.246094 C 37.644531 31.285156 37.507812 31.304688 37.355469 31.34375 C 37.367188 31.328125 34.246094 31.660156 27.992188 32.332031 C 27.953125 32.371094 27.722656 32.859375 27.625 33.09375 Z M 27.625 33.09375 "/>
<path style=" stroke:none;fill-rule:nonzero;fill:url(#linear6);" d="M 12.859375 68.484375 C 12.375 69.824219 11.867188 71.207031 11.382812 72.605469 C 11.382812 72.625 11.363281 72.644531 11.363281 72.664062 C 11.285156 72.859375 11.226562 73.054688 11.148438 73.269531 C 10.816406 74.222656 10.523438 75.058594 9.863281 77.003906 C 10.953125 77.507812 11.828125 78.8125 12.664062 80.3125 C 12.585938 78.773438 11.945312 77.316406 10.71875 76.207031 C 16.109375 76.441406 20.757812 75.078125 23.152344 71.148438 C 23.371094 70.789062 23.5625 70.421875 23.734375 70.039062 C 22.644531 71.421875 21.285156 72.003906 18.753906 71.867188 L 18.734375 71.867188 L 18.753906 71.867188 C 22.507812 70.195312 24.378906 68.578125 26.050781 65.914062 C 26.464844 65.234375 26.855469 64.539062 27.21875 63.832031 C 23.929688 67.199219 20.136719 68.152344 16.148438 67.433594 L 13.152344 67.761719 C 13.054688 67.976562 12.957031 68.230469 12.859375 68.484375 Z M 12.859375 68.484375 "/>
</g>
</svg>
