<?xml version="1.0" encoding="UTF-8"?>
<svg xmlns="http://www.w3.org/2000/svg" xmlns:xlink="http://www.w3.org/1999/xlink" width="50px" height="px" viewBox="0 0 50 50" version="1.1">
<defs>
<linearGradient id="linear0" gradientUnits="userSpaceOnUse" x1="15.01" y1="2" x2="15.01" y2="27.001" gradientTransform="matrix(1.5625,0,0,1.5625,0,0)">
<stop offset="0" style="stop-color:rgb(97.254902%,54.117647%,21.176471%);stop-opacity:1;"/>
<stop offset="1" style="stop-color:rgb(99.215686%,12.54902%,12.54902%);stop-opacity:1;"/>
</linearGradient>
</defs>
<g id="surface1">
<path style=" stroke:none;fill-rule:nonzero;fill:url(#linear0);" d="M 34.585938 39.484375 C 29.429688 42.453125 22.335938 42.757812 15.203125 39.714844 C 9.429688 37.265625 4.632812 32.984375 1.5625 28.089844 C 3.039062 29.3125 4.757812 30.292969 6.601562 31.148438 C 13.96875 34.585938 21.335938 34.351562 26.519531 31.15625 C 19.144531 25.527344 12.867188 18.175781 8.199219 12.179688 C 7.214844 11.203125 6.476562 9.976562 5.742188 8.875 C 11.394531 14.015625 20.367188 20.5 23.5625 22.335938 C 16.804688 15.238281 10.78125 6.429688 11.023438 6.671875 C 21.71875 17.441406 31.671875 23.5625 31.671875 23.5625 C 31.941406 23.710938 32.203125 23.867188 32.460938 24.039062 C 32.675781 23.492188 32.867188 22.925781 33.023438 22.335938 C 34.746094 16.097656 32.78125 9 28.476562 3.125 C 38.429688 9.121094 44.332031 20.378906 41.871094 29.800781 C 41.808594 30.054688 41.738281 30.304688 41.664062 30.554688 C 46.578125 36.671875 45.3125 43.261719 44.699219 42.039062 C 42.03125 36.84375 37.097656 38.433594 34.585938 39.484375 Z M 34.585938 39.484375 "/>
</g>
</svg>
