<?xml version="1.0" encoding="UTF-8"?>
<svg xmlns="http://www.w3.org/2000/svg" xmlns:xlink="http://www.w3.org/1999/xlink" width="50px" height="px" viewBox="0 0 50 50" version="1.1">
<defs>
<linearGradient id="linear0" gradientUnits="userSpaceOnUse" x1="0.558" y1="46.846" x2="29.947" y2="8.026" gradientTransform="matrix(0.714286,0,0,0.714286,0,0)">
<stop offset="0.016" style="stop-color:rgb(46.27451%,35.294118%,97.254902%);stop-opacity:1;"/>
<stop offset="0.382" style="stop-color:rgb(70.196078%,27.058824%,94.509804%);stop-opacity:1;"/>
<stop offset="0.758" style="stop-color:rgb(98.039216%,19.607843%,57.647059%);stop-opacity:1;"/>
<stop offset="0.941" style="stop-color:rgb(100%,19.215686%,54.901961%);stop-opacity:1;"/>
</linearGradient>
<linearGradient id="linear1" gradientUnits="userSpaceOnUse" x1="2.73" y1="48.379" x2="32.072" y2="9.621" gradientTransform="matrix(0.714286,0,0,0.714286,0,0)">
<stop offset="0.016" style="stop-color:rgb(46.27451%,35.294118%,97.254902%);stop-opacity:1;"/>
<stop offset="0.382" style="stop-color:rgb(70.196078%,27.058824%,94.509804%);stop-opacity:1;"/>
<stop offset="0.758" style="stop-color:rgb(98.039216%,19.607843%,57.647059%);stop-opacity:1;"/>
<stop offset="0.941" style="stop-color:rgb(100%,19.215686%,54.901961%);stop-opacity:1;"/>
</linearGradient>
<linearGradient id="linear2" gradientUnits="userSpaceOnUse" x1="50.857" y1="46.405" x2="34.274" y2="7.048" gradientTransform="matrix(0.714286,0,0,0.714286,0,0)">
<stop offset="0.183" style="stop-color:rgb(46.27451%,35.294118%,97.254902%);stop-opacity:1;"/>
<stop offset="0.238" style="stop-color:rgb(52.54902%,33.333333%,96.470588%);stop-opacity:1;"/>
<stop offset="0.345" style="stop-color:rgb(62.352941%,29.803922%,95.294118%);stop-opacity:1;"/>
<stop offset="0.443" style="stop-color:rgb(68.235294%,27.843137%,94.901961%);stop-opacity:1;"/>
<stop offset="0.522" style="stop-color:rgb(70.196078%,27.058824%,94.509804%);stop-opacity:1;"/>
</linearGradient>
<linearGradient id="linear3" gradientUnits="userSpaceOnUse" x1="63.266" y1="57.339" x2="24.698" y2="27.516" gradientTransform="matrix(0.714286,0,0,0.714286,0,0)">
<stop offset="0.016" style="stop-color:rgb(46.27451%,35.294118%,97.254902%);stop-opacity:1;"/>
<stop offset="0.382" style="stop-color:rgb(70.196078%,27.058824%,94.509804%);stop-opacity:1;"/>
</linearGradient>
</defs>
<g id="surface1">
<path style=" stroke:none;fill-rule:nonzero;fill:url(#linear0);" d="M 28.285156 10.855469 L 25.929688 3.714844 L 8.5 0 L 0 9.644531 L 26.570312 23.214844 Z M 28.285156 10.855469 "/>
<path style=" stroke:none;fill-rule:nonzero;fill:url(#linear1);" d="M 20 29.570312 L 19.5 14.714844 L 0 9.644531 L 4.785156 38.285156 L 20 38.144531 Z M 20 29.570312 "/>
<path style=" stroke:none;fill-rule:nonzero;fill:url(#linear2);" d="M 15.785156 29.285156 L 16.714844 17.5 L 30.855469 3 L 43.5 5.285156 L 50 21.5 L 43.214844 28.214844 L 32.144531 26.429688 L 25.285156 33.644531 Z M 15.785156 29.285156 "/>
<path style=" stroke:none;fill-rule:nonzero;fill:url(#linear3);" d="M 30.855469 3 L 10.570312 21 L 14.5 44.144531 L 31.355469 50 L 50 38.855469 Z M 30.855469 3 "/>
<path style=" stroke:none;fill-rule:nonzero;fill:rgb(0%,0%,0%);fill-opacity:1;" d="M 9.570312 9.570312 L 40.429688 9.570312 L 40.429688 40.429688 L 9.570312 40.429688 Z M 9.570312 9.570312 "/>
<path style=" stroke:none;fill-rule:nonzero;fill:rgb(100%,100%,100%);fill-opacity:1;" d="M 12.5 34.644531 L 24.070312 34.644531 L 24.070312 36.570312 L 12.5 36.570312 Z M 12.355469 13.570312 L 17.570312 13.570312 C 20.644531 13.570312 22.5 15.355469 22.5 18 L 22.5 18.070312 C 22.5 21.070312 20.214844 22.570312 17.285156 22.570312 L 15.144531 22.570312 L 15.144531 26.429688 L 12.355469 26.429688 Z M 17.429688 20 C 18.855469 20 19.644531 19.144531 19.644531 18.070312 L 19.644531 18 C 19.644531 16.714844 18.785156 16.070312 17.355469 16.070312 L 15.214844 16.070312 L 15.214844 20 Z M 23.214844 24.570312 L 24.855469 22.570312 C 26 23.5 27.214844 24.144531 28.714844 24.144531 C 29.855469 24.144531 30.570312 23.714844 30.570312 22.929688 L 30.570312 22.855469 C 30.570312 22.144531 30.144531 21.785156 28 21.214844 C 25.429688 20.570312 23.714844 19.855469 23.714844 17.285156 L 23.714844 17.214844 C 23.714844 14.855469 25.570312 13.355469 28.214844 13.355469 C 30.070312 13.355469 31.714844 13.929688 33 15 L 31.5 17.144531 C 30.355469 16.355469 29.214844 15.855469 28.144531 15.855469 C 27.070312 15.855469 26.5 16.355469 26.5 17 L 26.5 17.070312 C 26.5 17.929688 27.070312 18.214844 29.285156 18.785156 C 31.855469 19.5 33.355469 20.429688 33.355469 22.644531 L 33.355469 22.714844 C 33.355469 25.285156 31.429688 26.714844 28.644531 26.714844 C 26.714844 26.644531 24.785156 25.929688 23.214844 24.570312 "/>
</g>
</svg>
