<?xml version="1.0" encoding="UTF-8"?>
<svg xmlns="http://www.w3.org/2000/svg" xmlns:xlink="http://www.w3.org/1999/xlink" width="50px" height="px" viewBox="0 0 50 45" version="1.1">
<g id="surface1">
<path style=" stroke:none;fill-rule:nonzero;fill:rgb(0%,84.705882%,100%);fill-opacity:1;" d="M 41.109375 14.570312 C 40.578125 14.386719 40.042969 14.214844 39.5 14.058594 C 39.589844 13.683594 39.675781 13.3125 39.75 12.949219 C 40.96875 6.972656 40.171875 2.15625 37.449219 0.570312 C 34.84375 -0.949219 30.578125 0.636719 26.269531 4.425781 C 25.84375 4.800781 25.429688 5.183594 25.023438 5.578125 C 24.75 5.316406 24.476562 5.058594 24.195312 4.808594 C 19.679688 0.753906 15.152344 -0.953125 12.4375 0.636719 C 9.828125 2.164062 9.058594 6.6875 10.15625 12.351562 C 10.265625 12.914062 10.386719 13.472656 10.523438 14.027344 C 9.882812 14.210938 9.265625 14.40625 8.675781 14.613281 C 3.378906 16.480469 0 19.402344 0 22.433594 C 0 25.566406 3.628906 28.707031 9.144531 30.609375 C 9.589844 30.765625 10.039062 30.90625 10.496094 31.039062 C 10.347656 31.636719 10.214844 32.238281 10.101562 32.839844 C 9.054688 38.40625 9.875 42.828125 12.472656 44.339844 C 15.15625 45.90625 19.660156 44.296875 24.046875 40.421875 C 24.40625 40.109375 24.753906 39.785156 25.09375 39.453125 C 25.53125 39.878906 25.980469 40.292969 26.445312 40.699219 C 30.695312 44.390625 34.890625 45.882812 37.488281 44.367188 C 40.167969 42.796875 41.039062 38.050781 39.910156 32.273438 C 39.820312 31.820312 39.71875 31.371094 39.609375 30.921875 C 39.925781 30.828125 40.234375 30.730469 40.539062 30.628906 C 46.269531 28.710938 50 25.609375 50 22.433594 C 50 19.390625 46.511719 16.449219 41.109375 14.570312 Z M 39.867188 28.582031 C 39.59375 28.671875 39.3125 28.761719 39.027344 28.847656 C 38.394531 26.820312 37.539062 24.667969 36.496094 22.445312 C 37.492188 20.273438 38.3125 18.148438 38.929688 16.136719 C 39.441406 16.289062 39.9375 16.445312 40.414062 16.609375 C 45.042969 18.222656 47.863281 20.601562 47.863281 22.433594 C 47.863281 24.386719 44.816406 26.921875 39.867188 28.582031 Z M 37.8125 32.691406 C 38.3125 35.246094 38.386719 37.554688 38.054688 39.359375 C 37.753906 40.984375 37.15625 42.066406 36.417969 42.496094 C 34.839844 43.417969 31.472656 42.222656 27.835938 39.0625 C 27.40625 38.6875 26.988281 38.300781 26.578125 37.902344 C 27.988281 36.34375 29.398438 34.535156 30.769531 32.523438 C 33.1875 32.308594 35.472656 31.953125 37.542969 31.46875 C 37.644531 31.886719 37.734375 32.292969 37.8125 32.691406 Z M 17.046875 42.339844 C 15.507812 42.886719 14.28125 42.902344 13.539062 42.472656 C 11.960938 41.550781 11.304688 38.003906 12.199219 33.246094 C 12.308594 32.683594 12.429688 32.121094 12.566406 31.566406 C 14.613281 32.023438 16.882812 32.355469 19.304688 32.550781 C 20.6875 34.519531 22.136719 36.328125 23.597656 37.910156 C 23.285156 38.214844 22.96875 38.511719 22.644531 38.796875 C 20.703125 40.511719 18.757812 41.726562 17.046875 42.339844 Z M 9.832031 28.570312 C 7.394531 27.726562 5.382812 26.632812 4.003906 25.4375 C 2.761719 24.363281 2.136719 23.300781 2.136719 22.433594 C 2.136719 20.59375 4.851562 18.246094 9.378906 16.652344 C 9.925781 16.460938 10.5 16.277344 11.097656 16.105469 C 11.722656 18.164062 12.546875 20.3125 13.535156 22.488281 C 12.53125 24.695312 11.699219 26.878906 11.066406 28.960938 C 10.652344 28.839844 10.242188 28.707031 9.835938 28.570312 Z M 12.25 11.9375 C 11.3125 7.085938 11.9375 3.425781 13.507812 2.507812 C 15.179688 1.527344 18.878906 2.921875 22.777344 6.421875 C 23.03125 6.648438 23.28125 6.882812 23.527344 7.121094 C 22.074219 8.695312 20.636719 10.492188 19.265625 12.445312 C 16.914062 12.667969 14.664062 13.019531 12.59375 13.496094 C 12.46875 12.980469 12.351562 12.460938 12.25 11.9375 Z M 33.820312 17.320312 C 33.332031 16.46875 32.824219 15.625 32.300781 14.792969 C 33.894531 14.996094 35.421875 15.269531 36.859375 15.597656 C 36.425781 16.996094 35.890625 18.453125 35.257812 19.949219 C 34.796875 19.0625 34.316406 18.1875 33.820312 17.320312 Z M 25.023438 8.664062 C 26.007812 9.742188 26.996094 10.945312 27.964844 12.253906 C 25.996094 12.160156 24.027344 12.160156 22.058594 12.25 C 23.027344 10.957031 24.023438 9.753906 25.023438 8.664062 Z M 16.171875 17.335938 C 15.683594 18.195312 15.210938 19.066406 14.761719 19.949219 C 14.140625 18.457031 13.605469 16.992188 13.171875 15.574219 C 14.597656 15.253906 16.121094 14.988281 17.703125 14.789062 C 17.175781 15.625 16.664062 16.472656 16.171875 17.335938 Z M 17.75 30.234375 C 16.113281 30.046875 14.570312 29.796875 13.140625 29.484375 C 13.585938 28.042969 14.128906 26.546875 14.761719 25.023438 C 15.214844 25.90625 15.6875 26.777344 16.179688 27.636719 C 16.6875 28.523438 17.210938 29.390625 17.75 30.234375 Z M 25.082031 36.359375 C 24.070312 35.253906 23.0625 34.03125 22.074219 32.71875 C 23.03125 32.757812 24.007812 32.777344 25 32.777344 C 26.019531 32.777344 27.027344 32.753906 28.019531 32.710938 C 27.042969 34.046875 26.0625 35.269531 25.082031 36.359375 Z M 35.277344 24.945312 C 35.945312 26.484375 36.507812 27.976562 36.957031 29.390625 C 35.507812 29.726562 33.941406 29.996094 32.292969 30.195312 C 32.820312 29.347656 33.332031 28.492188 33.828125 27.625 C 34.332031 26.742188 34.8125 25.847656 35.277344 24.945312 Z M 31.976562 26.546875 C 31.21875 27.875 30.421875 29.179688 29.578125 30.457031 C 28.054688 30.566406 26.527344 30.621094 25 30.617188 C 23.445312 30.617188 21.929688 30.570312 20.472656 30.472656 C 19.609375 29.199219 18.792969 27.894531 18.027344 26.558594 L 18.03125 26.558594 C 17.265625 25.226562 16.554688 23.871094 15.894531 22.484375 C 16.554688 21.101562 17.261719 19.742188 18.023438 18.414062 C 18.78125 17.082031 19.589844 15.78125 20.445312 14.511719 C 21.933594 14.398438 23.457031 14.339844 25 14.339844 C 26.546875 14.339844 28.074219 14.398438 29.5625 14.515625 C 30.410156 15.78125 31.214844 17.078125 31.96875 18.402344 C 32.730469 19.730469 33.453125 21.082031 34.125 22.457031 C 33.457031 23.84375 32.742188 25.207031 31.976562 26.546875 Z M 36.382812 2.441406 C 38.058594 3.417969 38.710938 7.351562 37.65625 12.511719 C 37.589844 12.84375 37.515625 13.175781 37.433594 13.515625 C 35.359375 13.035156 33.105469 12.671875 30.746094 12.449219 C 29.375 10.472656 27.949219 8.675781 26.519531 7.121094 C 26.894531 6.753906 27.277344 6.398438 27.671875 6.054688 C 31.363281 2.808594 34.8125 1.527344 36.382812 2.441406 Z M 25 17.921875 C 27.464844 17.921875 29.464844 19.941406 29.464844 22.433594 C 29.464844 24.925781 27.464844 26.945312 25 26.945312 C 22.535156 26.945312 20.535156 24.925781 20.535156 22.433594 C 20.535156 19.941406 22.535156 17.921875 25 17.921875 Z M 25 17.921875 "/>
</g>
</svg>
