<?xml version="1.0" encoding="UTF-8"?>
<svg xmlns="http://www.w3.org/2000/svg" xmlns:xlink="http://www.w3.org/1999/xlink" width="50px" height="px" viewBox="0 0 49 27" version="1.1">
<defs>
<clipPath id="clip1">
  <path d="M 0.6875 13.484375 C 0.6875 20.546875 11.351562 26.269531 24.507812 26.269531 C 37.660156 26.269531 48.324219 20.546875 48.324219 13.484375 C 48.324219 6.425781 37.660156 0.703125 24.507812 0.703125 C 11.351562 0.703125 0.6875 6.425781 0.6875 13.484375 "/>
</clipPath>
<radialGradient id="radial0" gradientUnits="userSpaceOnUse" cx="0" cy="0" fx="0" fy="0" r="1" gradientTransform="matrix(31.276084,0,0,31.909385,14.989451,5.197166)">
<stop offset="0" style="stop-color:rgb(68.235294%,69.803922%,83.529412%);stop-opacity:1;"/>
<stop offset="0.3" style="stop-color:rgb(68.235294%,69.803922%,83.529412%);stop-opacity:1;"/>
<stop offset="0.75" style="stop-color:rgb(28.235294%,29.803922%,53.72549%);stop-opacity:1;"/>
<stop offset="1" style="stop-color:rgb(28.235294%,29.803922%,53.72549%);stop-opacity:1;"/>
</radialGradient>
</defs>
<g id="surface1">
<g clip-path="url(#clip1)" clip-rule="nonzero">
<path style=" stroke:none;fill-rule:nonzero;fill:url(#radial0);" d="M 0.6875 13.484375 C 0.6875 20.546875 11.351562 26.269531 24.507812 26.269531 C 37.660156 26.269531 48.324219 20.546875 48.324219 13.484375 C 48.324219 6.425781 37.660156 0.703125 24.507812 0.703125 C 11.351562 0.703125 0.6875 6.425781 0.6875 13.484375 "/>
</g>
<path style=" stroke:none;fill-rule:nonzero;fill:rgb(46.666667%,48.235294%,70.196078%);fill-opacity:1;" d="M 24.507812 25.320312 C 37.148438 25.320312 47.394531 20.019531 47.394531 13.484375 C 47.394531 6.949219 37.148438 1.652344 24.507812 1.652344 C 11.867188 1.652344 1.621094 6.949219 1.621094 13.484375 C 1.621094 20.019531 11.867188 25.320312 24.507812 25.320312 "/>
<path style=" stroke:none;fill-rule:nonzero;fill:rgb(0%,0%,0%);fill-opacity:1;" d="M 13.628906 14.953125 C 14.667969 14.953125 15.445312 14.757812 15.9375 14.371094 C 16.421875 13.992188 16.757812 13.328125 16.933594 12.40625 C 17.097656 11.546875 17.035156 10.945312 16.746094 10.617188 C 16.453125 10.289062 15.820312 10.117188 14.859375 10.117188 L 13.199219 10.117188 L 12.28125 14.953125 Z M 8.195312 20.90625 C 8.121094 20.90625 8.046875 20.871094 7.996094 20.8125 C 7.949219 20.75 7.929688 20.671875 7.941406 20.59375 L 10.382812 7.785156 C 10.40625 7.660156 10.511719 7.570312 10.636719 7.570312 L 15.898438 7.570312 C 17.550781 7.570312 18.78125 8.027344 19.554688 8.929688 C 20.332031 9.839844 20.570312 11.109375 20.265625 12.703125 C 20.144531 13.355469 19.929688 13.957031 19.632812 14.496094 C 19.339844 15.039062 18.945312 15.539062 18.472656 15.984375 C 17.902344 16.53125 17.253906 16.925781 16.554688 17.15625 C 15.867188 17.386719 14.980469 17.5 13.921875 17.5 L 11.792969 17.5 L 11.1875 20.695312 C 11.164062 20.816406 11.054688 20.90625 10.933594 20.90625 Z M 8.195312 20.90625 "/>
<path style=" stroke:none;fill-rule:nonzero;fill:rgb(100%,100%,100%);fill-opacity:1;" d="M 13.414062 10.382812 L 14.859375 10.382812 C 16.015625 10.382812 16.417969 10.640625 16.554688 10.796875 C 16.78125 11.050781 16.824219 11.59375 16.679688 12.355469 C 16.515625 13.214844 16.210938 13.820312 15.777344 14.164062 C 15.332031 14.511719 14.609375 14.6875 13.628906 14.6875 L 12.59375 14.6875 Z M 15.898438 7.304688 L 10.636719 7.304688 C 10.390625 7.304688 10.175781 7.484375 10.128906 7.734375 L 7.691406 20.542969 C 7.660156 20.699219 7.699219 20.859375 7.796875 20.980469 C 7.894531 21.101562 8.042969 21.171875 8.195312 21.171875 L 10.933594 21.171875 C 11.179688 21.171875 11.390625 20.992188 11.441406 20.746094 L 12.007812 17.765625 L 13.921875 17.765625 C 15.007812 17.765625 15.921875 17.644531 16.636719 17.40625 C 17.371094 17.164062 18.046875 16.75 18.648438 16.179688 C 19.144531 15.714844 19.550781 15.191406 19.859375 14.625 C 20.167969 14.0625 20.390625 13.429688 20.519531 12.753906 C 20.839844 11.074219 20.582031 9.730469 19.75 8.757812 C 18.921875 7.792969 17.628906 7.304688 15.898438 7.304688 M 11.964844 15.214844 L 13.628906 15.214844 C 14.730469 15.214844 15.554688 15.003906 16.09375 14.582031 C 16.632812 14.15625 16.996094 13.449219 17.1875 12.457031 C 17.367188 11.503906 17.285156 10.832031 16.9375 10.441406 C 16.59375 10.050781 15.898438 9.855469 14.859375 9.855469 L 12.988281 9.855469 L 11.964844 15.214844 M 15.898438 7.832031 C 17.480469 7.832031 18.632812 8.257812 19.359375 9.105469 C 20.085938 9.953125 20.304688 11.136719 20.011719 12.652344 C 19.894531 13.277344 19.691406 13.851562 19.410156 14.367188 C 19.125 14.886719 18.753906 15.363281 18.296875 15.792969 C 17.75 16.3125 17.144531 16.683594 16.476562 16.90625 C 15.808594 17.128906 14.957031 17.238281 13.921875 17.238281 L 11.582031 17.238281 L 10.933594 20.644531 L 8.195312 20.644531 L 10.636719 7.832031 L 15.898438 7.832031 "/>
<path style=" stroke:none;fill-rule:nonzero;fill:rgb(0%,0%,0%);fill-opacity:1;" d="M 26.539062 17.5 C 26.460938 17.5 26.386719 17.464844 26.339844 17.40625 C 26.289062 17.34375 26.269531 17.265625 26.285156 17.1875 L 27.363281 11.519531 C 27.46875 10.980469 27.441406 10.59375 27.292969 10.429688 C 27.203125 10.332031 26.929688 10.164062 26.121094 10.164062 L 24.164062 10.164062 L 22.808594 17.289062 C 22.785156 17.414062 22.679688 17.5 22.554688 17.5 L 19.839844 17.5 C 19.761719 17.5 19.691406 17.464844 19.640625 17.40625 C 19.59375 17.34375 19.570312 17.265625 19.585938 17.1875 L 22.027344 4.378906 C 22.050781 4.253906 22.15625 4.164062 22.28125 4.164062 L 24.996094 4.164062 C 25.070312 4.164062 25.144531 4.199219 25.195312 4.261719 C 25.242188 4.320312 25.261719 4.402344 25.25 4.476562 L 24.660156 7.570312 L 26.761719 7.570312 C 28.367188 7.570312 29.453125 7.859375 30.085938 8.453125 C 30.730469 9.054688 30.933594 10.023438 30.683594 11.328125 L 29.550781 17.289062 C 29.523438 17.414062 29.417969 17.5 29.296875 17.5 Z M 26.539062 17.5 "/>
<path style=" stroke:none;fill-rule:nonzero;fill:rgb(100%,100%,100%);fill-opacity:1;" d="M 24.996094 3.902344 L 22.28125 3.902344 C 22.035156 3.902344 21.820312 4.078125 21.773438 4.328125 L 19.332031 17.136719 C 19.304688 17.292969 19.34375 17.453125 19.441406 17.574219 C 19.539062 17.695312 19.6875 17.765625 19.839844 17.765625 L 22.554688 17.765625 C 22.800781 17.765625 23.015625 17.585938 23.0625 17.339844 L 24.378906 10.425781 L 26.121094 10.425781 C 26.925781 10.425781 27.097656 10.601562 27.101562 10.609375 C 27.152344 10.664062 27.214844 10.914062 27.109375 11.46875 L 26.03125 17.136719 C 26 17.292969 26.042969 17.453125 26.140625 17.574219 C 26.238281 17.695312 26.382812 17.765625 26.539062 17.765625 L 29.296875 17.765625 C 29.542969 17.765625 29.753906 17.585938 29.800781 17.339844 L 30.9375 11.378906 C 31.203125 9.976562 30.976562 8.929688 30.261719 8.257812 C 29.578125 7.617188 28.433594 7.304688 26.761719 7.304688 L 24.972656 7.304688 L 25.503906 4.527344 C 25.53125 4.375 25.492188 4.214844 25.394531 4.09375 C 25.296875 3.972656 25.148438 3.902344 24.996094 3.902344 M 24.996094 4.429688 L 24.347656 7.832031 L 26.761719 7.832031 C 28.285156 7.832031 29.332031 8.105469 29.910156 8.644531 C 30.488281 9.1875 30.660156 10.066406 30.429688 11.277344 L 29.296875 17.238281 L 26.539062 17.238281 L 27.617188 11.570312 C 27.742188 10.925781 27.695312 10.484375 27.480469 10.25 C 27.269531 10.015625 26.816406 9.898438 26.121094 9.898438 L 23.953125 9.898438 L 22.554688 17.238281 L 19.839844 17.238281 L 22.28125 4.429688 L 24.996094 4.429688 "/>
<path style=" stroke:none;fill-rule:nonzero;fill:rgb(0%,0%,0%);fill-opacity:1;" d="M 34.976562 14.953125 C 36.015625 14.953125 36.792969 14.757812 37.285156 14.371094 C 37.769531 13.992188 38.105469 13.328125 38.28125 12.40625 C 38.445312 11.546875 38.382812 10.945312 38.09375 10.617188 C 37.800781 10.289062 37.167969 10.117188 36.210938 10.117188 L 34.546875 10.117188 L 33.628906 14.953125 Z M 29.546875 20.90625 C 29.46875 20.90625 29.394531 20.871094 29.347656 20.8125 C 29.296875 20.75 29.277344 20.671875 29.292969 20.59375 L 31.730469 7.785156 C 31.753906 7.660156 31.863281 7.570312 31.984375 7.570312 L 37.246094 7.570312 C 38.898438 7.570312 40.128906 8.027344 40.902344 8.929688 C 41.679688 9.839844 41.917969 11.109375 41.617188 12.703125 C 41.492188 13.355469 41.277344 13.957031 40.984375 14.496094 C 40.6875 15.039062 40.296875 15.539062 39.820312 15.984375 C 39.25 16.53125 38.605469 16.925781 37.902344 17.15625 C 37.214844 17.386719 36.328125 17.5 35.273438 17.5 L 33.140625 17.5 L 32.535156 20.695312 C 32.511719 20.816406 32.40625 20.90625 32.28125 20.90625 Z M 29.546875 20.90625 "/>
<path style=" stroke:none;fill-rule:nonzero;fill:rgb(100%,100%,100%);fill-opacity:1;" d="M 34.761719 10.382812 L 36.210938 10.382812 C 37.367188 10.382812 37.765625 10.640625 37.902344 10.796875 C 38.128906 11.050781 38.171875 11.59375 38.027344 12.355469 C 37.863281 13.214844 37.5625 13.820312 37.125 14.164062 C 36.683594 14.511719 35.960938 14.6875 34.976562 14.6875 L 33.941406 14.6875 Z M 37.246094 7.304688 L 31.984375 7.304688 C 31.738281 7.304688 31.527344 7.484375 31.480469 7.734375 L 29.039062 20.542969 C 29.007812 20.699219 29.046875 20.859375 29.148438 20.980469 C 29.246094 21.101562 29.390625 21.171875 29.546875 21.171875 L 32.28125 21.171875 C 32.527344 21.171875 32.742188 20.992188 32.789062 20.746094 L 33.355469 17.765625 L 35.273438 17.765625 C 36.355469 17.765625 37.269531 17.644531 37.984375 17.40625 C 38.71875 17.164062 39.398438 16.75 39.996094 16.179688 C 40.492188 15.714844 40.898438 15.191406 41.207031 14.625 C 41.519531 14.0625 41.742188 13.429688 41.871094 12.753906 C 42.1875 11.074219 41.929688 9.730469 41.097656 8.757812 C 40.273438 7.792969 38.976562 7.304688 37.246094 7.304688 M 33.3125 15.214844 L 34.976562 15.214844 C 36.082031 15.214844 36.902344 15.003906 37.441406 14.582031 C 37.980469 14.15625 38.347656 13.449219 38.535156 12.457031 C 38.714844 11.503906 38.632812 10.832031 38.289062 10.441406 C 37.941406 10.050781 37.25 9.855469 36.210938 9.855469 L 34.335938 9.855469 L 33.3125 15.214844 M 37.246094 7.832031 C 38.828125 7.832031 39.980469 8.257812 40.707031 9.105469 C 41.433594 9.953125 41.652344 11.136719 41.363281 12.652344 C 41.242188 13.277344 41.042969 13.851562 40.757812 14.367188 C 40.472656 14.886719 40.101562 15.363281 39.644531 15.792969 C 39.097656 16.3125 38.492188 16.683594 37.824219 16.90625 C 37.15625 17.128906 36.304688 17.238281 35.273438 17.238281 L 32.929688 17.238281 L 32.28125 20.644531 L 29.546875 20.644531 L 31.984375 7.832031 L 37.246094 7.832031 "/>
</g>
</svg>
