<?xml version="1.0" encoding="UTF-8" standalone="no"?>
<svg id="Layer_1" data-name="Layer 1" xmlns="http://www.w3.org/2000/svg" viewBox="0 0 402.93 125.79"><defs><style>.cls-1{fill:#00307f;}.cls-2{fill:#da1125;}.cls-3{fill:none;stroke:#000;stroke-width:0.3px;}</style></defs><path class="cls-1" d="M208,311.51l-.08-67.45h50.47s12,.38,17.73,5.22c8.92,7,7.9,17.86,7.9,17.86l-21.92,13.68s0-15.33,0-15.68a11.3,11.3,0,0,0-3.4-3.67,9.93,9.93,0,0,0-5.59-2.16c-1.57-.21-23.11-.08-23.11-.08l0,52.28Z" transform="translate(-207.89 -217.51)"></path><path class="cls-1" d="M283.94,289.07v22.24h-22v-8.58S276.82,294.53,283.94,289.07Z" transform="translate(-207.89 -217.51)"></path><path class="cls-1" d="M315.81,264.71v46.73H294v-29A277.12,277.12,0,0,0,315.81,264.71Z" transform="translate(-207.89 -217.51)"></path><path class="cls-2" d="M281.49,223.62a6.11,6.11,0,1,1-6.11-6.11A6.1,6.1,0,0,1,281.49,223.62Z" transform="translate(-207.89 -217.51)"></path><path class="cls-2" d="M309,237.91a9.3,9.3,0,1,1-9.3-9.3A9.3,9.3,0,0,1,309,237.91Z" transform="translate(-207.89 -217.51)"></path><path class="cls-2" d="M309.4,232.88c2.44-1.95,15.32-9.17,26.78-11.63,2.65-.46,3.92-.2,5,.84s.71,2.49.28,3.88c-.81,2.59-7.57,17.61-39.56,43.32-28.17,22.35-46.9,33.27-58,33.8-3.35-.2-3.35-2.23-3.4-2.86,0,0-1.3-5.42,13-20.81.63-.82-3,5-3.88,7.09-.33,1.18-1.12,3.6,2.49,3.88s17.49-3.89,43-24.71S325,235.17,325,235.17s2.57-4.39,1-6.19a4.16,4.16,0,0,0-3.18-.51C318.61,229.07,314.33,230.78,309.4,232.88Z" transform="translate(-207.89 -217.51)"></path><path class="cls-3" d="M326.11,229.32" transform="translate(-207.89 -217.51)"></path><path class="cls-3" d="M325,235.17" transform="translate(-207.89 -217.51)"></path><path class="cls-1" d="M397.8,244v15.58H365.27c-8.54,0-19.6,7.79-19.6,18.72a18.26,18.26,0,0,0,18.47,18.22h33.54v14.57H358.11c-4.9,0-35.81-3.65-35.81-33.17,0-29,31.16-34,37.94-34C365.77,243.87,397.8,244,397.8,244Z" transform="translate(-207.89 -217.51)"></path><path class="cls-3" d="M345.67,278.29" transform="translate(-207.89 -217.51)"></path><path class="cls-3" d="M365.27,259.57" transform="translate(-207.89 -217.51)"></path><path class="cls-1" d="M445.92,243.87c-28.77,0-46.73,13.82-46.73,34.17,0,18.73,11.93,35,46.73,35,34.17,0,47.61-16.45,47.74-35.18C493.78,258.44,479.33,243.87,445.92,243.87Zm.5,55.9c-8.43,0-22.86-4.65-22.86-21.86,0-15.2,14.18-19.72,22.61-19.72,9.67,0,23.12,4.65,23.12,19.47C469.54,296.25,454.85,299.77,446.42,299.77Z" transform="translate(-207.89 -217.51)"></path><path class="cls-1" d="M499.86,245.66h82.07s9.28.71,14.7,4.16c5.72,3.64,7.54,6.51,8.46,8.07a11.69,11.69,0,0,1,1.56,4v47.6H585.57V267.9s-.12-2.34-3.12-4.81a13.18,13.18,0,0,0-6.11-2.86H563.85V309.4H542.13V260h-19.9v49.55H499.86Z" transform="translate(-207.89 -217.51)"></path><path class="cls-1" d="M419.78,321.82h17l-.05,2-6.38,0v1a8.81,8.81,0,0,0,7.26,3.95c1.57,1-1.42,1.61-1.42,1.61s-5.05-.11-7.53-3.1a11.54,11.54,0,0,1-7.39,3.06c-.93.14-2.26-.25-2.43-1.31,7.06-1,7.64-4,7.65-4.06l0-1.22-6.73.05Z" transform="translate(-207.89 -217.51)"></path><polygon class="cls-1" points="209.79 114.63 231.3 114.63 231.3 116.53 222.53 116.53 222.53 122.97 218.72 122.97 218.72 116.53 209.75 116.53 209.79 114.63"></polygon><path class="cls-1" d="M445.73,321.9h3.81v3a4.2,4.2,0,0,0,1.8,4c2.15,1.71,3.66,1.61,3.66,1.61s.14,1.27-2.24,1.37-4.54-2.2-5.17-3c-2.39,2.34-3.42,2.69-3.42,2.69a5.67,5.67,0,0,1-2.68.43c-1.32-.53-1.41-1.26-1.41-1.26a4,4,0,0,0,2.38-.79c1-.82,3-1.9,3.17-3.61S445.73,321.9,445.73,321.9Z" transform="translate(-207.89 -217.51)"></path><rect class="cls-1" x="248.72" y="104.14" width="3.81" height="10.54"></rect><polyline class="cls-1" points="235.94 116.05 252.52 116.05 252.52 122.87 248.77 122.87 248.77 117.85 235.99 117.85 235.99 116.19"></polyline><path class="cls-1" d="M480,321.55s0,11.38-.07,11.88c-.4.58-1.63.42-1.63.42l-5,0,0-1.42a4.63,4.63,0,0,0,3.76-4,3.4,3.4,0,0,0-1.42-2.83h2.44v-1.9h-4.83v-2.24h-3.8l.05,2.24H464.9l0,1.9h2.39a4.16,4.16,0,0,0-1.45,2.46s-.12.11,0,1a5,5,0,0,0,3.67,3.43l0,1.43h-4.93v1.57s12.88,0,13.8,0A3.6,3.6,0,0,0,480,335v5.51h3.76v-19Zm-8.5,9.63a2.51,2.51,0,0,1-2.28-2.75,2.41,2.41,0,0,1,2.16-2.72,2.52,2.52,0,0,1,2.25,2.72A2.37,2.37,0,0,1,471.52,331.18Z" transform="translate(-207.89 -217.51)"></path><path class="cls-1" d="M491.22,322H495v4.86s-.2,1.39,1.81,3.53,2.4,1.87,2.4,1.87a4.6,4.6,0,0,0,1.41.28c.68,0-1.07,1.44-2.12,1.44a6.46,6.46,0,0,1-2.68-1c-.31-.17-2.29-1.52-2.71-2.6a20.51,20.51,0,0,1-2,2.29,5.82,5.82,0,0,1-3.05,1.33,3.75,3.75,0,0,1-2.4-1.33,4.69,4.69,0,0,0,1.69-.37c.65-.33,3.34-2.43,3.71-3.89s.19-.94.19-1.33Z" transform="translate(-207.89 -217.51)"></path><polygon class="cls-1" points="293.67 104.17 297.57 104.17 297.57 108.64 301.04 108.64 301.04 110.61 297.54 110.61 297.54 123.01 293.7 123.01 293.67 104.17"></polygon><path class="cls-1" d="M518.77,317.81H524v13.5h11.1a6.28,6.28,0,0,0,2.74-.51c.06-.33,0-13.7,0-13.7l5.51,0v6l4.94,0v2.63h-5l0,17.6H538V332.81s-1.15.43-1.92.65a14.8,14.8,0,0,1-2.34.34H521.06c-.42,0-2.29-1-2.29-2.09Z" transform="translate(-207.89 -217.51)"></path><rect class="cls-1" x="363.86" y="99.56" width="5.24" height="26.21"></rect><path class="cls-1" d="M585.1,317.11h22.4v7.25c0,.69-.65,3.43-1.39,3.48s-4.5,0-4.5,0a2.16,2.16,0,0,0,.61-1.44,8.5,8.5,0,0,0,0-1.1h-5.65v3.76h14.29v2.71h-29.4v-2.54h9.83V325.3h-6.19v-2.62h16.87v-2.79H585.1Z" transform="translate(-207.89 -217.51)"></path><path class="cls-1" d="M559.18,317.84c-4.58,0-9.25,2.71-9.21,7.42,0,4.09,4.13,7.49,9.21,7.41,4.63-.08,9.38-2.54,9.38-7.45C568.56,321.12,565.12,317.84,559.18,317.84Zm.05,12.38a4.6,4.6,0,0,1-4-4.81,4.73,4.73,0,0,1,4-5c1.3,0,4.19.75,4.19,4.72C563.42,329.71,560.09,330.22,559.23,330.22Z" transform="translate(-207.89 -217.51)"></path><path class="cls-1" d="M586.17,333.9s0,6.35,0,7.45,1.75,1.88,2.29,1.88h18.63V333.9ZM601.89,341H591.41v-4.84h10.48Z" transform="translate(-207.89 -217.51)"></path></svg>