<?xml version="1.0" encoding="UTF-8"?>
<svg xmlns="http://www.w3.org/2000/svg" xmlns:xlink="http://www.w3.org/1999/xlink" width="50px" height="px" viewBox="0 0 50 51" version="1.1">
<defs>
<linearGradient id="linear0" gradientUnits="userSpaceOnUse" x1="0.49997" y1="1.00065" x2="0.49997" y2="-0.00016" gradientTransform="matrix(44.589844,0,0,44.441406,0,3.675781)">
<stop offset="0" style="stop-color:rgb(8.235294%,47.058824%,89.411765%);stop-opacity:1;"/>
<stop offset="1" style="stop-color:rgb(0%,76.470588%,94.901961%);stop-opacity:1;"/>
</linearGradient>
<linearGradient id="linear1" gradientUnits="userSpaceOnUse" x1="0.51682" y1="0.99547" x2="0.51682" y2="-0.00213" gradientTransform="matrix(0.976562,0,0,3.324219,35.164062,29.550781)">
<stop offset="0" style="stop-color:rgb(7.843137%,57.254902%,90.588235%);stop-opacity:1;"/>
<stop offset="1" style="stop-color:rgb(85.882353%,92.941176%,98.431373%);stop-opacity:1;"/>
</linearGradient>
<linearGradient id="linear2" gradientUnits="userSpaceOnUse" x1="0.471" y1="0.99547" x2="0.471" y2="-0.00213" gradientTransform="matrix(0.886719,0,0,3.324219,33.03125,29.550781)">
<stop offset="0" style="stop-color:rgb(7.843137%,57.254902%,90.588235%);stop-opacity:1;"/>
<stop offset="1" style="stop-color:rgb(85.882353%,92.941176%,98.431373%);stop-opacity:1;"/>
</linearGradient>
<linearGradient id="linear3" gradientUnits="userSpaceOnUse" x1="0.497" y1="0.99547" x2="0.497" y2="-0.00213" gradientTransform="matrix(0.222656,0,0,3.324219,22.183594,29.550781)">
<stop offset="0" style="stop-color:rgb(7.843137%,57.254902%,90.588235%);stop-opacity:1;"/>
<stop offset="1" style="stop-color:rgb(85.882353%,92.941176%,98.431373%);stop-opacity:1;"/>
</linearGradient>
<linearGradient id="linear4" gradientUnits="userSpaceOnUse" x1="0.502" y1="0.99547" x2="0.502" y2="-0.00213" gradientTransform="matrix(0.3125,0,0,3.324219,19.914063,29.550781)">
<stop offset="0" style="stop-color:rgb(7.843137%,57.254902%,90.588235%);stop-opacity:1;"/>
<stop offset="1" style="stop-color:rgb(85.882353%,92.941176%,98.431373%);stop-opacity:1;"/>
</linearGradient>
<linearGradient id="linear5" gradientUnits="userSpaceOnUse" x1="0.458" y1="0.99547" x2="0.458" y2="-0.00213" gradientTransform="matrix(0.445313,0,0,3.324219,17.648437,29.550781)">
<stop offset="0" style="stop-color:rgb(7.843137%,57.254902%,90.588235%);stop-opacity:1;"/>
<stop offset="1" style="stop-color:rgb(85.882353%,92.941176%,98.431373%);stop-opacity:1;"/>
</linearGradient>
<linearGradient id="linear6" gradientUnits="userSpaceOnUse" x1="0.46917" y1="0.99547" x2="0.46917" y2="-0.00213" gradientTransform="matrix(0.53125,0,0,3.324219,15.382812,29.550781)">
<stop offset="0" style="stop-color:rgb(7.843137%,57.254902%,90.588235%);stop-opacity:1;"/>
<stop offset="1" style="stop-color:rgb(85.882353%,92.941176%,98.431373%);stop-opacity:1;"/>
</linearGradient>
<linearGradient id="linear7" gradientUnits="userSpaceOnUse" x1="0.512" y1="0.99547" x2="0.512" y2="-0.00213" gradientTransform="matrix(0.667969,0,0,3.324219,13.070312,29.550781)">
<stop offset="0" style="stop-color:rgb(7.843137%,57.254902%,90.588235%);stop-opacity:1;"/>
<stop offset="1" style="stop-color:rgb(85.882353%,92.941176%,98.431373%);stop-opacity:1;"/>
</linearGradient>
<linearGradient id="linear8" gradientUnits="userSpaceOnUse" x1="0.526" y1="0.99547" x2="0.526" y2="-0.00213" gradientTransform="matrix(0.890625,0,0,3.324219,10.667969,29.550781)">
<stop offset="0" style="stop-color:rgb(7.843137%,57.254902%,90.588235%);stop-opacity:1;"/>
<stop offset="1" style="stop-color:rgb(85.882353%,92.941176%,98.431373%);stop-opacity:1;"/>
</linearGradient>
<linearGradient id="linear9" gradientUnits="userSpaceOnUse" x1="0.48045" y1="0.99547" x2="0.48045" y2="-0.00213" gradientTransform="matrix(0.980469,0,0,3.324219,8.445312,29.550781)">
<stop offset="0" style="stop-color:rgb(7.843137%,57.254902%,90.588235%);stop-opacity:1;"/>
<stop offset="1" style="stop-color:rgb(85.882353%,92.941176%,98.431373%);stop-opacity:1;"/>
</linearGradient>
<linearGradient id="linear10" gradientUnits="userSpaceOnUse" x1="0.49948" y1="0.99943" x2="0.49948" y2="0.00038" gradientTransform="matrix(16.800781,0,0,26.894531,18.183594,12.226562)">
<stop offset="0" style="stop-color:rgb(7.058824%,52.156863%,90.588235%);stop-opacity:1;"/>
<stop offset="1" style="stop-color:rgb(0%,70.980392%,93.72549%);stop-opacity:1;"/>
</linearGradient>
<linearGradient id="linear11" gradientUnits="userSpaceOnUse" x1="0.6656" y1="1.00135" x2="0.33185" y2="0.00097" gradientTransform="matrix(14.847656,0,0,25.609375,17.960938,13.558594)">
<stop offset="0" style="stop-color:rgb(16.862745%,56.470588%,90.588235%);stop-opacity:1;"/>
<stop offset="1" style="stop-color:rgb(0%,71.372549%,93.72549%);stop-opacity:1;"/>
</linearGradient>
<linearGradient id="linear12" gradientUnits="userSpaceOnUse" x1="0.66768" y1="1.00213" x2="0.33189" y2="0.00149" gradientTransform="matrix(15.425781,0,0,26.453125,18.09375,12.847656)">
<stop offset="0" style="stop-color:rgb(21.568627%,58.431373%,91.764706%);stop-opacity:1;"/>
<stop offset="1" style="stop-color:rgb(28.627451%,76.862745%,94.901961%);stop-opacity:1;"/>
</linearGradient>
<linearGradient id="linear13" gradientUnits="userSpaceOnUse" x1="0.66743" y1="0.99893" x2="0.33255" y2="0.00153" gradientTransform="matrix(15.695312,0,0,26.894531,18.714844,12.226562)">
<stop offset="0" style="stop-color:rgb(21.176471%,58.823529%,91.764706%);stop-opacity:1;"/>
<stop offset="1" style="stop-color:rgb(56.470588%,85.098039%,96.470588%);stop-opacity:1;"/>
</linearGradient>
<linearGradient id="linear14" gradientUnits="userSpaceOnUse" x1="0.66818" y1="0.99886" x2="0.33325" y2="-0.00089" gradientTransform="matrix(15.425781,0,0,26.492188,19.605469,12.007812)">
<stop offset="0" style="stop-color:rgb(18.823529%,59.215686%,91.764706%);stop-opacity:1;"/>
<stop offset="1" style="stop-color:rgb(70.980392%,89.803922%,97.647059%);stop-opacity:1;"/>
</linearGradient>
<linearGradient id="linear15" gradientUnits="userSpaceOnUse" x1="0.66837" y1="0.99976" x2="0.33388" y2="-0.00111" gradientTransform="matrix(14.847656,0,0,25.566406,20.359375,12.183594)">
<stop offset="0" style="stop-color:rgb(22.745098%,59.607843%,91.764706%);stop-opacity:1;"/>
<stop offset="1" style="stop-color:rgb(73.72549%,90.588235%,98.039216%);stop-opacity:1;"/>
</linearGradient>
<linearGradient id="linear16" gradientUnits="userSpaceOnUse" x1="0.01227" y1="0.67606" x2="0.99348" y2="0.31555" gradientTransform="matrix(2.933594,0,0,1.863281,24.050781,22.949219)">
<stop offset="0" style="stop-color:rgb(0%,64.313725%,92.54902%);stop-opacity:1;"/>
<stop offset="1" style="stop-color:rgb(72.54902%,87.45098%,96.470588%);stop-opacity:1;"/>
</linearGradient>
<linearGradient id="linear17" gradientUnits="userSpaceOnUse" x1="-0.00197" y1="0.66347" x2="0.97909" y2="0.29438" gradientTransform="matrix(2.933594,0,0,1.90625,22.984375,21.089844)">
<stop offset="0" style="stop-color:rgb(0%,64.313725%,92.54902%);stop-opacity:1;"/>
<stop offset="1" style="stop-color:rgb(72.54902%,87.45098%,96.470588%);stop-opacity:1;"/>
</linearGradient>
<linearGradient id="linear18" gradientUnits="userSpaceOnUse" x1="-0.04091" y1="0.62746" x2="0.93394" y2="0.25846" gradientTransform="matrix(2.933594,0,0,1.859375,19.738281,15.507812)">
<stop offset="0" style="stop-color:rgb(0%,70.588235%,93.72549%);stop-opacity:1;"/>
<stop offset="1" style="stop-color:rgb(76.470588%,91.372549%,98.039216%);stop-opacity:1;"/>
</linearGradient>
<linearGradient id="linear19" gradientUnits="userSpaceOnUse" x1="-0.03996" y1="0.62651" x2="0.91182" y2="0.26567" gradientTransform="matrix(3.023438,0,0,1.859375,18.625,13.601562)">
<stop offset="0" style="stop-color:rgb(0%,70.588235%,93.72549%);stop-opacity:1;"/>
<stop offset="1" style="stop-color:rgb(76.470588%,91.372549%,98.039216%);stop-opacity:1;"/>
</linearGradient>
<linearGradient id="linear20" gradientUnits="userSpaceOnUse" x1="0.50041" y1="1.00188" x2="0.50041" y2="-0.00034" gradientTransform="matrix(16.761719,0,0,26.804687,9.734375,12.316406)">
<stop offset="0" style="stop-color:rgb(7.058824%,52.156863%,90.588235%);stop-opacity:1;"/>
<stop offset="1" style="stop-color:rgb(0%,70.980392%,93.72549%);stop-opacity:1;"/>
</linearGradient>
<linearGradient id="linear21" gradientUnits="userSpaceOnUse" x1="0.33328" y1="1.00227" x2="0.66919" y2="0.00019" gradientTransform="matrix(14.890625,0,0,25.566406,11.871094,13.644531)">
<stop offset="0" style="stop-color:rgb(19.215686%,58.039216%,91.372549%);stop-opacity:1;"/>
<stop offset="1" style="stop-color:rgb(44.313725%,81.176471%,95.686275%);stop-opacity:1;"/>
</linearGradient>
<linearGradient id="linear22" gradientUnits="userSpaceOnUse" x1="0.33267" y1="1.00305" x2="0.6685" y2="0.00228" gradientTransform="matrix(15.429687,0,0,26.449219,11.15625,12.894531)">
<stop offset="0" style="stop-color:rgb(35.294118%,65.098039%,92.54902%);stop-opacity:1;"/>
<stop offset="1" style="stop-color:rgb(63.529412%,87.058824%,97.254902%);stop-opacity:1;"/>
</linearGradient>
<linearGradient id="linear23" gradientUnits="userSpaceOnUse" x1="0.33298" y1="0.99811" x2="0.66692" y2="0.00071" gradientTransform="matrix(15.648438,0,0,26.894531,10.3125,12.316406)">
<stop offset="0" style="stop-color:rgb(40%,67.058824%,93.333333%);stop-opacity:1;"/>
<stop offset="1" style="stop-color:rgb(74.509804%,90.980392%,98.039216%);stop-opacity:1;"/>
</linearGradient>
<linearGradient id="linear24" gradientUnits="userSpaceOnUse" x1="0.33174" y1="0.9997" x2="0.6678" y2="-0.00173" gradientTransform="matrix(15.425781,0,0,26.453125,9.648438,12.09375)">
<stop offset="0" style="stop-color:rgb(48.235294%,71.372549%,94.117647%);stop-opacity:1;"/>
<stop offset="1" style="stop-color:rgb(69.411765%,89.019608%,97.647059%);stop-opacity:1;"/>
</linearGradient>
<linearGradient id="linear25" gradientUnits="userSpaceOnUse" x1="0.33202" y1="0.99951" x2="0.66569" y2="-0.00187" gradientTransform="matrix(14.804688,0,0,25.5625,9.511719,12.273438)">
<stop offset="0" style="stop-color:rgb(35.294118%,65.098039%,92.54902%);stop-opacity:1;"/>
<stop offset="1" style="stop-color:rgb(68.627451%,89.019608%,97.647059%);stop-opacity:1;"/>
</linearGradient>
<linearGradient id="linear26" gradientUnits="userSpaceOnUse" x1="0.08383" y1="0.26376" x2="1.04985" y2="0.63366" gradientTransform="matrix(2.976562,0,0,1.816406,23.117188,13.601562)">
<stop offset="0" style="stop-color:rgb(75.686275%,90.588235%,98.039216%);stop-opacity:1;"/>
<stop offset="1" style="stop-color:rgb(53.72549%,83.137255%,96.078431%);stop-opacity:1;"/>
</linearGradient>
<linearGradient id="linear27" gradientUnits="userSpaceOnUse" x1="0.06806" y1="0.27833" x2="1.03463" y2="0.62708" gradientTransform="matrix(2.976563,0,0,1.773437,22.050781,15.507812)">
<stop offset="0" style="stop-color:rgb(75.686275%,90.588235%,98.039216%);stop-opacity:1;"/>
<stop offset="1" style="stop-color:rgb(53.72549%,83.137255%,96.078431%);stop-opacity:1;"/>
</linearGradient>
<linearGradient id="linear28" gradientUnits="userSpaceOnUse" x1="0.05567" y1="0.29495" x2="1.02209" y2="0.63636" gradientTransform="matrix(2.980469,0,0,1.816406,20.9375,17.367188)">
<stop offset="0" style="stop-color:rgb(75.686275%,90.588235%,98.039216%);stop-opacity:1;"/>
<stop offset="1" style="stop-color:rgb(53.72549%,83.137255%,96.078431%);stop-opacity:1;"/>
</linearGradient>
<linearGradient id="linear29" gradientUnits="userSpaceOnUse" x1="0.03896" y1="0.29952" x2="1.00537" y2="0.64102" gradientTransform="matrix(2.980469,0,0,1.816406,19.871094,19.273438)">
<stop offset="0" style="stop-color:rgb(69.019608%,87.45098%,97.254902%);stop-opacity:1;"/>
<stop offset="1" style="stop-color:rgb(32.156863%,74.117647%,94.901961%);stop-opacity:1;"/>
</linearGradient>
<linearGradient id="linear30" gradientUnits="userSpaceOnUse" x1="0.03731" y1="0.31313" x2="1.00403" y2="0.65463" gradientTransform="matrix(2.976562,0,0,1.816406,18.761719,21.132812)">
<stop offset="0" style="stop-color:rgb(70.588235%,87.058824%,97.254902%);stop-opacity:1;"/>
<stop offset="1" style="stop-color:rgb(30.588235%,70.980392%,94.117647%);stop-opacity:1;"/>
</linearGradient>
<linearGradient id="linear31" gradientUnits="userSpaceOnUse" x1="0.03582" y1="0.32674" x2="1.00224" y2="0.66815" gradientTransform="matrix(2.980469,0,0,1.816406,17.648438,22.996094)">
<stop offset="0" style="stop-color:rgb(70.588235%,87.058824%,97.254902%);stop-opacity:1;"/>
<stop offset="1" style="stop-color:rgb(30.588235%,70.980392%,94.117647%);stop-opacity:1;"/>
</linearGradient>
<linearGradient id="linear32" gradientUnits="userSpaceOnUse" x1="0.02075" y1="0.32975" x2="0.98701" y2="0.67116" gradientTransform="matrix(2.976562,0,0,1.816406,16.582031,24.898437)">
<stop offset="0" style="stop-color:rgb(70.980392%,86.666667%,97.254902%);stop-opacity:1;"/>
<stop offset="1" style="stop-color:rgb(27.45098%,68.235294%,93.333333%);stop-opacity:1;"/>
</linearGradient>
<linearGradient id="linear33" gradientUnits="userSpaceOnUse" x1="0.00522" y1="0.34139" x2="0.97179" y2="0.67456" gradientTransform="matrix(2.976563,0,0,1.773437,15.515625,26.804687)">
<stop offset="0" style="stop-color:rgb(58.823529%,80.784314%,95.686275%);stop-opacity:1;"/>
<stop offset="1" style="stop-color:rgb(27.45098%,66.666667%,93.333333%);stop-opacity:1;"/>
</linearGradient>
<linearGradient id="linear34" gradientUnits="userSpaceOnUse" x1="0.02164" y1="0.39322" x2="0.92382" y2="0.60185" gradientTransform="matrix(2.445312,0,0,0.972656,12.804687,33.230469)">
<stop offset="0" style="stop-color:rgb(56.078431%,75.686275%,94.901961%);stop-opacity:1;"/>
<stop offset="1" style="stop-color:rgb(19.215686%,57.647059%,91.764706%);stop-opacity:1;"/>
</linearGradient>
<linearGradient id="linear35" gradientUnits="userSpaceOnUse" x1="-0.0397" y1="0.37208" x2="0.92687" y2="0.73049" gradientTransform="matrix(2.980469,0,0,1.816406,11.15625,34.292969)">
<stop offset="0" style="stop-color:rgb(56.078431%,75.686275%,94.901961%);stop-opacity:1;"/>
<stop offset="1" style="stop-color:rgb(19.215686%,57.647059%,91.764706%);stop-opacity:1;"/>
</linearGradient>
<linearGradient id="linear36" gradientUnits="userSpaceOnUse" x1="-0.04119" y1="0.36008" x2="0.92522" y2="0.7358" gradientTransform="matrix(2.976563,0,0,1.816406,10.046875,36.199219)">
<stop offset="0" style="stop-color:rgb(56.078431%,75.686275%,94.901961%);stop-opacity:1;"/>
<stop offset="1" style="stop-color:rgb(19.215686%,57.647059%,91.764706%);stop-opacity:1;"/>
</linearGradient>
<linearGradient id="linear37" gradientUnits="userSpaceOnUse" x1="0.45594" y1="0.4814" x2="0.53241" y2="0.54535" gradientTransform="matrix(24.628906,0,0,42.089844,18.847656,6.070312)">
<stop offset="0.001" style="stop-color:rgb(0%,0%,0%);stop-opacity:1;"/>
<stop offset="1" style="stop-color:rgb(0%,0%,0%);stop-opacity:0;"/>
</linearGradient>
<radialGradient id="radial0" gradientUnits="userSpaceOnUse" cx="0.64482" cy="0.2966" fx="0.64482" fy="0.2966" r="0.42357" gradientTransform="matrix(-7.631822,15.120212,-15.170232,-7.606659,45.622586,1.204847)">
<stop offset="0" style="stop-color:rgb(0%,0%,0%);stop-opacity:1;"/>
<stop offset="1" style="stop-color:rgb(0%,0%,0%);stop-opacity:0;"/>
</radialGradient>
<radialGradient id="radial1" gradientUnits="userSpaceOnUse" cx="0.48301" cy="0.48508" fx="0.48301" fy="0.48508" r="0.73404" gradientTransform="matrix(4.278439,2.010132,-2.097565,4.100176,15.573395,45.642395)">
<stop offset="0.417" style="stop-color:rgb(4.705882%,4.705882%,7.058824%);stop-opacity:1;"/>
<stop offset="1" style="stop-color:rgb(23.921569%,27.45098%,31.764706%);stop-opacity:1;"/>
</radialGradient>
<linearGradient id="linear38" gradientUnits="userSpaceOnUse" x1="0.40335" y1="0.40676" x2="0.60708" y2="0.55055" gradientTransform="matrix(11.027344,0,0,15.332031,28.050781,8.683594)">
<stop offset="0" style="stop-color:rgb(20.392157%,26.27451%,31.764706%);stop-opacity:1;"/>
<stop offset="0.1" style="stop-color:rgb(58.823529%,59.215686%,62.745098%);stop-opacity:1;"/>
<stop offset="0.181" style="stop-color:rgb(54.509804%,54.901961%,58.431373%);stop-opacity:1;"/>
<stop offset="0.351" style="stop-color:rgb(47.058824%,47.843137%,51.372549%);stop-opacity:1;"/>
<stop offset="0.47" style="stop-color:rgb(44.313725%,45.490196%,49.019608%);stop-opacity:1;"/>
<stop offset="0.591" style="stop-color:rgb(46.666667%,47.45098%,50.980392%);stop-opacity:1;"/>
<stop offset="0.749" style="stop-color:rgb(52.941176%,53.72549%,56.078431%);stop-opacity:1;"/>
<stop offset="0.8" style="stop-color:rgb(55.686275%,56.078431%,58.039216%);stop-opacity:1;"/>
<stop offset="0.849" style="stop-color:rgb(23.921569%,23.137255%,25.882353%);stop-opacity:1;"/>
<stop offset="0.9" style="stop-color:rgb(37.647059%,43.137255%,51.764706%);stop-opacity:1;"/>
</linearGradient>
<linearGradient id="linear39" gradientUnits="userSpaceOnUse" x1="0.74136" y1="0.89046" x2="0.18503" y2="0.04378" gradientTransform="matrix(6.757813,0,0,7.753906,40.675781,3.589844)">
<stop offset="0.27" style="stop-color:rgb(14.901961%,16.862745%,20%);stop-opacity:1;"/>
<stop offset="0.45" style="stop-color:rgb(45.490196%,45.490196%,49.411765%);stop-opacity:1;"/>
<stop offset="0.54" style="stop-color:rgb(69.019608%,69.019608%,73.72549%);stop-opacity:1;"/>
<stop offset="0.73" style="stop-color:rgb(45.490196%,45.490196%,49.411765%);stop-opacity:1;"/>
</linearGradient>
<linearGradient id="linear40" gradientUnits="userSpaceOnUse" x1="-0.0175" y1="0.55328" x2="0.97917" y2="0.48122" gradientTransform="matrix(7.15625,0,0,3.898437,37.875,8.328125)">
<stop offset="0.14" style="stop-color:rgb(37.647059%,43.137255%,51.764706%);stop-opacity:1;"/>
<stop offset="0.4" style="stop-color:rgb(59.607843%,60%,64.705882%);stop-opacity:1;"/>
<stop offset="0.73" style="stop-color:rgb(27.843137%,34.117647%,40.784314%);stop-opacity:1;"/>
<stop offset="0.92" style="stop-color:rgb(14.901961%,16.862745%,20%);stop-opacity:1;"/>
</linearGradient>
<linearGradient id="linear41" gradientUnits="userSpaceOnUse" x1="0.52156" y1="0.71394" x2="0.41552" y2="0.26303" gradientTransform="matrix(6.355469,0,0,4.742188,37.789062,7.308594)">
<stop offset="0" style="stop-color:rgb(6.27451%,7.058824%,8.235294%);stop-opacity:0.101961;"/>
<stop offset="0.46" style="stop-color:rgb(6.27451%,7.058824%,8.235294%);stop-opacity:0.701961;"/>
<stop offset="0.7" style="stop-color:rgb(27.843137%,28.627451%,31.764706%);stop-opacity:1;"/>
<stop offset="0.91" style="stop-color:rgb(48.235294%,49.019608%,53.333333%);stop-opacity:1;"/>
</linearGradient>
<linearGradient id="linear42" gradientUnits="userSpaceOnUse" x1="0.42628" y1="0.42616" x2="0.57838" y2="0.54013" gradientTransform="matrix(18.625,0,0,28.667969,13.648437,21.488281)">
<stop offset="0.115" style="stop-color:rgb(17.254902%,22.352941%,32.156863%);stop-opacity:1;"/>
<stop offset="0.374" style="stop-color:rgb(23.921569%,25.490196%,30.588235%);stop-opacity:1;"/>
<stop offset="0.55" style="stop-color:rgb(27.843137%,29.019608%,32.941176%);stop-opacity:1;"/>
<stop offset="0.754" style="stop-color:rgb(30.588235%,31.372549%,34.117647%);stop-opacity:1;"/>
<stop offset="0.892" style="stop-color:rgb(19.607843%,22.352941%,27.058824%);stop-opacity:1;"/>
<stop offset="1" style="stop-color:rgb(7.843137%,18.823529%,32.156863%);stop-opacity:1;"/>
</linearGradient>
<linearGradient id="linear43" gradientUnits="userSpaceOnUse" x1="0.2979" y1="0.695" x2="0.58065" y2="0.23542" gradientTransform="matrix(18.269531,0,0,13.378906,24.628906,0)">
<stop offset="0.118" style="stop-color:rgb(42.745098%,43.921569%,47.058824%);stop-opacity:0;"/>
<stop offset="0.2" style="stop-color:rgb(42.745098%,43.921569%,47.058824%);stop-opacity:0.701961;"/>
<stop offset="0.34" style="stop-color:rgb(20.784314%,21.176471%,22.745098%);stop-opacity:1;"/>
<stop offset="0.374" style="stop-color:rgb(11.372549%,12.156863%,13.333333%);stop-opacity:1;"/>
<stop offset="0.4" style="stop-color:rgb(6.27451%,7.058824%,8.235294%);stop-opacity:1;"/>
<stop offset="0.5" style="stop-color:rgb(8.627451%,9.019608%,10.196078%);stop-opacity:1;"/>
<stop offset="0.56" style="stop-color:rgb(16.078431%,16.470588%,18.039216%);stop-opacity:1;"/>
<stop offset="0.688" style="stop-color:rgb(29.411765%,30.196078%,31.764706%);stop-opacity:1;"/>
<stop offset="0.807" style="stop-color:rgb(38.823529%,40%,41.960784%);stop-opacity:1;"/>
<stop offset="0.915" style="stop-color:rgb(44.705882%,45.882353%,48.235294%);stop-opacity:1;"/>
<stop offset="1" style="stop-color:rgb(46.666667%,47.843137%,50.196078%);stop-opacity:1;"/>
</linearGradient>
<linearGradient id="linear44" gradientUnits="userSpaceOnUse" x1="-0.00164" y1="0.50004" x2="0.99957" y2="0.50004" gradientTransform="matrix(9.738281,0,0,7.796875,24.582031,1.019531)">
<stop offset="0" style="stop-color:rgb(29.019608%,30.196078%,33.72549%);stop-opacity:1;"/>
<stop offset="1" style="stop-color:rgb(16.078431%,16.078431%,17.647059%);stop-opacity:1;"/>
</linearGradient>
<linearGradient id="linear45" gradientUnits="userSpaceOnUse" x1="-0.0019" y1="0.49584" x2="0.99936" y2="0.49584" gradientTransform="matrix(8.09375,0,0,2.480469,24.582031,1.417969)">
<stop offset="0" style="stop-color:rgb(46.27451%,47.058824%,50.196078%);stop-opacity:1;"/>
<stop offset="0.41" style="stop-color:rgb(4.705882%,3.921569%,4.313725%);stop-opacity:1;"/>
</linearGradient>
<linearGradient id="linear46" gradientUnits="userSpaceOnUse" x1="0.31726" y1="0.89031" x2="0.67025" y2="0.08692" gradientTransform="matrix(5.378906,0,0,7.042969,44.589844,6.691406)">
<stop offset="0" style="stop-color:rgb(52.156863%,53.72549%,59.215686%);stop-opacity:1;"/>
<stop offset="0.23" style="stop-color:rgb(14.117647%,27.45098%,40.784314%);stop-opacity:1;"/>
<stop offset="0.282" style="stop-color:rgb(10.196078%,19.607843%,28.627451%);stop-opacity:1;"/>
<stop offset="0.4" style="stop-color:rgb(1.568627%,1.960784%,2.352941%);stop-opacity:1;"/>
<stop offset="0.464" style="stop-color:rgb(19.215686%,19.607843%,21.176471%);stop-opacity:1;"/>
<stop offset="0.546" style="stop-color:rgb(39.607843%,39.607843%,43.137255%);stop-opacity:1;"/>
<stop offset="0.607" style="stop-color:rgb(52.54902%,52.54902%,56.862745%);stop-opacity:1;"/>
<stop offset="0.64" style="stop-color:rgb(57.254902%,57.254902%,61.960784%);stop-opacity:1;"/>
</linearGradient>
</defs>
<g id="surface1">
<path style=" stroke:none;fill-rule:nonzero;fill:url(#linear0);" d="M 9.734375 3.675781 L 34.851562 3.675781 C 40.230469 3.675781 44.589844 8.019531 44.589844 13.378906 L 44.589844 38.414062 C 44.589844 43.773438 40.230469 48.117188 34.851562 48.117188 L 9.734375 48.117188 C 4.355469 48.117188 0 43.773438 0 38.414062 L 0 13.378906 C 0 8.019531 4.355469 3.675781 9.734375 3.675781 Z M 9.734375 3.675781 "/>
<path style=" stroke:none;fill-rule:nonzero;fill:rgb(100%,100%,100%);fill-opacity:1;" d="M 34.097656 6.070312 L 10.492188 6.070312 C 6 6.070312 2.355469 9.703125 2.355469 14.179688 L 2.355469 37.703125 C 2.355469 42.179688 6 45.8125 10.492188 45.8125 L 34.097656 45.8125 C 38.585938 45.8125 42.234375 42.179688 42.234375 37.703125 L 42.234375 14.132812 C 42.234375 9.660156 38.585938 6.070312 34.097656 6.070312 Z M 41.566406 37.792969 C 41.570312 39.746094 40.792969 41.617188 39.410156 43 C 38.023438 44.378906 36.144531 45.152344 34.1875 45.148438 L 10.402344 45.148438 C 6.355469 45.148438 3.023438 41.871094 3.023438 37.792969 L 3.023438 14.042969 C 3.019531 12.09375 3.792969 10.21875 5.179688 8.839844 C 6.5625 7.457031 8.445312 6.6875 10.402344 6.691406 L 34.230469 6.691406 C 38.277344 6.691406 41.609375 9.96875 41.609375 14.046875 L 41.609375 37.792969 Z M 41.566406 37.792969 "/>
<path style=" stroke:none;fill-rule:nonzero;fill:rgb(41.176471%,77.254902%,95.294118%);fill-opacity:1;" d="M 22.359375 7.664062 C 12.3125 7.664062 4.132812 15.816406 4.132812 25.832031 C 4.132812 35.84375 12.3125 43.996094 22.359375 43.996094 C 32.453125 43.996094 40.585938 35.84375 40.585938 25.832031 C 40.585938 15.816406 32.40625 7.664062 22.359375 7.664062 Z M 22.359375 43.730469 C 12.449219 43.730469 4.402344 35.710938 4.402344 25.832031 C 4.402344 15.949219 12.449219 7.929688 22.359375 7.929688 C 32.273438 7.929688 40.320312 15.949219 40.320312 25.832031 C 40.320312 35.710938 32.273438 43.730469 22.359375 43.730469 Z M 22.359375 43.730469 "/>
<path style=" stroke:none;fill-rule:nonzero;fill:rgb(40.784314%,77.254902%,95.686275%);fill-opacity:1;" d="M 22.359375 11.386719 C 14.316406 11.386719 7.824219 17.855469 7.824219 25.875 C 7.824219 33.894531 14.316406 40.320312 22.359375 40.320312 C 30.40625 40.320312 36.898438 33.851562 36.898438 25.832031 C 36.898438 17.8125 30.363281 11.386719 22.359375 11.386719 Z M 22.359375 40.007812 C 14.492188 40.007812 8.136719 33.671875 8.136719 25.832031 C 8.136719 17.988281 14.492188 11.652344 22.359375 11.652344 C 30.230469 11.652344 36.585938 17.988281 36.585938 25.832031 C 36.585938 33.671875 30.183594 40.007812 22.359375 40.007812 Z M 22.359375 40.007812 "/>
<path style=" stroke:none;fill-rule:nonzero;fill:rgb(100%,100%,100%);fill-opacity:1;" d="M 8.445312 29.152344 L 36.1875 29.152344 C 37.34375 29.152344 38.230469 30.082031 38.230469 31.191406 C 38.230469 32.34375 37.296875 33.230469 36.1875 33.230469 L 8.445312 33.230469 C 7.289062 33.230469 6.402344 32.300781 6.402344 31.191406 C 6.355469 30.082031 7.289062 29.152344 8.445312 29.152344 Z M 8.445312 29.152344 "/>
<path style=" stroke:none;fill-rule:nonzero;fill:rgb(3.921569%,57.647059%,91.372549%);fill-opacity:1;" d="M 8.359375 29.550781 L 36.1875 29.550781 C 37.074219 29.550781 37.832031 30.261719 37.832031 31.191406 L 37.832031 31.234375 C 37.832031 32.121094 37.121094 32.875 36.1875 32.875 L 8.359375 32.875 C 7.46875 32.875 6.710938 32.167969 6.710938 31.234375 L 6.710938 31.148438 C 6.757812 30.261719 7.46875 29.550781 8.359375 29.550781 Z M 8.359375 29.550781 "/>
<path style=" stroke:none;fill-rule:nonzero;fill:rgb(8.627451%,58.039216%,91.764706%);fill-opacity:1;" d="M 7.691406 32.699219 L 36.898438 32.699219 L 37.121094 32.566406 L 7.46875 32.566406 Z M 7.691406 32.699219 "/>
<path style=" stroke:none;fill-rule:nonzero;fill:rgb(19.215686%,61.568627%,92.54902%);fill-opacity:1;" d="M 7.023438 32.167969 L 37.519531 32.167969 L 37.609375 32.035156 L 6.933594 32.035156 Z M 7.023438 32.167969 "/>
<path style=" stroke:none;fill-rule:nonzero;fill:rgb(39.607843%,69.411765%,93.333333%);fill-opacity:1;" d="M 6.757812 31.324219 L 37.832031 31.324219 L 37.832031 31.148438 L 6.757812 31.148438 Z M 6.757812 31.324219 "/>
<path style=" stroke:none;fill-rule:nonzero;fill:rgb(55.686275%,77.647059%,95.294118%);fill-opacity:1;" d="M 7.070312 30.214844 L 37.566406 30.214844 L 37.652344 30.394531 L 6.980469 30.394531 L 7.023438 30.304688 Z M 7.070312 30.214844 "/>
<path style=" stroke:none;fill-rule:nonzero;fill:rgb(58.431373%,79.215686%,95.294118%);fill-opacity:1;" d="M 7.734375 29.683594 L 36.898438 29.683594 L 37.03125 29.730469 L 37.164062 29.816406 L 7.46875 29.816406 L 7.601562 29.730469 Z M 7.734375 29.683594 "/>
<path style=" stroke:none;fill-rule:nonzero;fill:url(#linear1);" d="M 35.386719 29.550781 L 35.164062 29.550781 C 35.164062 29.550781 35.921875 30.082031 35.921875 31.28125 C 35.921875 32.386719 35.164062 32.875 35.164062 32.875 L 35.386719 32.875 C 35.386719 32.875 36.140625 32.519531 36.140625 31.28125 C 36.140625 29.949219 35.386719 29.550781 35.386719 29.550781 Z M 35.386719 29.550781 "/>
<path style=" stroke:none;fill-rule:nonzero;fill:url(#linear2);" d="M 33.253906 29.550781 L 33.03125 29.550781 C 33.03125 29.550781 33.695312 30.171875 33.695312 31.28125 C 33.695312 32.253906 33.03125 32.875 33.03125 32.875 L 33.253906 32.875 C 33.253906 32.875 33.917969 32.386719 33.917969 31.28125 C 33.875 30.082031 33.253906 29.550781 33.253906 29.550781 Z M 33.253906 29.550781 "/>
<path style=" stroke:none;fill-rule:nonzero;fill:url(#linear3);" d="M 22.183594 29.550781 L 22.40625 29.550781 L 22.40625 32.875 L 22.183594 32.875 Z M 22.183594 29.550781 "/>
<path style=" stroke:none;fill-rule:nonzero;fill:url(#linear4);" d="M 20.003906 29.550781 L 20.226562 29.550781 C 20.226562 29.550781 20.136719 30.394531 20.136719 31.28125 C 20.136719 32.078125 20.226562 32.875 20.226562 32.875 L 20.003906 32.875 C 20.003906 32.875 19.914062 32.078125 19.914062 31.28125 C 19.914062 30.394531 20.003906 29.550781 20.003906 29.550781 Z M 20.003906 29.550781 "/>
<path style=" stroke:none;fill-rule:nonzero;fill:url(#linear5);" d="M 17.871094 29.550781 L 18.09375 29.550781 C 18.09375 29.550781 17.871094 30.394531 17.871094 31.28125 C 17.871094 32.078125 18.09375 32.875 18.09375 32.875 L 17.871094 32.875 C 17.871094 32.875 17.648438 32.078125 17.648438 31.28125 C 17.648438 30.394531 17.871094 29.550781 17.871094 29.550781 Z M 17.871094 29.550781 "/>
<path style=" stroke:none;fill-rule:nonzero;fill:url(#linear6);" d="M 15.691406 29.550781 L 15.914062 29.550781 C 15.914062 29.550781 15.605469 30.394531 15.605469 31.28125 C 15.605469 32.078125 15.914062 32.875 15.914062 32.875 L 15.691406 32.875 C 15.691406 32.875 15.382812 32.078125 15.382812 31.28125 C 15.382812 30.394531 15.691406 29.550781 15.691406 29.550781 Z M 15.691406 29.550781 "/>
<path style=" stroke:none;fill-rule:nonzero;fill:url(#linear7);" d="M 13.515625 29.550781 L 13.738281 29.550781 C 13.738281 29.550781 13.292969 30.261719 13.292969 31.28125 C 13.292969 32.167969 13.738281 32.875 13.738281 32.875 L 13.515625 32.875 C 13.515625 32.875 13.070312 32.167969 13.070312 31.28125 C 13.070312 30.261719 13.515625 29.550781 13.515625 29.550781 Z M 13.515625 29.550781 "/>
<path style=" stroke:none;fill-rule:nonzero;fill:url(#linear8);" d="M 11.335938 29.550781 L 11.558594 29.550781 C 11.558594 29.550781 10.890625 30.171875 10.890625 31.28125 C 10.890625 32.253906 11.558594 32.875 11.558594 32.875 L 11.335938 32.875 C 11.335938 32.875 10.667969 32.386719 10.667969 31.28125 C 10.714844 30.082031 11.335938 29.550781 11.335938 29.550781 Z M 11.335938 29.550781 "/>
<path style=" stroke:none;fill-rule:nonzero;fill:url(#linear9);" d="M 9.203125 29.550781 L 9.425781 29.550781 C 9.425781 29.550781 8.667969 30.082031 8.667969 31.28125 C 8.667969 32.386719 9.425781 32.875 9.425781 32.875 L 9.203125 32.875 C 9.203125 32.875 8.445312 32.519531 8.445312 31.28125 C 8.445312 29.949219 9.203125 29.550781 9.203125 29.550781 Z M 9.203125 29.550781 "/>
<path style=" stroke:none;fill-rule:nonzero;fill:rgb(100%,100%,100%);fill-opacity:1;" d="M 21.425781 12.671875 L 35.296875 36.597656 C 35.875 37.570312 35.519531 38.8125 34.542969 39.386719 C 33.5625 39.964844 32.320312 39.609375 31.742188 38.636719 L 17.871094 14.710938 C 17.292969 13.734375 17.648438 12.496094 18.625 11.917969 C 19.605469 11.34375 20.851562 11.695312 21.425781 12.671875 Z M 21.425781 12.671875 "/>
<path style=" stroke:none;fill-rule:nonzero;fill:url(#linear10);" d="M 21.070312 12.847656 L 34.984375 36.863281 C 35.429688 37.617188 35.164062 38.636719 34.410156 39.078125 L 34.320312 39.121094 C 33.5625 39.566406 32.542969 39.300781 32.097656 38.546875 L 18.183594 14.488281 C 17.738281 13.734375 18.003906 12.714844 18.761719 12.273438 L 18.804688 12.226562 C 19.605469 11.785156 20.628906 12.050781 21.070312 12.847656 Z M 21.070312 12.847656 "/>
<path style=" stroke:none;fill-rule:nonzero;fill:url(#linear11);" d="M 17.960938 13.824219 L 32.542969 39.035156 L 32.628906 39.078125 L 32.71875 39.121094 L 32.808594 39.167969 L 17.960938 13.558594 Z M 17.960938 13.824219 "/>
<path style=" stroke:none;fill-rule:nonzero;fill:url(#linear12);" d="M 18.09375 12.980469 L 33.339844 39.300781 L 33.519531 39.300781 L 18.183594 12.847656 L 18.136719 12.9375 Z M 18.09375 12.980469 "/>
<path style=" stroke:none;fill-rule:nonzero;fill:url(#linear13);" d="M 18.714844 12.316406 L 34.273438 39.121094 L 34.410156 39.035156 L 18.847656 12.226562 Z M 18.714844 12.316406 "/>
<path style=" stroke:none;fill-rule:nonzero;fill:url(#linear14);" d="M 19.828125 12.050781 L 35.03125 38.324219 L 34.984375 38.414062 L 34.941406 38.5 L 19.605469 12.007812 L 19.695312 12.007812 Z M 19.828125 12.050781 "/>
<path style=" stroke:none;fill-rule:nonzero;fill:url(#linear15);" d="M 20.628906 12.316406 L 35.207031 37.484375 L 35.207031 37.75 L 20.359375 12.183594 L 20.449219 12.226562 L 20.539062 12.273438 Z M 20.628906 12.316406 "/>
<path style=" stroke:none;fill-rule:nonzero;fill:rgb(23.529412%,59.607843%,91.764706%);fill-opacity:1;" d="M 34.542969 36.066406 L 34.453125 35.886719 C 34.453125 35.886719 34.363281 36.773438 33.386719 37.394531 C 32.453125 37.96875 31.609375 37.570312 31.609375 37.570312 L 31.695312 37.75 C 31.695312 37.75 32.40625 38.234375 33.476562 37.570312 C 34.542969 36.953125 34.542969 36.066406 34.542969 36.066406 Z M 33.429688 34.203125 L 33.339844 34.027344 C 33.339844 34.027344 33.121094 34.914062 32.1875 35.445312 C 31.339844 35.976562 30.496094 35.710938 30.496094 35.710938 L 30.585938 35.886719 C 30.585938 35.886719 31.339844 36.199219 32.320312 35.621094 C 33.296875 35.046875 33.429688 34.203125 33.429688 34.203125 Z M 33.429688 34.203125 "/>
<path style=" stroke:none;fill-rule:nonzero;fill:rgb(29.803922%,64.313725%,92.941176%);fill-opacity:1;" d="M 32.363281 32.34375 L 32.273438 32.167969 C 32.273438 32.167969 31.875 32.917969 31.03125 33.40625 C 30.273438 33.851562 29.429688 33.851562 29.429688 33.851562 L 29.519531 34.027344 C 29.519531 34.027344 30.320312 34.027344 31.117188 33.582031 C 31.964844 33.097656 32.363281 32.34375 32.363281 32.34375 Z M 32.363281 32.34375 "/>
<path style=" stroke:none;fill-rule:nonzero;fill:rgb(30.196078%,65.490196%,93.333333%);fill-opacity:1;" d="M 31.296875 30.484375 L 31.207031 30.304688 C 31.207031 30.304688 30.628906 31.058594 29.875 31.457031 C 29.164062 31.855469 28.316406 31.988281 28.316406 31.988281 L 28.40625 32.164062 C 28.40625 32.164062 29.25 32.035156 29.960938 31.632812 C 30.675781 31.234375 31.296875 30.484375 31.296875 30.484375 Z M 31.296875 30.484375 "/>
<path style=" stroke:none;fill-rule:nonzero;fill:url(#linear16);" d="M 26.894531 22.949219 L 26.984375 23.128906 C 26.984375 23.128906 26.230469 23.480469 25.472656 23.878906 C 24.761719 24.28125 24.140625 24.8125 24.140625 24.8125 L 24.050781 24.632812 C 24.050781 24.632812 24.71875 24.101562 25.382812 23.703125 C 26.140625 23.304688 26.894531 22.949219 26.894531 22.949219 Z M 26.894531 22.949219 "/>
<path style=" stroke:none;fill-rule:nonzero;fill:url(#linear17);" d="M 25.828125 21.089844 L 25.917969 21.265625 C 25.917969 21.265625 25.074219 21.53125 24.363281 21.976562 C 23.648438 22.375 23.074219 22.996094 23.074219 22.996094 L 22.984375 22.816406 C 22.984375 22.816406 23.5625 22.195312 24.273438 21.796875 C 24.984375 21.3125 25.828125 21.089844 25.828125 21.089844 Z M 25.828125 21.089844 "/>
<path style=" stroke:none;fill-rule:nonzero;fill:rgb(61.568627%,83.137255%,96.862745%);fill-opacity:1;" d="M 23.828125 19.628906 C 24.164062 19.523438 24.507812 19.433594 24.851562 19.363281 L 24.761719 19.183594 C 24.761719 19.183594 24.363281 19.230469 23.917969 19.40625 C 23.648438 19.496094 23.605469 19.714844 23.828125 19.628906 Z M 23.828125 19.628906 "/>
<path style=" stroke:none;fill-rule:nonzero;fill:url(#linear18);" d="M 22.582031 15.507812 L 22.671875 15.683594 C 22.671875 15.683594 21.828125 15.460938 20.851562 15.996094 C 20.003906 16.527344 19.828125 17.367188 19.828125 17.367188 L 19.738281 17.191406 C 19.738281 17.191406 19.828125 16.4375 20.761719 15.863281 C 21.738281 15.242188 22.582031 15.507812 22.582031 15.507812 Z M 22.582031 15.507812 "/>
<path style=" stroke:none;fill-rule:nonzero;fill:url(#linear19);" d="M 21.515625 13.601562 L 21.648438 13.777344 C 21.648438 13.777344 20.761719 13.425781 19.738281 14 C 18.761719 14.621094 18.761719 15.460938 18.761719 15.460938 L 18.625 15.285156 C 18.625 15.285156 18.539062 14.53125 19.605469 13.867188 C 20.714844 13.203125 21.515625 13.601562 21.515625 13.601562 Z M 21.515625 13.601562 "/>
<path style=" stroke:none;fill-rule:nonzero;fill:rgb(100%,100%,100%);fill-opacity:1;" d="M 18.539062 29.152344 C 22.40625 22.507812 26.851562 14.796875 26.851562 14.796875 C 27.429688 13.824219 27.074219 12.582031 26.09375 12.007812 C 25.117188 11.429688 23.871094 11.785156 23.292969 12.761719 C 23.292969 12.761719 17.871094 22.152344 13.78125 29.152344 Z M 16.136719 33.230469 C 14.269531 36.417969 12.980469 38.722656 12.980469 38.722656 C 12.402344 39.699219 11.160156 40.050781 10.179688 39.476562 C 9.203125 38.902344 8.847656 37.660156 9.425781 36.683594 C 9.425781 36.683594 10.179688 35.3125 11.378906 33.273438 C 12.890625 33.230469 15.648438 33.230469 16.136719 33.230469 Z M 16.136719 33.230469 "/>
<path style=" stroke:none;fill-rule:nonzero;fill:url(#linear20);" d="M 18.046875 29.152344 C 21.960938 22.417969 26.496094 14.578125 26.496094 14.578125 C 26.941406 13.824219 26.671875 12.804688 25.917969 12.363281 L 25.871094 12.316406 C 25.117188 11.875 24.09375 12.140625 23.648438 12.894531 C 23.648438 12.894531 18.316406 22.109375 14.226562 29.152344 Z M 15.691406 33.230469 C 13.914062 36.332031 12.625 38.546875 12.625 38.546875 C 12.179688 39.300781 11.203125 39.566406 10.402344 39.121094 L 10.3125 39.121094 C 9.558594 38.679688 9.289062 37.703125 9.734375 36.90625 C 9.734375 36.90625 10.582031 35.445312 11.871094 33.230469 Z M 15.691406 33.230469 "/>
<path style=" stroke:none;fill-rule:nonzero;fill:url(#linear21);" d="M 17.914062 29.152344 L 26.761719 13.910156 L 26.761719 13.644531 C 26.761719 13.644531 21.871094 22.109375 17.78125 29.152344 Z M 15.515625 33.230469 L 12.136719 39.078125 L 12.003906 39.167969 L 11.871094 39.210938 C 11.871094 39.210938 13.382812 36.597656 15.335938 33.230469 Z M 15.515625 33.230469 "/>
<path style=" stroke:none;fill-rule:nonzero;fill:url(#linear22);" d="M 17.25 29.152344 L 26.585938 13.070312 L 26.539062 12.980469 L 26.496094 12.894531 C 26.496094 12.894531 21.382812 21.710938 17.117188 29.109375 Z M 14.890625 33.230469 L 11.335938 39.34375 L 11.15625 39.34375 C 11.15625 39.34375 12.667969 36.730469 14.714844 33.183594 C 14.804688 33.230469 14.890625 33.230469 14.890625 33.230469 Z M 14.890625 33.230469 "/>
<path style=" stroke:none;fill-rule:nonzero;fill:url(#linear23);" d="M 16.269531 29.152344 C 20.671875 21.578125 25.960938 12.40625 25.960938 12.40625 L 25.828125 12.316406 L 16.046875 29.152344 Z M 13.871094 33.273438 C 11.914062 36.683594 10.445312 39.210938 10.445312 39.210938 L 10.3125 39.121094 C 10.3125 39.121094 11.734375 36.640625 13.691406 33.273438 C 13.78125 33.230469 13.738281 33.230469 13.871094 33.273438 Z M 13.871094 33.273438 "/>
<path style=" stroke:none;fill-rule:nonzero;fill:url(#linear24);" d="M 15.203125 29.152344 C 19.605469 21.578125 25.074219 12.09375 25.074219 12.09375 L 24.894531 12.09375 C 24.894531 12.09375 19.425781 21.53125 15.027344 29.152344 Z M 12.625 33.230469 C 10.847656 36.285156 9.648438 38.367188 9.648438 38.367188 L 9.734375 38.546875 C 9.734375 38.546875 11.023438 36.332031 12.847656 33.230469 Z M 12.625 33.230469 "/>
<path style=" stroke:none;fill-rule:nonzero;fill:url(#linear25);" d="M 14.535156 29.152344 L 24.316406 12.273438 L 24.226562 12.316406 L 24.140625 12.363281 L 24.09375 12.40625 C 24.09375 12.40625 18.671875 21.753906 14.402344 29.152344 Z M 12.179688 33.230469 C 10.625 35.933594 9.511719 37.835938 9.511719 37.835938 L 9.511719 37.484375 C 9.511719 37.484375 10.492188 35.800781 12.003906 33.183594 C 12.09375 33.230469 12.09375 33.230469 12.179688 33.230469 Z M 12.179688 33.230469 "/>
<path style=" stroke:none;fill-rule:nonzero;fill:url(#linear26);" d="M 23.207031 13.601562 L 23.117188 13.78125 C 23.117188 13.78125 23.917969 13.378906 24.984375 13.957031 C 25.960938 14.488281 26.007812 15.417969 26.007812 15.417969 L 26.09375 15.242188 C 26.09375 15.242188 26.183594 14.398438 25.074219 13.78125 C 23.960938 13.160156 23.207031 13.601562 23.207031 13.601562 Z M 23.207031 13.601562 "/>
<path style=" stroke:none;fill-rule:nonzero;fill:url(#linear27);" d="M 22.140625 15.507812 L 22.050781 15.683594 C 22.050781 15.683594 22.9375 15.417969 23.871094 15.949219 C 24.761719 16.4375 24.9375 17.28125 24.9375 17.28125 L 25.027344 17.101562 C 25.027344 17.101562 24.9375 16.304688 23.960938 15.773438 C 22.9375 15.195312 22.140625 15.507812 22.140625 15.507812 Z M 22.140625 15.507812 "/>
<path style=" stroke:none;fill-rule:nonzero;fill:url(#linear28);" d="M 21.027344 17.367188 L 20.9375 17.546875 C 20.9375 17.546875 21.738281 17.5 22.628906 18.03125 C 23.429688 18.476562 23.828125 19.183594 23.828125 19.183594 L 23.917969 19.007812 C 23.917969 19.007812 23.515625 18.296875 22.714844 17.855469 C 21.871094 17.367188 21.027344 17.367188 21.027344 17.367188 Z M 21.027344 17.367188 "/>
<path style=" stroke:none;fill-rule:nonzero;fill:url(#linear29);" d="M 19.960938 19.273438 L 19.871094 19.449219 C 19.871094 19.449219 20.761719 19.582031 21.515625 20.027344 C 22.226562 20.425781 22.761719 21.089844 22.761719 21.089844 L 22.851562 20.914062 C 22.851562 20.914062 22.316406 20.246094 21.605469 19.847656 C 20.847656 19.40625 19.960938 19.273438 19.960938 19.273438 Z M 19.960938 19.273438 "/>
<path style=" stroke:none;fill-rule:nonzero;fill:url(#linear30);" d="M 18.847656 21.132812 L 18.761719 21.3125 C 18.761719 21.3125 19.605469 21.53125 20.359375 21.976562 C 21.070312 22.375 21.648438 22.949219 21.648438 22.949219 L 21.738281 22.773438 C 21.738281 22.773438 21.160156 22.195312 20.449219 21.796875 C 19.738281 21.398438 18.847656 21.132812 18.847656 21.132812 Z M 18.847656 21.132812 "/>
<path style=" stroke:none;fill-rule:nonzero;fill:url(#linear31);" d="M 17.78125 22.996094 L 17.648438 23.171875 C 17.648438 23.171875 18.449219 23.480469 19.203125 23.925781 C 19.914062 24.324219 20.539062 24.8125 20.539062 24.8125 L 20.628906 24.632812 C 20.628906 24.632812 20.003906 24.148438 19.292969 23.75 C 18.582031 23.347656 17.78125 22.996094 17.78125 22.996094 Z M 17.78125 22.996094 "/>
<path style=" stroke:none;fill-rule:nonzero;fill:url(#linear32);" d="M 16.582031 25.078125 L 16.671875 24.898438 L 19.558594 26.539062 L 19.472656 26.714844 Z M 16.582031 25.078125 "/>
<path style=" stroke:none;fill-rule:nonzero;fill:url(#linear33);" d="M 15.515625 26.984375 L 15.605469 26.804688 C 15.605469 26.804688 16.316406 27.335938 17.070312 27.734375 C 17.535156 27.992188 18.007812 28.230469 18.492188 28.445312 L 18.40625 28.578125 C 18.40625 28.578125 17.648438 28.265625 16.9375 27.867188 C 16.179688 27.46875 15.515625 26.984375 15.515625 26.984375 Z M 15.515625 26.984375 "/>
<path style=" stroke:none;fill-rule:nonzero;fill:rgb(45.098039%,72.54902%,94.509804%);fill-opacity:1;" d="M 14.804688 29.152344 C 14.582031 28.976562 14.449219 28.84375 14.449219 28.84375 L 14.535156 28.667969 C 14.535156 28.667969 14.804688 28.886719 15.160156 29.152344 Z M 14.804688 29.152344 "/>
<path style=" stroke:none;fill-rule:nonzero;fill:url(#linear34);" d="M 13.070312 33.230469 C 13.246094 33.363281 13.425781 33.496094 13.648438 33.628906 C 14.449219 34.070312 15.25 34.027344 15.25 34.027344 L 15.160156 34.203125 C 15.160156 34.203125 14.359375 34.25 13.558594 33.804688 C 13.28125 33.648438 13.027344 33.453125 12.804688 33.230469 Z M 13.070312 33.230469 "/>
<path style=" stroke:none;fill-rule:nonzero;fill:url(#linear35);" d="M 11.15625 34.46875 L 11.246094 34.292969 C 11.246094 34.292969 11.46875 35.179688 12.449219 35.710938 C 13.335938 36.199219 14.136719 35.933594 14.136719 35.933594 L 14.046875 36.109375 C 14.046875 36.109375 13.335938 36.417969 12.359375 35.886719 C 11.335938 35.3125 11.15625 34.46875 11.15625 34.46875 Z M 11.15625 34.46875 "/>
<path style=" stroke:none;fill-rule:nonzero;fill:url(#linear36);" d="M 10.046875 36.375 L 10.136719 36.199219 C 10.136719 36.199219 10.226562 37.128906 11.292969 37.703125 C 12.269531 38.234375 13.023438 37.835938 13.023438 37.835938 L 12.890625 38.015625 C 12.890625 38.015625 12.226562 38.503906 11.15625 37.882812 C 10.046875 37.261719 10.046875 36.375 10.046875 36.375 Z M 10.046875 36.375 "/>
<path style=" stroke:none;fill-rule:nonzero;fill:url(#linear37);" d="M 24.449219 48.160156 L 43.476562 8.328125 L 38.675781 6.070312 L 18.847656 47.496094 C 18.847656 47.496094 19.472656 47.804688 20.273438 48.160156 Z M 24.449219 48.160156 "/>
<path style=" stroke:none;fill-rule:nonzero;fill:url(#radial0);" d="M 35.699219 3.675781 L 44.589844 7.886719 L 44.589844 20.601562 C 41.519531 19.140625 20.984375 9.394531 20.984375 9.394531 C 20.984375 9.394531 22.40625 6.425781 23.738281 3.675781 Z M 35.699219 3.675781 "/>
<path style=" stroke:none;fill-rule:nonzero;fill:url(#radial1);" d="M 13.648438 46.386719 C 13.515625 46.652344 13.292969 46.964844 13.335938 47.453125 C 13.382812 49.269531 16.359375 50.953125 18.09375 50.953125 C 19.292969 50.953125 19.695312 50.464844 20.136719 49.578125 C 20.582031 48.691406 14.136719 45.324219 13.648438 46.386719 Z M 13.648438 46.386719 "/>
<path style=" stroke:none;fill-rule:nonzero;fill:url(#linear38);" d="M 34.140625 8.683594 C 34.140625 8.683594 38.71875 9.792969 39.078125 10.101562 C 39.433594 10.410156 38.5 12.183594 38.320312 12.449219 C 36.851562 14.222656 32.273438 24.015625 32.273438 24.015625 L 28.050781 21.621094 C 28.050781 21.621094 31.828125 14.621094 33.164062 12.140625 C 34.007812 10.457031 34.140625 8.683594 34.140625 8.683594 Z M 34.140625 8.683594 "/>
<path style=" stroke:none;fill-rule:nonzero;fill:url(#linear39);" d="M 44.722656 6.378906 C 45.523438 6.957031 46.589844 6.824219 47.433594 6.691406 C 48.011719 6.601562 47.121094 7.445312 46.144531 9.394531 C 45.167969 11.34375 45.210938 11.476562 45.078125 11.34375 C 44.945312 11.210938 40.542969 8.726562 40.675781 8.507812 C 40.855469 8.285156 41.566406 3.457031 41.921875 3.589844 C 43.210938 3.898438 43.433594 5.449219 44.722656 6.378906 Z M 44.722656 6.378906 "/>
<path style=" stroke:none;fill-rule:nonzero;fill:url(#linear40);" d="M 37.875 11.828125 C 38.1875 11.34375 39.609375 8.328125 41.875 8.328125 C 42.898438 8.328125 44.855469 10.898438 45.03125 11.253906 C 45.167969 11.5625 44.722656 12.804688 44.5 12.226562 C 44.234375 11.5625 43.121094 10.144531 41.921875 10.144531 C 40.722656 10.144531 39.074219 11.519531 38.675781 12.007812 C 38.277344 12.449219 37.566406 12.316406 37.875 11.828125 Z M 37.875 11.828125 "/>
<path style=" stroke:none;fill-rule:nonzero;fill:url(#linear41);" d="M 37.789062 11.652344 C 38.007812 11.296875 39.03125 9.746094 39.519531 9.261719 C 40.007812 8.773438 41.253906 7.488281 42.320312 7.308594 C 43.386719 7.132812 44.5 9.304688 44.144531 9.746094 C 43.878906 10.058594 43.433594 9.703125 42.898438 9.261719 C 42.367188 8.859375 42.011719 8.0625 40.320312 9.347656 C 39.742188 9.792969 39.164062 10.144531 37.832031 12.050781 C 37.476562 12.539062 37.566406 12.007812 37.789062 11.652344 Z M 37.789062 11.652344 "/>
<path style=" stroke:none;fill-rule:nonzero;fill:url(#linear42);" d="M 32.273438 24.589844 C 32.453125 24.234375 32.675781 23.703125 32.1875 23.304688 C 31.652344 22.90625 29.164062 21.578125 28.71875 21.488281 C 28.273438 21.398438 27.917969 21.488281 27.742188 21.796875 C 27.5625 22.109375 13.914062 45.414062 13.648438 46.078125 C 13.382812 46.742188 13.335938 47.230469 13.738281 47.363281 C 14.136719 47.496094 18.714844 49.667969 19.160156 50.15625 C 19.605469 50.640625 19.828125 50.109375 20.003906 49.84375 C 20.851562 48.78125 32.050781 24.945312 32.273438 24.589844 Z M 32.273438 24.589844 "/>
<path style=" stroke:none;fill-rule:nonzero;fill:url(#linear43);" d="M 38.097656 11.5625 C 38.320312 11.253906 38.855469 10.367188 39.519531 9.570312 C 39.964844 9.039062 42.367188 7.886719 42.898438 6.027344 C 43.210938 5.007812 42.722656 3.988281 42.054688 3.542969 C 39.789062 2.171875 35.875 0 30.140625 0 C 26.273438 0 24.628906 1.285156 24.628906 1.285156 L 26.585938 1.285156 L 33.386719 3.941406 L 34.230469 7.488281 C 34.230469 7.488281 34.320312 8.683594 33.917969 10.058594 C 33.652344 11.164062 33.5625 11.828125 33.164062 12.9375 C 33.476562 13.070312 34.1875 12.582031 34.988281 12.804688 C 35.699219 12.980469 36.140625 13.957031 36.632812 13.378906 C 37.476562 12.273438 37.742188 12.050781 38.097656 11.5625 Z M 38.097656 11.5625 "/>
<path style=" stroke:none;fill-rule:nonzero;fill:url(#linear44);" d="M 34.097656 8.816406 C 33.742188 5.539062 32.941406 2.4375 24.582031 2.480469 C 25.117188 1.949219 26.40625 1.417969 26.40625 1.417969 L 24.582031 1.285156 C 24.582031 1.285156 24.851562 1.0625 25.382812 1.019531 C 30.273438 0.621094 34.628906 1.640625 34.320312 7.976562 C 34.273438 8.992188 34.1875 9.4375 34.097656 8.816406 Z M 34.097656 8.816406 "/>
<path style=" stroke:none;fill-rule:nonzero;fill:url(#linear45);" d="M 24.582031 2.480469 C 25.160156 2.257812 25.960938 2.125 27.472656 2.214844 C 29.339844 2.304688 31.695312 3.011719 32.675781 3.898438 C 33.164062 4.34375 33.121094 3.988281 32.585938 3.410156 C 31.207031 1.816406 29.117188 1.460938 26.40625 1.417969 C 26.09375 1.375 25.074219 1.949219 24.582031 2.480469 Z M 24.582031 2.480469 "/>
<path style=" stroke:none;fill-rule:nonzero;fill:url(#linear46);" d="M 47.523438 6.691406 L 49.96875 7.929688 C 49.96875 7.929688 49.035156 9.171875 48.277344 10.589844 C 47.476562 12.09375 46.945312 13.734375 46.945312 13.734375 L 44.589844 12.316406 C 44.589844 12.316406 45.167969 10.722656 46.011719 9.171875 C 46.679688 7.886719 47.523438 6.691406 47.523438 6.691406 Z M 47.523438 6.691406 "/>
<path style=" stroke:none;fill-rule:nonzero;fill:rgb(74.901961%,75.294118%,81.568627%);fill-opacity:1;" d="M 49.96875 7.929688 C 50.144531 8.019531 49.566406 9.394531 48.722656 10.988281 C 47.878906 12.582031 47.078125 13.824219 46.945312 13.734375 C 46.765625 13.644531 47.34375 12.273438 48.191406 10.675781 C 48.988281 9.082031 49.789062 7.84375 49.96875 7.929688 Z M 49.96875 7.929688 "/>
</g>
</svg>
