<svg id="Layer_1" data-name="Layer 1" xmlns="http://www.w3.org/2000/svg" viewBox="0 0 402.93 125.79"><defs><style>.cls-1{fill:#00307f}.cls-2{fill:#da1125}.cls-3{fill:none;stroke:#000;stroke-width:.3px}</style></defs><path class="cls-1" d="m208 311.51-.08-67.45h50.47s12 .38 17.73 5.22c8.92 7 7.9 17.86 7.9 17.86l-21.92 13.68v-15.68a11.3 11.3 0 0 0-3.4-3.67 9.93 9.93 0 0 0-5.59-2.16c-1.57-.21-23.11-.08-23.11-.08v52.28ZM283.94 289.07v22.24h-22v-8.58s14.88-8.2 22-13.66ZM315.81 264.71v46.73H294v-29a277.12 277.12 0 0 0 21.81-17.73Z" transform="translate(-207.89 -217.51)"/><path class="cls-2" d="M281.49 223.62a6.11 6.11 0 1 1-6.11-6.11 6.1 6.1 0 0 1 6.11 6.11ZM309 237.91a9.3 9.3 0 1 1-9.3-9.3 9.3 9.3 0 0 1 9.3 9.3Z" transform="translate(-207.89 -217.51)"/><path class="cls-2" d="M309.4 232.88c2.44-1.95 15.32-9.17 26.78-11.63 2.65-.46 3.92-.2 5 .84s.71 2.49.28 3.88c-.81 2.59-7.57 17.61-39.56 43.32-28.17 22.35-46.9 33.27-58 33.8-3.35-.2-3.35-2.23-3.4-2.86 0 0-1.3-5.42 13-20.81.63-.82-3 5-3.88 7.09-.33 1.18-1.12 3.6 2.49 3.88s17.49-3.89 43-24.71S325 235.17 325 235.17s2.57-4.39 1-6.19a4.16 4.16 0 0 0-3.18-.51c-4.21.6-8.49 2.31-13.42 4.41Z" transform="translate(-207.89 -217.51)"/><path class="cls-1" d="M397.8 244v15.58h-32.53c-8.54 0-19.6 7.79-19.6 18.72a18.26 18.26 0 0 0 18.47 18.22h33.54v14.57h-39.57c-4.9 0-35.81-3.65-35.81-33.17 0-29 31.16-34 37.94-34 5.53-.05 37.56.08 37.56.08ZM445.92 243.87c-28.77 0-46.73 13.82-46.73 34.17 0 18.73 11.93 35 46.73 35 34.17 0 47.61-16.45 47.74-35.18.12-19.42-14.33-33.99-47.74-33.99Zm.5 55.9c-8.43 0-22.86-4.65-22.86-21.86 0-15.2 14.18-19.72 22.61-19.72 9.67 0 23.12 4.65 23.12 19.47.25 18.59-14.44 22.11-22.87 22.11ZM499.86 245.66h82.07s9.28.71 14.7 4.16c5.72 3.64 7.54 6.51 8.46 8.07a11.69 11.69 0 0 1 1.56 4v47.6h-21.08V267.9s-.12-2.34-3.12-4.81a13.18 13.18 0 0 0-6.11-2.86h-12.49v49.17h-21.72V260h-19.9v49.55h-22.37ZM419.78 321.82h17l-.05 2h-6.38v1a8.81 8.81 0 0 0 7.26 3.95c1.57 1-1.42 1.61-1.42 1.61s-5.05-.11-7.53-3.1a11.54 11.54 0 0 1-7.39 3.06c-.93.14-2.26-.25-2.43-1.31 7.06-1 7.64-4 7.65-4.06v-1.22l-6.73.05Z" transform="translate(-207.89 -217.51)"/><path class="cls-1" d="M209.79 114.63h21.51v1.9h-8.77v6.44h-3.81v-6.44h-8.97l.04-1.9z"/><path class="cls-1" d="M445.73 321.9h3.81v3a4.2 4.2 0 0 0 1.8 4c2.15 1.71 3.66 1.61 3.66 1.61s.14 1.27-2.24 1.37-4.54-2.2-5.17-3c-2.39 2.34-3.42 2.69-3.42 2.69a5.67 5.67 0 0 1-2.68.43c-1.32-.53-1.41-1.26-1.41-1.26a4 4 0 0 0 2.38-.79c1-.82 3-1.9 3.17-3.61s.1-4.44.1-4.44Z" transform="translate(-207.89 -217.51)"/><path class="cls-1" d="M248.72 104.14h3.81v10.54h-3.81zM235.94 116.05h16.58v6.82h-3.75v-5.02h-12.78v-1.66"/><path class="cls-1" d="M480 321.55s0 11.38-.07 11.88c-.4.58-1.63.42-1.63.42h-5v-1.42a4.63 4.63 0 0 0 3.76-4 3.4 3.4 0 0 0-1.42-2.83h2.44v-1.9h-4.83v-2.24h-3.8l.05 2.24h-4.6v1.9h2.39a4.16 4.16 0 0 0-1.45 2.46s-.12.11 0 1a5 5 0 0 0 3.67 3.43v1.43h-4.93v1.57h13.8A3.6 3.6 0 0 0 480 335v5.51h3.76v-19Zm-8.5 9.63a2.51 2.51 0 0 1-2.28-2.75 2.41 2.41 0 0 1 2.16-2.72 2.52 2.52 0 0 1 2.25 2.72 2.37 2.37 0 0 1-2.11 2.75ZM491.22 322H495v4.86s-.2 1.39 1.81 3.53 2.4 1.87 2.4 1.87a4.6 4.6 0 0 0 1.41.28c.68 0-1.07 1.44-2.12 1.44a6.46 6.46 0 0 1-2.68-1c-.31-.17-2.29-1.52-2.71-2.6a20.51 20.51 0 0 1-2 2.29 5.82 5.82 0 0 1-3.05 1.33 3.75 3.75 0 0 1-2.4-1.33 4.69 4.69 0 0 0 1.69-.37c.65-.33 3.34-2.43 3.71-3.89s.19-.94.19-1.33Z" transform="translate(-207.89 -217.51)"/><path class="cls-1" d="M293.67 104.17h3.9v4.47h3.47v1.97h-3.5v12.4h-3.84l-.03-18.84z"/><path class="cls-1" d="M518.77 317.81H524v13.5h11.1a6.28 6.28 0 0 0 2.74-.51c.06-.33 0-13.7 0-13.7h5.51v6h4.94v2.63h-5v17.6H538v-10.52s-1.15.43-1.92.65a14.8 14.8 0 0 1-2.34.34h-12.68c-.42 0-2.29-1-2.29-2.09Z" transform="translate(-207.89 -217.51)"/><path class="cls-1" d="M363.86 99.56h5.24v26.21h-5.24z"/><path class="cls-1" d="M585.1 317.11h22.4v7.25c0 .69-.65 3.43-1.39 3.48s-4.5 0-4.5 0a2.16 2.16 0 0 0 .61-1.44 8.5 8.5 0 0 0 0-1.1h-5.65v3.76h14.29v2.71h-29.4v-2.54h9.83v-3.93h-6.19v-2.62h16.87v-2.79H585.1ZM559.18 317.84c-4.58 0-9.25 2.71-9.21 7.42 0 4.09 4.13 7.49 9.21 7.41 4.63-.08 9.38-2.54 9.38-7.45 0-4.1-3.44-7.38-9.38-7.38Zm.05 12.38a4.6 4.6 0 0 1-4-4.81 4.73 4.73 0 0 1 4-5c1.3 0 4.19.75 4.19 4.72 0 4.58-3.33 5.09-4.19 5.09ZM586.17 333.9v7.45c0 1.1 1.75 1.88 2.29 1.88h18.63v-9.33Zm15.72 7.1h-10.48v-4.84h10.48Z" transform="translate(-207.89 -217.51)"/></svg>