<?xml version="1.0" encoding="UTF-8"?>
<svg xmlns="http://www.w3.org/2000/svg" xmlns:xlink="http://www.w3.org/1999/xlink" width="50px" height="px" viewBox="0 0 50 74" version="1.1">
<g id="surface1">
<path style=" stroke:none;fill-rule:nonzero;fill:rgb(3.921569%,81.176471%,51.372549%);fill-opacity:1;" d="M 12.503906 74 C 19.402344 74 25 68.476562 25 61.667969 L 25 49.332031 L 12.503906 49.332031 C 5.605469 49.332031 0.00390625 54.859375 0.00390625 61.667969 C 0.00390625 68.476562 5.605469 74 12.503906 74 Z M 12.503906 74 "/>
<path style=" stroke:none;fill-rule:nonzero;fill:rgb(63.529412%,34.901961%,100%);fill-opacity:1;" d="M 0.00390625 37 C 0.00390625 30.191406 5.605469 24.667969 12.503906 24.667969 L 25 24.667969 L 25 49.332031 L 12.503906 49.332031 C 5.605469 49.332031 0.00390625 43.808594 0.00390625 37 Z M 0.00390625 37 "/>
<path style=" stroke:none;fill-rule:nonzero;fill:rgb(94.901961%,30.588235%,11.764706%);fill-opacity:1;" d="M 0.00390625 12.332031 C 0.00390625 5.523438 5.605469 0 12.503906 0 L 25 0 L 25 24.667969 L 12.503906 24.667969 C 5.605469 24.667969 0.00390625 19.140625 0.00390625 12.332031 Z M 0.00390625 12.332031 "/>
<path style=" stroke:none;fill-rule:nonzero;fill:rgb(100%,44.705882%,38.431373%);fill-opacity:1;" d="M 25 0 L 37.496094 0 C 44.394531 0 49.996094 5.523438 49.996094 12.332031 C 49.996094 19.140625 44.394531 24.667969 37.496094 24.667969 L 25 24.667969 Z M 25 0 "/>
<path style=" stroke:none;fill-rule:nonzero;fill:rgb(10.196078%,73.72549%,99.607843%);fill-opacity:1;" d="M 49.996094 37 C 49.996094 43.808594 44.394531 49.332031 37.496094 49.332031 C 30.597656 49.332031 25 43.808594 25 37 C 25 30.191406 30.597656 24.667969 37.496094 24.667969 C 44.394531 24.667969 49.996094 30.191406 49.996094 37 Z M 49.996094 37 "/>
</g>
</svg>
