<?xml version="1.0" encoding="UTF-8"?>
<svg xmlns="http://www.w3.org/2000/svg" xmlns:xlink="http://www.w3.org/1999/xlink" width="50px" height="px" viewBox="0 0 50 50" version="1.1">
<g id="surface1">
<path style=" stroke:none;fill-rule:nonzero;fill:rgb(12.54902%,53.333333%,100%);fill-opacity:1;" d="M 10.417969 0 C 4.675781 0 0 4.675781 0 10.417969 C 0 15.445312 3.585938 19.65625 8.332031 20.625 L 8.332031 35.417969 C 8.332031 40.015625 12.113281 43.75 16.667969 43.75 L 16.742188 43.75 C 17.25 47.273438 20.296875 50 23.957031 50 C 27.972656 50 31.25 46.722656 31.25 42.707031 C 31.25 38.695312 27.972656 35.417969 23.957031 35.417969 C 20.296875 35.417969 17.25 38.140625 16.742188 41.667969 L 16.667969 41.667969 C 13.253906 41.667969 10.417969 38.871094 10.417969 35.417969 L 10.417969 24.914062 C 11.777344 26.304688 13.644531 27.085938 15.589844 27.082031 L 16.742188 27.082031 C 17.25 30.609375 20.296875 33.332031 23.957031 33.332031 C 27.621094 33.332031 30.664062 30.609375 31.171875 27.082031 L 35.492188 27.082031 C 36 30.609375 39.046875 33.332031 42.707031 33.332031 C 46.722656 33.332031 50 30.054688 50 26.042969 C 50 22.027344 46.722656 18.75 42.707031 18.75 C 39.046875 18.75 36 21.476562 35.492188 25 L 31.171875 25 C 30.664062 21.476562 27.621094 18.75 23.957031 18.75 C 20.296875 18.75 17.25 21.476562 16.742188 25 L 15.589844 25 C 13.074219 25 10.980469 23.207031 10.515625 20.832031 C 16.210938 20.777344 20.832031 16.125 20.832031 10.417969 C 20.832031 4.675781 16.15625 0 10.417969 0 Z M 10.417969 2.082031 C 12.628906 2.078125 14.75 2.957031 16.3125 4.519531 C 17.878906 6.082031 18.753906 8.203125 18.75 10.417969 C 18.753906 12.628906 17.878906 14.75 16.3125 16.3125 C 14.75 17.878906 12.628906 18.753906 10.417969 18.75 C 8.203125 18.753906 6.082031 17.878906 4.519531 16.3125 C 2.957031 14.75 2.078125 12.628906 2.082031 10.417969 C 2.078125 8.203125 2.957031 6.082031 4.519531 4.519531 C 6.082031 2.957031 8.203125 2.078125 10.417969 2.082031 Z M 8.378906 5.03125 C 7.292969 5.035156 6.25 5.90625 6.25 7.097656 L 6.25 13.753906 C 6.25 15.332031 8.089844 16.355469 9.429688 15.523438 L 14.757812 12.222656 C 16.03125 11.433594 16.035156 9.488281 14.769531 8.6875 L 9.445312 5.332031 C 9.125 5.132812 8.757812 5.027344 8.378906 5.03125 Z M 8.332031 7.097656 L 13.660156 10.449219 L 8.332031 13.753906 Z M 23.957031 20.832031 C 25.339844 20.828125 26.667969 21.375 27.644531 22.355469 C 28.625 23.332031 29.171875 24.660156 29.167969 26.042969 C 29.171875 27.425781 28.625 28.75 27.644531 29.730469 C 26.667969 30.707031 25.339844 31.253906 23.957031 31.25 C 22.574219 31.253906 21.25 30.707031 20.269531 29.730469 C 19.292969 28.75 18.746094 27.425781 18.75 26.042969 C 18.746094 24.660156 19.292969 23.332031 20.269531 22.355469 C 21.25 21.375 22.574219 20.828125 23.957031 20.832031 Z M 42.707031 20.832031 C 44.089844 20.828125 45.417969 21.375 46.394531 22.355469 C 47.375 23.332031 47.921875 24.660156 47.917969 26.042969 C 47.921875 27.425781 47.375 28.75 46.394531 29.730469 C 45.417969 30.707031 44.089844 31.253906 42.707031 31.25 C 41.324219 31.253906 40 30.707031 39.019531 29.730469 C 38.042969 28.75 37.496094 27.425781 37.5 26.042969 C 37.496094 24.660156 38.042969 23.332031 39.019531 22.355469 C 40 21.375 41.324219 20.828125 42.707031 20.832031 Z M 26.082031 23.546875 C 25.804688 23.546875 25.539062 23.65625 25.34375 23.855469 L 22.882812 26.3125 L 22.066406 25.5 C 21.65625 25.09375 20.996094 25.09375 20.589844 25.5 C 20.1875 25.90625 20.1875 26.566406 20.59375 26.972656 L 22.148438 28.519531 C 22.554688 28.925781 23.210938 28.925781 23.617188 28.519531 L 26.816406 25.328125 C 27.222656 24.921875 27.222656 24.261719 26.816406 23.855469 C 26.621094 23.660156 26.355469 23.550781 26.082031 23.550781 Z M 44.832031 23.546875 C 44.554688 23.546875 44.289062 23.65625 44.09375 23.855469 L 41.632812 26.3125 L 40.816406 25.5 C 40.40625 25.09375 39.746094 25.09375 39.339844 25.5 C 38.9375 25.90625 38.9375 26.566406 39.34375 26.972656 L 40.898438 28.519531 C 41.304688 28.925781 41.960938 28.925781 42.367188 28.519531 L 45.566406 25.328125 C 45.972656 24.921875 45.972656 24.261719 45.566406 23.855469 C 45.371094 23.660156 45.105469 23.550781 44.832031 23.550781 Z M 23.957031 37.5 C 25.339844 37.496094 26.667969 38.042969 27.644531 39.019531 C 28.625 40 29.171875 41.324219 29.167969 42.707031 C 29.171875 44.089844 28.625 45.417969 27.644531 46.394531 C 26.667969 47.375 25.339844 47.921875 23.957031 47.917969 C 22.574219 47.921875 21.25 47.375 20.269531 46.394531 C 19.292969 45.417969 18.746094 44.089844 18.75 42.707031 C 18.746094 41.324219 19.292969 40 20.269531 39.019531 C 21.25 38.042969 22.574219 37.496094 23.957031 37.5 Z M 21.875 41.144531 C 21.019531 41.144531 20.3125 41.851562 20.3125 42.707031 C 20.3125 43.566406 21.019531 44.269531 21.875 44.269531 C 22.730469 44.269531 23.4375 43.566406 23.4375 42.707031 C 23.4375 41.851562 22.730469 41.144531 21.875 41.144531 Z M 26.042969 41.144531 C 25.183594 41.144531 24.480469 41.851562 24.480469 42.707031 C 24.480469 43.566406 25.183594 44.269531 26.042969 44.269531 C 26.898438 44.269531 27.605469 43.566406 27.605469 42.707031 C 27.605469 41.851562 26.898438 41.144531 26.042969 41.144531 Z M 21.875 42.1875 C 22.167969 42.1875 22.394531 42.414062 22.394531 42.707031 C 22.394531 43.003906 22.167969 43.230469 21.875 43.230469 C 21.582031 43.230469 21.355469 43.003906 21.355469 42.707031 C 21.355469 42.414062 21.582031 42.1875 21.875 42.1875 Z M 26.042969 42.1875 C 26.335938 42.1875 26.5625 42.414062 26.5625 42.707031 C 26.5625 43.003906 26.335938 43.230469 26.042969 43.230469 C 25.75 43.230469 25.519531 43.003906 25.519531 42.707031 C 25.519531 42.414062 25.75 42.1875 26.042969 42.1875 Z M 26.042969 42.1875 "/>
<path style=" stroke:none;fill-rule:nonzero;fill:rgb(47.45098%,72.156863%,100%);fill-opacity:1;" d="M 42.707031 35.417969 C 39.042969 35.417969 35.996094 38.148438 35.492188 41.679688 C 35.457031 41.675781 35.421875 41.675781 35.386719 41.675781 L 34.332031 41.710938 C 33.757812 41.726562 33.308594 42.210938 33.324219 42.785156 C 33.34375 43.359375 33.824219 43.808594 34.402344 43.792969 L 35.457031 43.757812 C 35.46875 43.757812 35.480469 43.753906 35.492188 43.753906 C 36.003906 47.277344 39.046875 50 42.707031 50 C 46.722656 50 50 46.722656 50 42.707031 C 50 38.695312 46.722656 35.417969 42.707031 35.417969 Z M 42.707031 37.5 C 44.089844 37.496094 45.417969 38.042969 46.394531 39.019531 C 47.375 40 47.921875 41.324219 47.917969 42.707031 C 47.921875 44.089844 47.375 45.417969 46.394531 46.394531 C 45.417969 47.375 44.089844 47.921875 42.707031 47.917969 C 41.324219 47.921875 40 47.375 39.019531 46.394531 C 38.042969 45.417969 37.496094 44.089844 37.5 42.707031 C 37.496094 41.324219 38.042969 40 39.019531 39.019531 C 40 38.042969 41.324219 37.496094 42.707031 37.5 Z M 42.707031 37.5 "/>
</g>
</svg>
