<?xml version="1.0" encoding="UTF-8"?>
<svg xmlns="http://www.w3.org/2000/svg" xmlns:xlink="http://www.w3.org/1999/xlink" width="50px" height="px" viewBox="0 0 50 51" version="1.1">
<g id="surface1">
<path style=" stroke:none;fill-rule:nonzero;fill:rgb(0%,0%,0%);fill-opacity:1;" d="M 49.804688 30.539062 C 49.507812 29.640625 48.722656 29.015625 47.707031 28.867188 C 47.226562 28.792969 46.679688 28.824219 46.027344 28.957031 C 44.898438 29.1875 44.058594 29.277344 43.445312 29.292969 C 45.757812 25.433594 47.636719 21.03125 48.71875 16.886719 C 50.46875 10.183594 49.535156 7.132812 48.441406 5.75 C 45.550781 2.09375 41.332031 0.132812 36.242188 0.0703125 C 33.523438 0.0390625 31.140625 0.570312 29.898438 0.949219 C 28.738281 0.75 27.496094 0.636719 26.1875 0.613281 C 23.742188 0.578125 21.578125 1.105469 19.726562 2.1875 C 18.703125 1.847656 17.0625 1.363281 15.164062 1.054688 C 10.703125 0.332031 7.109375 0.898438 4.476562 2.734375 C 1.292969 4.960938 -0.183594 8.824219 0.0898438 14.226562 C 0.175781 15.9375 1.144531 21.15625 2.671875 26.101562 C 3.550781 28.945312 4.484375 31.304688 5.453125 33.121094 C 6.824219 35.691406 8.292969 37.207031 9.941406 37.75 C 10.867188 38.054688 12.546875 38.269531 14.3125 36.8125 C 14.535156 37.082031 14.835938 37.347656 15.230469 37.597656 C 15.734375 37.910156 16.347656 38.167969 16.964844 38.320312 C 19.179688 38.867188 21.253906 38.730469 23.023438 37.960938 C 23.035156 38.273438 23.042969 38.570312 23.050781 38.828125 C 23.0625 39.242188 23.074219 39.652344 23.089844 40.035156 C 23.195312 42.617188 23.371094 44.628906 23.898438 46.03125 C 23.925781 46.109375 23.964844 46.226562 24.007812 46.351562 C 24.269531 47.148438 24.710938 48.480469 25.828125 49.523438 C 26.984375 50.605469 28.382812 50.933594 29.664062 50.933594 C 30.308594 50.933594 30.921875 50.851562 31.460938 50.738281 C 33.378906 50.332031 35.554688 49.710938 37.132812 47.492188 C 38.621094 45.394531 39.347656 42.234375 39.476562 37.253906 C 39.496094 37.113281 39.511719 36.980469 39.523438 36.851562 L 39.554688 36.589844 L 39.90625 36.621094 L 39.996094 36.625 C 41.953125 36.714844 44.339844 36.304688 45.808594 35.628906 C 46.964844 35.097656 50.679688 33.15625 49.804688 30.539062 "/>
<path style=" stroke:none;fill-rule:nonzero;fill:rgb(20%,40.392157%,56.862745%);fill-opacity:1;" d="M 46.464844 31.046875 C 40.65625 32.234375 40.257812 30.289062 40.257812 30.289062 C 46.390625 21.289062 48.953125 9.863281 46.742188 7.066406 C 40.707031 -0.5625 30.257812 3.046875 30.082031 3.140625 L 30.027344 3.148438 C 28.878906 2.914062 27.597656 2.773438 26.152344 2.75 C 23.523438 2.707031 21.53125 3.429688 20.019531 4.566406 C 20.019531 4.566406 1.378906 -3.027344 2.246094 14.117188 C 2.429688 17.765625 7.53125 41.71875 13.617188 34.484375 C 15.839844 31.839844 17.988281 29.601562 17.988281 29.601562 C 19.058594 30.300781 20.335938 30.660156 21.675781 30.53125 L 21.777344 30.445312 C 21.746094 30.773438 21.761719 31.09375 21.820312 31.472656 C 20.253906 33.207031 20.714844 33.511719 17.578125 34.148438 C 14.410156 34.796875 16.269531 35.945312 17.488281 36.246094 C 18.960938 36.609375 22.371094 37.128906 24.675781 33.9375 L 24.585938 34.300781 C 25.199219 34.789062 25.632812 37.464844 25.558594 39.894531 C 25.484375 42.320312 25.4375 43.988281 25.921875 45.289062 C 26.40625 46.59375 26.886719 49.523438 31.007812 48.648438 C 34.449219 47.917969 36.234375 46.027344 36.480469 42.875 C 36.65625 40.632812 37.054688 40.964844 37.082031 38.960938 L 37.402344 38.011719 C 37.769531 34.972656 37.460938 33.992188 39.582031 34.445312 L 40.097656 34.492188 C 41.65625 34.5625 43.699219 34.242188 44.898438 33.691406 C 47.480469 32.507812 49.011719 30.527344 46.464844 31.046875 Z M 46.464844 31.046875 "/>
<path style=" stroke:none;fill-rule:nonzero;fill:rgb(100%,100%,100%);fill-opacity:1;" d="M 21.109375 15.75 C 20.585938 15.675781 20.109375 15.742188 19.871094 15.921875 C 19.738281 16.023438 19.695312 16.140625 19.683594 16.222656 C 19.652344 16.433594 19.804688 16.671875 19.898438 16.792969 C 20.160156 17.136719 20.542969 17.375 20.925781 17.425781 C 20.980469 17.433594 21.035156 17.4375 21.089844 17.4375 C 21.722656 17.4375 22.300781 16.949219 22.351562 16.589844 C 22.414062 16.136719 21.75 15.835938 21.109375 15.75 M 38.449219 15.761719 C 38.398438 15.410156 37.761719 15.308594 37.160156 15.390625 C 36.554688 15.476562 35.972656 15.746094 36.019531 16.097656 C 36.058594 16.375 36.5625 16.84375 37.15625 16.84375 C 37.207031 16.84375 37.257812 16.839844 37.308594 16.835938 C 37.707031 16.78125 38 16.53125 38.136719 16.386719 C 38.347656 16.167969 38.472656 15.921875 38.449219 15.761719 "/>
<path style=" stroke:none;fill-rule:nonzero;fill:rgb(100%,100%,100%);fill-opacity:1;" d="M 48.398438 30.914062 C 48.175781 30.25 47.464844 30.039062 46.28125 30.28125 C 42.761719 31 41.503906 30.5 41.089844 30.199219 C 43.824219 26.082031 46.074219 21.101562 47.285156 16.457031 C 47.859375 14.257812 48.179688 12.214844 48.203125 10.546875 C 48.234375 8.71875 47.917969 7.375 47.269531 6.554688 C 44.652344 3.246094 40.808594 1.472656 36.160156 1.425781 C 32.960938 1.390625 30.261719 2.199219 29.738281 2.425781 C 28.632812 2.15625 27.433594 1.988281 26.125 1.964844 C 23.722656 1.929688 21.648438 2.496094 19.929688 3.65625 C 19.183594 3.378906 17.257812 2.726562 14.898438 2.351562 C 10.820312 1.699219 7.582031 2.191406 5.269531 3.8125 C 2.511719 5.746094 1.238281 9.199219 1.484375 14.082031 C 1.570312 15.722656 2.515625 20.777344 4.007812 25.613281 C 5.972656 31.984375 8.109375 35.585938 10.355469 36.328125 C 10.621094 36.414062 10.921875 36.476562 11.257812 36.476562 C 12.078125 36.476562 13.082031 36.109375 14.128906 34.867188 C 15.40625 33.355469 16.722656 31.875 18.085938 30.4375 C 18.96875 30.90625 19.941406 31.167969 20.933594 31.195312 C 20.933594 31.222656 20.9375 31.246094 20.941406 31.273438 C 20.769531 31.472656 20.601562 31.679688 20.4375 31.886719 C 19.75 32.75 19.605469 32.929688 17.394531 33.378906 C 16.761719 33.507812 15.089844 33.851562 15.066406 35.011719 C 15.039062 36.277344 17.042969 36.808594 17.273438 36.867188 C 18.066406 37.0625 18.832031 37.160156 19.566406 37.160156 C 21.34375 37.160156 22.90625 36.582031 24.15625 35.464844 C 24.121094 39.980469 24.308594 44.433594 24.859375 45.789062 C 25.308594 46.898438 26.40625 49.613281 29.871094 49.613281 C 30.378906 49.613281 30.9375 49.554688 31.554688 49.425781 C 35.171875 48.65625 36.742188 47.074219 37.351562 43.589844 C 37.675781 41.726562 38.234375 37.277344 38.496094 34.890625 C 39.050781 35.0625 39.761719 35.140625 40.535156 35.140625 C 42.140625 35.140625 43.996094 34.800781 45.160156 34.265625 C 46.46875 33.667969 48.828125 32.195312 48.398438 30.914062 Z M 39.785156 14.785156 C 39.773438 15.492188 39.675781 16.132812 39.570312 16.800781 C 39.457031 17.515625 39.34375 18.257812 39.3125 19.160156 C 39.285156 20.039062 39.394531 20.949219 39.503906 21.832031 C 39.71875 23.613281 39.941406 25.445312 39.082031 27.253906 C 38.9375 27.003906 38.8125 26.746094 38.699219 26.480469 C 38.59375 26.226562 38.363281 25.8125 38.039062 25.242188 C 36.792969 23.027344 33.863281 17.835938 35.363281 15.71875 C 35.808594 15.085938 36.941406 14.4375 39.785156 14.785156 Z M 36.339844 2.851562 C 40.503906 2.941406 43.800781 4.484375 46.136719 7.433594 C 47.925781 9.695312 45.953125 19.988281 40.25 28.871094 C 40.191406 28.796875 40.132812 28.726562 40.074219 28.65625 L 40.003906 28.566406 C 41.476562 26.15625 41.1875 23.773438 40.933594 21.660156 C 40.828125 20.792969 40.726562 19.976562 40.753906 19.207031 C 40.777344 18.390625 40.886719 17.691406 40.992188 17.015625 C 41.121094 16.183594 41.253906 15.320312 41.21875 14.304688 C 41.246094 14.199219 41.257812 14.070312 41.242188 13.921875 C 41.148438 12.945312 40.023438 10.03125 37.730469 7.390625 C 36.476562 5.945312 34.648438 4.332031 32.152344 3.242188 C 33.226562 3.019531 34.695312 2.816406 36.339844 2.851562 Z M 13.023438 33.957031 C 11.871094 35.328125 11.074219 35.066406 10.8125 34.980469 C 9.109375 34.417969 7.128906 30.851562 5.382812 25.199219 C 3.875 20.308594 2.992188 15.390625 2.921875 14.011719 C 2.703125 9.648438 3.773438 6.609375 6.101562 4.976562 C 9.890625 2.316406 16.121094 3.910156 18.625 4.714844 C 18.589844 4.75 18.550781 4.785156 18.515625 4.820312 C 14.40625 8.921875 14.503906 15.933594 14.515625 16.363281 C 14.515625 16.527344 14.527344 16.761719 14.546875 17.085938 C 14.617188 18.265625 14.75 20.460938 14.398438 22.945312 C 14.070312 25.253906 14.792969 27.515625 16.375 29.148438 C 16.535156 29.316406 16.707031 29.472656 16.882812 29.625 C 16.179688 30.371094 14.652344 32.019531 13.023438 33.957031 Z M 17.414062 28.164062 C 16.136719 26.847656 15.558594 25.019531 15.824219 23.140625 C 16.195312 20.515625 16.058594 18.230469 15.984375 17 C 15.972656 16.828125 15.964844 16.679688 15.960938 16.558594 C 16.558594 16.03125 19.339844 14.558594 21.324219 15.007812 C 22.230469 15.214844 22.78125 15.824219 23.011719 16.871094 C 24.199219 22.300781 23.167969 24.5625 22.339844 26.382812 C 22.171875 26.757812 22.007812 27.109375 21.871094 27.476562 L 21.765625 27.761719 C 21.496094 28.476562 21.242188 29.140625 21.089844 29.773438 C 19.734375 29.769531 18.414062 29.199219 17.414062 28.164062 Z M 17.621094 35.484375 C 17.226562 35.386719 16.867188 35.21875 16.660156 35.078125 C 16.835938 34.996094 17.144531 34.882812 17.683594 34.773438 C 20.289062 34.246094 20.691406 33.871094 21.570312 32.765625 C 21.769531 32.515625 22 32.226562 22.316406 31.878906 C 22.785156 31.355469 23 31.445312 23.390625 31.605469 C 23.707031 31.734375 24.015625 32.125 24.140625 32.558594 C 24.203125 32.761719 24.269531 33.148438 24.050781 33.449219 C 22.214844 35.992188 19.542969 35.960938 17.621094 35.484375 Z M 31.253906 48.03125 C 28.066406 48.707031 26.9375 47.097656 26.195312 45.261719 C 25.714844 44.074219 25.480469 38.722656 25.644531 32.8125 C 25.648438 32.730469 25.636719 32.65625 25.617188 32.585938 C 25.59375 32.445312 25.566406 32.304688 25.527344 32.167969 C 25.277344 31.308594 24.671875 30.585938 23.945312 30.289062 C 23.65625 30.171875 23.125 29.953125 22.488281 30.113281 C 22.621094 29.5625 22.859375 28.933594 23.113281 28.257812 L 23.222656 27.972656 C 23.339844 27.652344 23.492188 27.320312 23.652344 26.964844 C 24.519531 25.0625 25.703125 22.457031 24.417969 16.570312 C 23.9375 14.367188 22.328125 13.289062 19.886719 13.539062 C 18.421875 13.6875 17.085938 14.273438 16.417969 14.609375 C 16.273438 14.679688 16.140625 14.75 16.019531 14.816406 C 16.207031 12.59375 16.910156 8.445312 19.542969 5.816406 C 21.199219 4.164062 23.410156 3.347656 26.097656 3.390625 C 31.398438 3.476562 34.800781 6.167969 36.71875 8.410156 C 38.371094 10.339844 39.265625 12.289062 39.625 13.335938 C 36.9375 13.066406 35.109375 13.589844 34.183594 14.902344 C 32.167969 17.75 35.285156 23.28125 36.785156 25.9375 C 37.058594 26.425781 37.296875 26.84375 37.371094 27.023438 C 37.859375 28.195312 38.488281 28.972656 38.949219 29.542969 C 39.09375 29.71875 39.230469 29.886719 39.332031 30.035156 C 38.519531 30.269531 37.058594 30.804688 37.191406 33.484375 C 37.085938 34.828125 36.320312 41.125 35.933594 43.347656 C 35.421875 46.285156 34.328125 47.378906 31.253906 48.03125 Z M 44.554688 32.976562 C 43.722656 33.359375 42.332031 33.644531 41.007812 33.707031 C 39.546875 33.773438 38.804688 33.542969 38.628906 33.402344 C 38.546875 31.734375 39.175781 31.558594 39.839844 31.375 C 39.945312 31.34375 40.046875 31.316406 40.144531 31.28125 C 40.207031 31.332031 40.273438 31.382812 40.347656 31.429688 C 41.519531 32.195312 43.613281 32.277344 46.570312 31.675781 L 46.605469 31.667969 C 46.203125 32.035156 45.523438 32.53125 44.554688 32.976562 Z M 44.554688 32.976562 "/>
</g>
</svg>
