<?xml version="1.0" encoding="UTF-8"?>
<svg xmlns="http://www.w3.org/2000/svg" xmlns:xlink="http://www.w3.org/1999/xlink" width="50px" height="px" viewBox="0 0 50 50" version="1.1">
<g id="surface1">
<path style=" stroke:none;fill-rule:nonzero;fill:rgb(81.960784%,64.313725%,10.196078%);fill-opacity:1;" d="M 8.652344 30.589844 C 9.25 31.324219 9.882812 32.035156 10.546875 32.714844 C 8.523438 33.324219 7.195312 34.457031 6.367188 35.457031 C 5.054688 37.039062 4.363281 39.128906 4.523438 40.921875 L 1.035156 40.921875 C 1.734375 39.402344 4.527344 35.015625 8.652344 30.589844 Z M 49.0625 41.871094 L 44.820312 41.871094 C 35.089844 36.792969 26.546875 33.214844 17.472656 32.429688 C 17.492188 31.167969 17.714844 29.738281 18.148438 28.144531 L 17.3125 27.921875 C 16.867188 29.558594 16.636719 31.039062 16.609375 32.367188 C 15.664062 32.304688 14.710938 32.273438 13.75 32.273438 C 12.9375 32.273438 12.195312 32.347656 11.519531 32.476562 C 10.636719 31.597656 9.886719 30.757812 9.25 29.957031 C 13.433594 25.597656 20.328125 21.65625 26.328125 20.171875 C 28.015625 25.789062 31.644531 29.636719 36.042969 32.222656 C 36.367188 32.039062 36.683594 31.847656 36.996094 31.644531 L 44.671875 39.910156 L 45.007812 39.882812 C 47.105469 39.699219 48.296875 40.835938 48.613281 41.191406 C 48.847656 41.449219 48.984375 41.683594 49.0625 41.871094 Z M 49.0625 41.871094 "/>
<path style=" stroke:none;fill-rule:nonzero;fill:rgb(100%,86.27451%,46.27451%);fill-opacity:1;" d="M 45.316406 14.222656 C 45.472656 21.851562 41.578125 27.921875 36.128906 31.035156 C 26.882812 26.429688 25.140625 14.757812 26.71875 8.496094 C 27.15625 10.890625 27.953125 12.390625 29.675781 13.125 C 33.429688 12.050781 38.597656 11.96875 42.40625 13.015625 C 43.992188 11.863281 44.605469 10.101562 44.941406 8.5625 C 45.363281 10.351562 45.3125 14.222656 45.316406 14.222656 Z M 45.316406 14.222656 "/>
<path style=" stroke:none;fill-rule:nonzero;fill:rgb(0%,0%,0%);fill-opacity:1;" d="M 19.179688 22.753906 L 22.054688 21.445312 L 23.464844 25.625 Z M 16.25 24.269531 L 17.925781 23.273438 L 19.4375 25.886719 Z M 13.011719 26.410156 L 14.476562 25.3125 L 15.207031 27.925781 Z M 38.882812 33.308594 L 37.835938 32.316406 L 36.476562 34.40625 Z M 40.816406 35.609375 L 39.980469 34.71875 L 37.785156 36.390625 Z M 37.316406 11.984375 L 34.648438 12.039062 L 36.269531 15.59375 Z M 26.703125 18.726562 L 26.441406 17.210938 L 29.003906 18.570312 Z M 27.332031 20.976562 L 27.070312 19.984375 L 28.636719 20.609375 Z M 44.996094 19.355469 L 45.363281 18.207031 L 43.273438 19.09375 Z M 44.210938 21.707031 L 44.527344 20.765625 L 42.90625 21.238281 Z M 25.601562 24.6875 L 30.644531 24.6875 L 30.644531 25.3125 L 25.601562 25.3125 Z M 25.601562 23.195312 L 30.644531 23.195312 L 30.644531 23.816406 L 25.601562 23.816406 Z M 41.003906 24.6875 L 46.046875 24.6875 L 46.046875 25.3125 L 41.003906 25.3125 Z M 41.003906 23.195312 L 46.046875 23.195312 L 46.046875 23.816406 L 41.003906 23.816406 Z M 41.003906 23.195312 "/>
<path style=" stroke:none;fill-rule:nonzero;fill:rgb(0%,0%,0%);fill-opacity:1;" d="M 39.226562 19.503906 L 31.003906 19.503906 L 31.003906 18.941406 L 33.5625 18.941406 C 33.878906 17.59375 33.941406 16.304688 33.5625 15.648438 C 33.398438 15.371094 33.175781 15.242188 32.855469 15.242188 C 31.390625 15.242188 30.789062 16.789062 30.761719 16.855469 L 30.238281 16.65625 C 30.269531 16.578125 31 14.683594 32.855469 14.683594 C 33.371094 14.683594 33.785156 14.917969 34.042969 15.367188 C 34.507812 16.164062 34.453125 17.539062 34.140625 18.941406 L 38.628906 18.941406 C 39.222656 17.1875 40.46875 16.363281 42.550781 16.363281 L 42.550781 16.921875 C 40.292969 16.921875 39.664062 17.878906 39.210938 18.941406 L 41.660156 18.941406 L 41.65625 19.5 L 39.226562 19.5 Z M 39.59375 22.269531 L 39.597656 22.269531 M 39.59375 22.269531 L 39.597656 22.269531 "/>
<path style=" stroke:none;fill-rule:nonzero;fill:rgb(0%,0%,0%);fill-opacity:1;" d="M 39.59375 22.269531 L 39.597656 22.269531 C 38.933594 21.289062 38.722656 20.453125 39 19.5 L 38.429688 19.503906 C 38.230469 20.136719 38.308594 21.09375 38.800781 21.914062 L 33.097656 21.914062 C 33.445312 21.21875 33.765625 20.371094 34 19.503906 L 33.421875 19.503906 C 33.160156 20.421875 32.796875 21.332031 32.386719 22.054688 L 32.253906 22.289062 L 35.457031 24.300781 L 33.652344 25.488281 L 33.960938 25.957031 L 35.976562 24.628906 L 38.152344 26.046875 L 38.449219 25.574219 L 36.433594 24.328125 C 36.433594 24.328125 39.449219 22.367188 39.597656 22.273438 C 39.597656 22.273438 39.59375 22.269531 39.59375 22.269531 Z M 35.96875 23.960938 L 33.601562 22.472656 L 38.226562 22.472656 Z M 35.96875 23.960938 "/>
<path style=" stroke:none;fill-rule:nonzero;fill:rgb(0%,0%,0%);fill-opacity:1;" d="M 46.253906 13.546875 C 46.253906 12.574219 45.949219 8.453125 45.390625 7.320312 C 43.878906 7.894531 41.125 9.757812 40.503906 11.660156 C 37.519531 11.214844 34.152344 11.269531 31.203125 11.777344 C 30.710938 9.730469 28.242188 8.164062 26.375 7.277344 C 25.589844 8.605469 25.242188 11.683594 25.328125 13.867188 L 25.320312 13.875 C 25.664062 23.042969 30.164062 28.75 36.042969 32.207031 C 42.09375 28.75 46.414062 22.011719 46.25 13.542969 L 46.257812 13.546875 Z M 41.222656 11.78125 L 41.289062 11.792969 L 41.21875 11.78125 Z M 40.84375 11.714844 C 40.898438 11.722656 40.953125 11.734375 41.003906 11.742188 Z M 45.316406 14.210938 C 45.46875 21.835938 41.578125 27.90625 36.128906 31.019531 C 26.882812 26.414062 25.140625 14.742188 26.71875 8.480469 C 27.15625 10.875 27.949219 12.375 29.675781 13.113281 C 33.429688 12.039062 38.597656 11.953125 42.40625 13.003906 C 43.992188 11.847656 44.605469 10.085938 44.941406 8.546875 C 45.363281 10.339844 45.3125 14.207031 45.3125 14.210938 Z M 49.257812 40.601562 "/>
<path style=" stroke:none;fill-rule:nonzero;fill:rgb(0%,0%,0%);fill-opacity:1;" d="M 49.257812 40.601562 C 48.308594 39.539062 46.449219 39.035156 44.894531 39.070312 C 43.792969 37.757812 37.398438 31.027344 37.398438 31.027344 L 36.957031 31.585938 L 44.675781 39.894531 L 45.007812 39.867188 C 47.105469 39.6875 48.296875 40.824219 48.613281 41.175781 C 48.847656 41.433594 48.984375 41.671875 49.0625 41.855469 L 44.820312 41.855469 C 35.089844 36.777344 26.546875 33.199219 17.46875 32.417969 C 17.488281 31.15625 17.714844 29.726562 18.144531 28.132812 L 17.3125 27.90625 C 16.867188 29.542969 16.632812 31.027344 16.609375 32.351562 C 15.664062 32.289062 14.710938 32.257812 13.75 32.257812 C 12.9375 32.257812 12.195312 32.332031 11.519531 32.464844 C 10.636719 31.582031 9.886719 30.742188 9.246094 29.945312 C 13.460938 25.554688 20.421875 21.585938 26.453125 20.125 L 26.257812 19.28125 C 19.761719 20.847656 12.65625 25.109375 8.695312 29.226562 C 6.855469 26.746094 6.125 24.710938 5.910156 23.167969 C 5.636719 21.21875 6.101562 19.429688 7.253906 17.996094 C 9.058594 15.753906 11.625 15.597656 14.265625 16.039062 C 14.214844 16.457031 14.269531 16.855469 14.433594 17.101562 C 15.132812 18.132812 18.882812 18.496094 21.121094 17.496094 C 19.46875 15.179688 16.125 14.050781 15.195312 14.503906 C 14.890625 14.652344 14.65625 14.929688 14.5 15.25 C 13.585938 15.085938 12.679688 14.964844 12.019531 14.96875 C 9.691406 14.988281 7.914062 15.800781 6.582031 17.457031 C 5.273438 19.078125 4.746094 21.097656 5.050781 23.289062 C 5.34375 25.363281 6.371094 27.570312 8.09375 29.859375 C 7.808594 30.167969 7.53125 30.472656 7.265625 30.769531 C 3.066406 35.464844 0 40.503906 0 41.335938 L 0 41.769531 L 5.535156 41.769531 L 5.441406 41.257812 C 5.128906 39.605469 5.75 37.539062 7.03125 35.992188 C 7.835938 35.023438 9.164062 33.917969 11.253906 33.40625 C 13.109375 35.21875 15.476562 37.144531 18.109375 39 L 22.226562 39 L 22.226562 38.570312 C 22.226562 38.082031 21.984375 37.65625 21.542969 37.367188 C 20.894531 36.941406 19.890625 36.882812 18.96875 37.199219 C 18.089844 36.21875 17.597656 34.910156 17.492188 33.289062 C 26.421875 34.078125 34.964844 37.683594 44.605469 42.722656 L 49.910156 42.722656 L 49.976562 42.375 C 50.078125 41.878906 49.808594 41.214844 49.257812 40.597656 Z M 6.367188 35.441406 C 5.058594 37.023438 4.363281 39.109375 4.523438 40.902344 L 1.03125 40.902344 C 1.734375 39.386719 4.527344 35 8.652344 30.570312 C 9.25 31.308594 9.886719 32.019531 10.550781 32.699219 C 8.523438 33.308594 7.195312 34.441406 6.367188 35.441406 Z M 6.367188 35.441406 "/>
</g>
</svg>
